<?xml version="1.0" encoding="UTF-8" standalone="no"?>
<!DOCTYPE svg PUBLIC "-//W3C//DTD SVG 1.1//EN"
 "http://www.w3.org/Graphics/SVG/1.1/DTD/svg11.dtd">
<!-- Generated by graphviz version 2.40.1 (20161225.0304)
 -->
<!-- Title: dependency&#45;cruiser output Pages: 1 -->
<svg width="747pt" height="538pt"
 viewBox="0.00 0.00 746.50 538.00" xmlns="http://www.w3.org/2000/svg" xmlns:xlink="http://www.w3.org/1999/xlink">
<g id="graph0" class="graph" transform="scale(1 1) rotate(0) translate(4 534)">
<title>dependency&#45;cruiser output</title>
<polygon fill="#ffffff" stroke="transparent" points="-4,4 -4,-534 742.5,-534 742.5,4 -4,4"/>
<g id="clust1" class="cluster">
<title>cluster_node_modules</title>
<path fill="#ffffff" stroke="#000000" stroke-width="2" d="M617.5,-8C617.5,-8 718.5,-8 718.5,-8 724.5,-8 730.5,-14 730.5,-20 730.5,-20 730.5,-390 730.5,-390 730.5,-396 724.5,-402 718.5,-402 718.5,-402 617.5,-402 617.5,-402 611.5,-402 605.5,-396 605.5,-390 605.5,-390 605.5,-20 605.5,-20 605.5,-14 611.5,-8 617.5,-8"/>
<text text-anchor="middle" x="668" y="-390.8" font-family="Helvetica,sans-Serif" font-weight="bold" font-size="9.00" fill="#000000">node_modules</text>
</g>
<g id="clust2" class="cluster">
<title>cluster_node_modules/body&#45;parser</title>
<path fill="#ffffff" stroke="#000000" stroke-width="2" d="M645,-76C645,-76 691,-76 691,-76 697,-76 703,-82 703,-88 703,-88 703,-116 703,-116 703,-122 697,-128 691,-128 691,-128 645,-128 645,-128 639,-128 633,-122 633,-116 633,-116 633,-88 633,-88 633,-82 639,-76 645,-76"/>
<text text-anchor="middle" x="668" y="-116.8" font-family="Helvetica,sans-Serif" font-weight="bold" font-size="9.00" fill="#000000">body&#45;parser</text>
</g>
<g id="clust3" class="cluster">
<title>cluster_node_modules/cuid</title>
<path fill="#ffffff" stroke="#000000" stroke-width="2" d="M645,-324C645,-324 691,-324 691,-324 697,-324 703,-330 703,-336 703,-336 703,-364 703,-364 703,-370 697,-376 691,-376 691,-376 645,-376 645,-376 639,-376 633,-370 633,-364 633,-364 633,-336 633,-336 633,-330 639,-324 645,-324"/>
<text text-anchor="middle" x="668" y="-364.8" font-family="Helvetica,sans-Serif" font-weight="bold" font-size="9.00" fill="#000000">cuid</text>
</g>
<g id="clust4" class="cluster">
<title>cluster_node_modules/express</title>
<path fill="#ffffff" stroke="#000000" stroke-width="2" d="M645,-16C645,-16 691,-16 691,-16 697,-16 703,-22 703,-28 703,-28 703,-56 703,-56 703,-62 697,-68 691,-68 691,-68 645,-68 645,-68 639,-68 633,-62 633,-56 633,-56 633,-28 633,-28 633,-22 639,-16 645,-16"/>
<text text-anchor="middle" x="668" y="-56.8" font-family="Helvetica,sans-Serif" font-weight="bold" font-size="9.00" fill="#000000">express</text>
</g>
<g id="clust5" class="cluster">
<title>cluster_node_modules/pg</title>
<path fill="#ffffff" stroke="#000000" stroke-width="2" d="M637,-230C637,-230 699,-230 699,-230 705,-230 711,-236 711,-242 711,-242 711,-304 711,-304 711,-310 705,-316 699,-316 699,-316 637,-316 637,-316 631,-316 625,-310 625,-304 625,-304 625,-242 625,-242 625,-236 631,-230 637,-230"/>
<text text-anchor="middle" x="668" y="-304.8" font-family="Helvetica,sans-Serif" font-weight="bold" font-size="9.00" fill="#000000">pg</text>
</g>
<g id="clust6" class="cluster">
<title>cluster_node_modules/pg/lib</title>
<path fill="#ffffff" stroke="#000000" stroke-width="2" d="M645,-238C645,-238 691,-238 691,-238 697,-238 703,-244 703,-250 703,-250 703,-278 703,-278 703,-284 697,-290 691,-290 691,-290 645,-290 645,-290 639,-290 633,-284 633,-278 633,-278 633,-250 633,-250 633,-244 639,-238 645,-238"/>
<text text-anchor="middle" x="668" y="-278.8" font-family="Helvetica,sans-Serif" font-weight="bold" font-size="9.00" fill="#000000">lib</text>
</g>
<g id="clust7" class="cluster">
<title>cluster_node_modules/sanitize&#45;html</title>
<path fill="#ffffff" stroke="#000000" stroke-width="2" d="M625.5,-136C625.5,-136 710.5,-136 710.5,-136 716.5,-136 722.5,-142 722.5,-148 722.5,-148 722.5,-210 722.5,-210 722.5,-216 716.5,-222 710.5,-222 710.5,-222 625.5,-222 625.5,-222 619.5,-222 613.5,-216 613.5,-210 613.5,-210 613.5,-148 613.5,-148 613.5,-142 619.5,-136 625.5,-136"/>
<text text-anchor="middle" x="668" y="-210.8" font-family="Helvetica,sans-Serif" font-weight="bold" font-size="9.00" fill="#000000">sanitize&#45;html</text>
</g>
<g id="clust8" class="cluster">
<title>cluster_node_modules/sanitize&#45;html/dist</title>
<path fill="#ffffff" stroke="#000000" stroke-width="2" d="M633.5,-144C633.5,-144 702.5,-144 702.5,-144 708.5,-144 714.5,-150 714.5,-156 714.5,-156 714.5,-184 714.5,-184 714.5,-190 708.5,-196 702.5,-196 702.5,-196 633.5,-196 633.5,-196 627.5,-196 621.5,-190 621.5,-184 621.5,-184 621.5,-156 621.5,-156 621.5,-150 627.5,-144 633.5,-144"/>
<text text-anchor="middle" x="668" y="-184.8" font-family="Helvetica,sans-Serif" font-weight="bold" font-size="9.00" fill="#000000">dist</text>
</g>
<g id="clust9" class="cluster">
<title>cluster_src</title>
<path fill="#ffffff" stroke="#000000" stroke-width="2" d="M20,-68C20,-68 585.5,-68 585.5,-68 591.5,-68 597.5,-74 597.5,-80 597.5,-80 597.5,-510 597.5,-510 597.5,-516 591.5,-522 585.5,-522 585.5,-522 20,-522 20,-522 14,-522 8,-516 8,-510 8,-510 8,-80 8,-80 8,-74 14,-68 20,-68"/>
<text text-anchor="middle" x="302.75" y="-510.8" font-family="Helvetica,sans-Serif" font-weight="bold" font-size="9.00" fill="#000000">src</text>
</g>
<g id="clust10" class="cluster">
<title>cluster_src/Id</title>
<path fill="#ffffff" stroke="#000000" stroke-width="2" d="M513.5,-324C513.5,-324 559.5,-324 559.5,-324 565.5,-324 571.5,-330 571.5,-336 571.5,-336 571.5,-364 571.5,-364 571.5,-370 565.5,-376 559.5,-376 559.5,-376 513.5,-376 513.5,-376 507.5,-376 501.5,-370 501.5,-364 501.5,-364 501.5,-336 501.5,-336 501.5,-330 507.5,-324 513.5,-324"/>
<text text-anchor="middle" x="536.5" y="-364.8" font-family="Helvetica,sans-Serif" font-weight="bold" font-size="9.00" fill="#000000">Id</text>
</g>
<g id="clust11" class="cluster">
<title>cluster_src/controllers</title>
<path fill="#ffffff" stroke="#000000" stroke-width="2" d="M110,-76C110,-76 401.5,-76 401.5,-76 407.5,-76 413.5,-82 413.5,-88 413.5,-88 413.5,-210 413.5,-210 413.5,-216 407.5,-222 401.5,-222 401.5,-222 110,-222 110,-222 104,-222 98,-216 98,-210 98,-210 98,-88 98,-88 98,-82 104,-76 110,-76"/>
<text text-anchor="middle" x="255.75" y="-210.8" font-family="Helvetica,sans-Serif" font-weight="bold" font-size="9.00" fill="#000000">controllers</text>
</g>
<g id="clust12" class="cluster">
<title>cluster_src/controllers/aux</title>
<path fill="#ffffff" stroke="#000000" stroke-width="2" d="M306.5,-84C306.5,-84 393.5,-84 393.5,-84 399.5,-84 405.5,-90 405.5,-96 405.5,-96 405.5,-184 405.5,-184 405.5,-190 399.5,-196 393.5,-196 393.5,-196 306.5,-196 306.5,-196 300.5,-196 294.5,-190 294.5,-184 294.5,-184 294.5,-96 294.5,-96 294.5,-90 300.5,-84 306.5,-84"/>
<text text-anchor="middle" x="350" y="-184.8" font-family="Helvetica,sans-Serif" font-weight="bold" font-size="9.00" fill="#000000">aux</text>
</g>
<g id="clust13" class="cluster">
<title>cluster_src/db</title>
<path fill="#ffffff" stroke="#000000" stroke-width="2" d="M319,-384C319,-384 563,-384 563,-384 569,-384 575,-390 575,-396 575,-396 575,-484 575,-484 575,-490 569,-496 563,-496 563,-496 319,-496 319,-496 313,-496 307,-490 307,-484 307,-484 307,-396 307,-396 307,-390 313,-384 319,-384"/>
<text text-anchor="middle" x="441" y="-484.8" font-family="Helvetica,sans-Serif" font-weight="bold" font-size="9.00" fill="#000000">db</text>
</g>
<g id="clust14" class="cluster">
<title>cluster_src/db/userdb</title>
<path fill="#ffffff" stroke="#000000" stroke-width="2" d="M327,-392C327,-392 479.5,-392 479.5,-392 485.5,-392 491.5,-398 491.5,-404 491.5,-404 491.5,-432 491.5,-432 491.5,-438 485.5,-444 479.5,-444 479.5,-444 327,-444 327,-444 321,-444 315,-438 315,-432 315,-432 315,-404 315,-404 315,-398 321,-392 327,-392"/>
<text text-anchor="middle" x="403.25" y="-432.8" font-family="Helvetica,sans-Serif" font-weight="bold" font-size="9.00" fill="#000000">userdb</text>
</g>
<g id="clust15" class="cluster">
<title>cluster_src/domain</title>
<path fill="#ffffff" stroke="#000000" stroke-width="2" d="M206,-230C206,-230 577.5,-230 577.5,-230 583.5,-230 589.5,-236 589.5,-242 589.5,-242 589.5,-304 589.5,-304 589.5,-310 583.5,-316 577.5,-316 577.5,-316 206,-316 206,-316 200,-316 194,-310 194,-304 194,-304 194,-242 194,-242 194,-236 200,-230 206,-230"/>
<text text-anchor="middle" x="391.75" y="-304.8" font-family="Helvetica,sans-Serif" font-weight="bold" font-size="9.00" fill="#000000">domain</text>
</g>
<g id="clust16" class="cluster">
<title>cluster_src/domain/user&#45;model</title>
<path fill="#ffffff" stroke="#000000" stroke-width="2" d="M433.5,-238C433.5,-238 569.5,-238 569.5,-238 575.5,-238 581.5,-244 581.5,-250 581.5,-250 581.5,-278 581.5,-278 581.5,-284 575.5,-290 569.5,-290 569.5,-290 433.5,-290 433.5,-290 427.5,-290 421.5,-284 421.5,-278 421.5,-278 421.5,-250 421.5,-250 421.5,-244 427.5,-238 433.5,-238"/>
<text text-anchor="middle" x="501.5" y="-278.8" font-family="Helvetica,sans-Serif" font-weight="bold" font-size="9.00" fill="#000000">user&#45;model</text>
</g>
<g id="clust17" class="cluster">
<title>cluster_src/domain/user&#45;service</title>
<path fill="#ffffff" stroke="#000000" stroke-width="2" d="M214,-238C214,-238 384,-238 384,-238 390,-238 396,-244 396,-250 396,-250 396,-278 396,-278 396,-284 390,-290 384,-290 384,-290 214,-290 214,-290 208,-290 202,-284 202,-278 202,-278 202,-250 202,-250 202,-244 208,-238 214,-238"/>
<text text-anchor="middle" x="299" y="-278.8" font-family="Helvetica,sans-Serif" font-weight="bold" font-size="9.00" fill="#000000">user&#45;service</text>
</g>
<g id="clust18" class="cluster">
<title>cluster_src/helpers</title>
<path fill="#ffffff" stroke="#000000" stroke-width="2" d="M90,-324C90,-324 274.5,-324 274.5,-324 280.5,-324 286.5,-330 286.5,-336 286.5,-336 286.5,-364 286.5,-364 286.5,-370 280.5,-376 274.5,-376 274.5,-376 90,-376 90,-376 84,-376 78,-370 78,-364 78,-364 78,-336 78,-336 78,-330 84,-324 90,-324"/>
<text text-anchor="middle" x="182.25" y="-364.8" font-family="Helvetica,sans-Serif" font-weight="bold" font-size="9.00" fill="#000000">helpers</text>
</g>
<!-- node_modules/body&#45;parser/index.js -->
<g id="node1" class="node">
<title>node_modules/body&#45;parser/index.js</title>
<g id="a_node1"><a xlink:href="node_modules/body-parser/index.js" xlink:title="index.js">
<polygon fill="#c40b0a" fill-opacity="0.101961" stroke="#000000" points="695,-102 693.5,-104 683,-104 681.5,-102 641,-102 641,-84 695,-84 695,-102"/>
<text text-anchor="middle" x="668" y="-90.8" font-family="Helvetica,sans-Serif" font-size="9.00" fill="#c40b0a">index.js</text>
</a>
</g>
</g>
<!-- node_modules/cuid/index.js -->
<g id="node2" class="node">
<title>node_modules/cuid/index.js</title>
<g id="a_node2"><a xlink:href="node_modules/cuid/index.js" xlink:title="index.js">
<polygon fill="#c40b0a" fill-opacity="0.101961" stroke="#000000" points="695,-350 693.5,-352 683,-352 681.5,-350 641,-350 641,-332 695,-332 695,-350"/>
<text text-anchor="middle" x="668" y="-338.8" font-family="Helvetica,sans-Serif" font-size="9.00" fill="#c40b0a">index.js</text>
</a>
</g>
</g>
<!-- node_modules/express/index.js -->
<g id="node3" class="node">
<title>node_modules/express/index.js</title>
<g id="a_node3"><a xlink:href="node_modules/express/index.js" xlink:title="index.js">
<polygon fill="#c40b0a" fill-opacity="0.101961" stroke="#000000" points="695,-42 693.5,-44 683,-44 681.5,-42 641,-42 641,-24 695,-24 695,-42"/>
<text text-anchor="middle" x="668" y="-30.8" font-family="Helvetica,sans-Serif" font-size="9.00" fill="#c40b0a">index.js</text>
</a>
</g>
</g>
<!-- node_modules/pg/lib/index.js -->
<g id="node4" class="node">
<title>node_modules/pg/lib/index.js</title>
<g id="a_node4"><a xlink:href="node_modules/pg/lib/index.js" xlink:title="index.js">
<polygon fill="#c40b0a" fill-opacity="0.101961" stroke="#000000" points="695,-264 693.5,-266 683,-266 681.5,-264 641,-264 641,-246 695,-246 695,-264"/>
<text text-anchor="middle" x="668" y="-252.8" font-family="Helvetica,sans-Serif" font-size="9.00" fill="#c40b0a">index.js</text>
</a>
</g>
</g>
<!-- node_modules/sanitize&#45;html/dist/sanitize&#45;html.js -->
<g id="node5" class="node">
<title>node_modules/sanitize&#45;html/dist/sanitize&#45;html.js</title>
<g id="a_node5"><a xlink:href="node_modules/sanitize-html/dist/sanitize-html.js" xlink:title="sanitize&#45;html.js">
<polygon fill="#c40b0a" fill-opacity="0.101961" stroke="#000000" points="706.5,-170 705,-172 694.5,-172 693,-170 629.5,-170 629.5,-152 706.5,-152 706.5,-170"/>
<text text-anchor="middle" x="668" y="-158.8" font-family="Helvetica,sans-Serif" font-size="9.00" fill="#c40b0a">sanitize&#45;html.js</text>
</a>
</g>
</g>
<!-- src/Id/index.js -->
<g id="node6" class="node">
<title>src/Id/index.js</title>
<g id="a_node6"><a xlink:href="src/Id/index.js" xlink:title="index.js">
<path fill="#ffffcc" stroke="#000000" d="M557.5,-350C557.5,-350 515.5,-350 515.5,-350 512.5,-350 509.5,-347 509.5,-344 509.5,-344 509.5,-338 509.5,-338 509.5,-335 512.5,-332 515.5,-332 515.5,-332 557.5,-332 557.5,-332 560.5,-332 563.5,-335 563.5,-338 563.5,-338 563.5,-344 563.5,-344 563.5,-347 560.5,-350 557.5,-350"/>
<text text-anchor="middle" x="536.5" y="-338.8" font-family="Helvetica,sans-Serif" font-size="9.00" fill="#000000">index.js</text>
</a>
</g>
</g>
<!-- src/Id/index.js&#45;&gt;node_modules/cuid/index.js -->
<g id="edge1" class="edge">
<title>src/Id/index.js&#45;&gt;node_modules/cuid/index.js</title>
<path fill="none" stroke="#000000" stroke-dasharray="5,2" stroke-opacity="0.200000" d="M563.7469,-341C584.376,-341 612.8129,-341 634.7766,-341"/>
<polygon fill="#000000" fill-opacity="0.200000" stroke="#000000" stroke-opacity="0.200000" points="634.7881,-343.1001 640.788,-341 634.788,-338.9001 634.7881,-343.1001"/>
</g>
<!-- src/controllers/aux/httpError.js -->
<g id="node7" class="node">
<title>src/controllers/aux/httpError.js</title>
<g id="a_node7"><a xlink:href="src/controllers/aux/httpError.js" xlink:title="httpError.js">
<path fill="#ffffcc" stroke="#000000" d="M374.5,-110C374.5,-110 325.5,-110 325.5,-110 322.5,-110 319.5,-107 319.5,-104 319.5,-104 319.5,-98 319.5,-98 319.5,-95 322.5,-92 325.5,-92 325.5,-92 374.5,-92 374.5,-92 377.5,-92 380.5,-95 380.5,-98 380.5,-98 380.5,-104 380.5,-104 380.5,-107 377.5,-110 374.5,-110"/>
<text text-anchor="middle" x="350" y="-98.8" font-family="Helvetica,sans-Serif" font-size="9.00" fill="#000000">httpError.js</text>
</a>
</g>
</g>
<!-- src/controllers/aux/isSouthOrNorth.js -->
<g id="node8" class="node">
<title>src/controllers/aux/isSouthOrNorth.js</title>
<g id="a_node8"><a xlink:href="src/controllers/aux/isSouthOrNorth.js" xlink:title="isSouthOrNorth.js">
<path fill="#ffffcc" stroke="#000000" d="M388.5,-170C388.5,-170 311.5,-170 311.5,-170 308.5,-170 305.5,-167 305.5,-164 305.5,-164 305.5,-158 305.5,-158 305.5,-155 308.5,-152 311.5,-152 311.5,-152 388.5,-152 388.5,-152 391.5,-152 394.5,-155 394.5,-158 394.5,-158 394.5,-164 394.5,-164 394.5,-167 391.5,-170 388.5,-170"/>
<text text-anchor="middle" x="350" y="-158.8" font-family="Helvetica,sans-Serif" font-size="9.00" fill="#000000">isSouthOrNorth.js</text>
</a>
</g>
</g>
<!-- src/controllers/aux/processSouthern.js -->
<g id="node9" class="node">
<title>src/controllers/aux/processSouthern.js</title>
<g id="a_node9"><a xlink:href="src/controllers/aux/processSouthern.js" xlink:title="processSouthern.js">
<path fill="#ffffcc" stroke="#000000" d="M391.5,-140C391.5,-140 308.5,-140 308.5,-140 305.5,-140 302.5,-137 302.5,-134 302.5,-134 302.5,-128 302.5,-128 302.5,-125 305.5,-122 308.5,-122 308.5,-122 391.5,-122 391.5,-122 394.5,-122 397.5,-125 397.5,-128 397.5,-128 397.5,-134 397.5,-134 397.5,-137 394.5,-140 391.5,-140"/>
<text text-anchor="middle" x="350" y="-128.8" font-family="Helvetica,sans-Serif" font-size="9.00" fill="#000000">processSouthern.js</text>
</a>
</g>
</g>
<!-- src/controllers/friend&#45;endpoint.js -->
<g id="node10" class="node">
<title>src/controllers/friend&#45;endpoint.js</title>
<g id="a_node10"><a xlink:href="src/controllers/friend-endpoint.js" xlink:title="friend&#45;endpoint.js">
<path fill="#ffffcc" stroke="#000000" d="M275,-110C275,-110 199,-110 199,-110 196,-110 193,-107 193,-104 193,-104 193,-98 193,-98 193,-95 196,-92 199,-92 199,-92 275,-92 275,-92 278,-92 281,-95 281,-98 281,-98 281,-104 281,-104 281,-107 278,-110 275,-110"/>
<text text-anchor="middle" x="237" y="-98.8" font-family="Helvetica,sans-Serif" font-size="9.00" fill="#000000">friend&#45;endpoint.js</text>
</a>
</g>
</g>
<!-- src/controllers/friend&#45;endpoint.js&#45;&gt;src/controllers/aux/httpError.js -->
<g id="edge2" class="edge">
<title>src/controllers/friend&#45;endpoint.js&#45;&gt;src/controllers/aux/httpError.js</title>
<path fill="none" stroke="#000000" stroke-width="2" stroke-opacity="0.200000" d="M281.0123,-101C291.584,-101 302.7696,-101 312.9865,-101"/>
<polygon fill="#000000" fill-opacity="0.200000" stroke="#000000" stroke-width="2" stroke-opacity="0.200000" points="313.2086,-103.1001 319.2086,-101 313.2085,-98.9001 313.2086,-103.1001"/>
</g>
<!-- src/controllers/index.js -->
<g id="node11" class="node">
<title>src/controllers/index.js</title>
<g id="a_node11"><a xlink:href="src/controllers/index.js" xlink:title="index.js">
<path fill="#ffffcc" stroke="#000000" d="M154,-125C154,-125 112,-125 112,-125 109,-125 106,-122 106,-119 106,-119 106,-113 106,-113 106,-110 109,-107 112,-107 112,-107 154,-107 154,-107 157,-107 160,-110 160,-113 160,-113 160,-119 160,-119 160,-122 157,-125 154,-125"/>
<text text-anchor="middle" x="133" y="-113.8" font-family="Helvetica,sans-Serif" font-size="9.00" fill="#000000">index.js</text>
</a>
</g>
</g>
<!-- src/controllers/index.js&#45;&gt;src/controllers/friend&#45;endpoint.js -->
<g id="edge4" class="edge">
<title>src/controllers/index.js&#45;&gt;src/controllers/friend&#45;endpoint.js</title>
<path fill="none" stroke="#000000" stroke-width="2" stroke-opacity="0.200000" d="M160.0533,-112.0981C168.2488,-110.916 177.5278,-109.5777 186.7342,-108.2499"/>
<polygon fill="#000000" fill-opacity="0.200000" stroke="#000000" stroke-width="2" stroke-opacity="0.200000" points="187.1228,-110.3157 192.7615,-107.3806 186.5231,-106.1587 187.1228,-110.3157"/>
</g>
<!-- src/domain/user&#45;service/index.js -->
<g id="node12" class="node">
<title>src/domain/user&#45;service/index.js</title>
<g id="a_node12"><a xlink:href="src/domain/user-service/index.js" xlink:title="index.js">
<path fill="#ffffcc" stroke="#000000" d="M258,-264C258,-264 216,-264 216,-264 213,-264 210,-261 210,-258 210,-258 210,-252 210,-252 210,-249 213,-246 216,-246 216,-246 258,-246 258,-246 261,-246 264,-249 264,-252 264,-252 264,-258 264,-258 264,-261 261,-264 258,-264"/>
<text text-anchor="middle" x="237" y="-252.8" font-family="Helvetica,sans-Serif" font-size="9.00" fill="#000000">index.js</text>
</a>
</g>
</g>
<!-- src/controllers/index.js&#45;&gt;src/domain/user&#45;service/index.js -->
<g id="edge3" class="edge">
<title>src/controllers/index.js&#45;&gt;src/domain/user&#45;service/index.js</title>
<path fill="none" stroke="#000000" stroke-width="2" stroke-opacity="0.200000" d="M136.2986,-125.0742C143.8681,-144.9707 164.0852,-193.1919 193,-225 199.046,-231.651 206.8456,-237.577 214.1949,-242.3694"/>
<polygon fill="#000000" fill-opacity="0.200000" stroke="#000000" stroke-width="2" stroke-opacity="0.200000" points="213.49,-244.4055 219.6906,-245.8065 215.7171,-240.8445 213.49,-244.4055"/>
</g>
<!-- src/controllers/user&#45;endpoint.js -->
<g id="node13" class="node">
<title>src/controllers/user&#45;endpoint.js</title>
<g id="a_node13"><a xlink:href="src/controllers/user-endpoint.js" xlink:title="user&#45;endpoint.js">
<path fill="#ffffcc" stroke="#000000" d="M272.5,-140C272.5,-140 201.5,-140 201.5,-140 198.5,-140 195.5,-137 195.5,-134 195.5,-134 195.5,-128 195.5,-128 195.5,-125 198.5,-122 201.5,-122 201.5,-122 272.5,-122 272.5,-122 275.5,-122 278.5,-125 278.5,-128 278.5,-128 278.5,-134 278.5,-134 278.5,-137 275.5,-140 272.5,-140"/>
<text text-anchor="middle" x="237" y="-128.8" font-family="Helvetica,sans-Serif" font-size="9.00" fill="#000000">user&#45;endpoint.js</text>
</a>
</g>
</g>
<!-- src/controllers/index.js&#45;&gt;src/controllers/user&#45;endpoint.js -->
<g id="edge5" class="edge">
<title>src/controllers/index.js&#45;&gt;src/controllers/user&#45;endpoint.js</title>
<path fill="none" stroke="#000000" stroke-width="2" stroke-opacity="0.200000" d="M160.0533,-119.9019C168.9249,-121.1815 179.0662,-122.6442 189.0107,-124.0785"/>
<polygon fill="#000000" fill-opacity="0.200000" stroke="#000000" stroke-width="2" stroke-opacity="0.200000" points="188.9256,-126.1878 195.164,-124.966 189.5252,-122.0309 188.9256,-126.1878"/>
</g>
<!-- src/db/userdb/index.js -->
<g id="node16" class="node">
<title>src/db/userdb/index.js</title>
<g id="a_node16"><a xlink:href="src/db/userdb/index.js" xlink:title="index.js">
<path fill="#ffffcc" stroke="#000000" d="M371,-418C371,-418 329,-418 329,-418 326,-418 323,-415 323,-412 323,-412 323,-406 323,-406 323,-403 326,-400 329,-400 329,-400 371,-400 371,-400 374,-400 377,-403 377,-406 377,-406 377,-412 377,-412 377,-415 374,-418 371,-418"/>
<text text-anchor="middle" x="350" y="-406.8" font-family="Helvetica,sans-Serif" font-size="9.00" fill="#000000">index.js</text>
</a>
</g>
</g>
<!-- src/domain/user&#45;service/index.js&#45;&gt;src/db/userdb/index.js -->
<g id="edge16" class="edge">
<title>src/domain/user&#45;service/index.js&#45;&gt;src/db/userdb/index.js</title>
<path fill="none" stroke="#000000" stroke-width="2" stroke-opacity="0.200000" d="M244.1042,-264.3588C253.7669,-277.1139 271.5615,-300.6948 286.5,-321 305.6229,-346.9928 327.5826,-377.5971 340.0227,-395.0063"/>
<polygon fill="#000000" fill-opacity="0.200000" stroke="#000000" stroke-width="2" stroke-opacity="0.200000" points="338.3684,-396.3032 343.5642,-399.9658 341.7864,-393.8625 338.3684,-396.3032"/>
</g>
<!-- src/domain/user&#45;service/user&#45;actions.js -->
<g id="node20" class="node">
<title>src/domain/user&#45;service/user&#45;actions.js</title>
<g id="a_node20"><a xlink:href="src/domain/user-service/user-actions.js" xlink:title="user&#45;actions.js">
<path fill="#ffffcc" stroke="#000000" d="M382,-264C382,-264 318,-264 318,-264 315,-264 312,-261 312,-258 312,-258 312,-252 312,-252 312,-249 315,-246 318,-246 318,-246 382,-246 382,-246 385,-246 388,-249 388,-252 388,-252 388,-258 388,-258 388,-261 385,-264 382,-264"/>
<text text-anchor="middle" x="350" y="-252.8" font-family="Helvetica,sans-Serif" font-size="9.00" fill="#000000">user&#45;actions.js</text>
</a>
</g>
</g>
<!-- src/domain/user&#45;service/index.js&#45;&gt;src/domain/user&#45;service/user&#45;actions.js -->
<g id="edge17" class="edge">
<title>src/domain/user&#45;service/index.js&#45;&gt;src/domain/user&#45;service/user&#45;actions.js</title>
<path fill="none" stroke="#000000" stroke-width="2" stroke-opacity="0.200000" d="M264.0663,-255C276.4098,-255 291.3536,-255 305.2946,-255"/>
<polygon fill="#000000" fill-opacity="0.200000" stroke="#000000" stroke-width="2" stroke-opacity="0.200000" points="305.6165,-257.1001 311.6165,-255 305.6165,-252.9001 305.6165,-257.1001"/>
</g>
<!-- src/controllers/user&#45;endpoint.js&#45;&gt;src/controllers/aux/httpError.js -->
<g id="edge6" class="edge">
<title>src/controllers/user&#45;endpoint.js&#45;&gt;src/controllers/aux/httpError.js</title>
<path fill="none" stroke="#000000" stroke-width="2" stroke-opacity="0.200000" d="M270.9037,-121.999C284.2083,-118.4668 299.5144,-114.4033 313.0961,-110.7975"/>
<polygon fill="#000000" fill-opacity="0.200000" stroke="#000000" stroke-width="2" stroke-opacity="0.200000" points="313.9413,-112.7459 319.2016,-109.1766 312.8636,-108.6865 313.9413,-112.7459"/>
</g>
<!-- src/controllers/user&#45;endpoint.js&#45;&gt;src/controllers/aux/isSouthOrNorth.js -->
<g id="edge7" class="edge">
<title>src/controllers/user&#45;endpoint.js&#45;&gt;src/controllers/aux/isSouthOrNorth.js</title>
<path fill="none" stroke="#000000" stroke-width="2" stroke-opacity="0.200000" d="M270.9037,-140.001C283.0828,-143.2344 296.9391,-146.913 309.6145,-150.2782"/>
<polygon fill="#000000" fill-opacity="0.200000" stroke="#000000" stroke-width="2" stroke-opacity="0.200000" points="309.3917,-152.3917 315.7296,-151.9017 310.4694,-148.3323 309.3917,-152.3917"/>
</g>
<!-- src/controllers/user&#45;endpoint.js&#45;&gt;src/controllers/aux/processSouthern.js -->
<g id="edge8" class="edge">
<title>src/controllers/user&#45;endpoint.js&#45;&gt;src/controllers/aux/processSouthern.js</title>
<path fill="none" stroke="#000000" stroke-width="2" stroke-opacity="0.200000" d="M278.756,-131C284.3887,-131 290.2317,-131 296.0389,-131"/>
<polygon fill="#000000" fill-opacity="0.200000" stroke="#000000" stroke-width="2" stroke-opacity="0.200000" points="296.3146,-133.1001 302.3145,-131 296.3145,-128.9001 296.3146,-133.1001"/>
</g>
<!-- src/db/config.json -->
<g id="node14" class="node">
<title>src/db/config.json</title>
<g id="a_node14"><a xlink:href="src/db/config.json" xlink:title="config.json">
<path fill="#ffee44" stroke="#000000" d="M561,-470C561,-470 512,-470 512,-470 509,-470 506,-467 506,-464 506,-464 506,-458 506,-458 506,-455 509,-452 512,-452 512,-452 561,-452 561,-452 564,-452 567,-455 567,-458 567,-458 567,-464 567,-464 567,-467 564,-470 561,-470"/>
<text text-anchor="middle" x="536.5" y="-458.8" font-family="Helvetica,sans-Serif" font-size="9.00" fill="#000000">config.json</text>
</a>
</g>
</g>
<!-- src/db/index.js -->
<g id="node15" class="node">
<title>src/db/index.js</title>
<g id="a_node15"><a xlink:href="src/db/index.js" xlink:title="index.js">
<path fill="#ffffcc" stroke="#000000" d="M477.5,-470C477.5,-470 435.5,-470 435.5,-470 432.5,-470 429.5,-467 429.5,-464 429.5,-464 429.5,-458 429.5,-458 429.5,-455 432.5,-452 435.5,-452 435.5,-452 477.5,-452 477.5,-452 480.5,-452 483.5,-455 483.5,-458 483.5,-458 483.5,-464 483.5,-464 483.5,-467 480.5,-470 477.5,-470"/>
<text text-anchor="middle" x="456.5" y="-458.8" font-family="Helvetica,sans-Serif" font-size="9.00" fill="#000000">index.js</text>
</a>
</g>
</g>
<!-- src/db/index.js&#45;&gt;node_modules/pg/lib/index.js -->
<g id="edge10" class="edge">
<title>src/db/index.js&#45;&gt;node_modules/pg/lib/index.js</title>
<path fill="none" stroke="#000000" stroke-dasharray="5,2" stroke-opacity="0.200000" d="M483.6819,-454.0013C486.7295,-452.1814 489.4639,-449.8885 491.5,-447 505.0811,-427.7332 482.5205,-251.3509 499.5,-235 539.1799,-196.7892 610.7964,-225.0721 646.5214,-243.0954"/>
<polygon fill="#000000" fill-opacity="0.200000" stroke="#000000" stroke-opacity="0.200000" points="645.6413,-245.0043 651.9365,-245.8882 647.5665,-241.2715 645.6413,-245.0043"/>
</g>
<!-- src/db/index.js&#45;&gt;src/db/config.json -->
<g id="edge9" class="edge">
<title>src/db/index.js&#45;&gt;src/db/config.json</title>
<path fill="none" stroke="#000000" stroke-width="2" stroke-opacity="0.200000" d="M483.5844,-461C488.7321,-461 494.1995,-461 499.5915,-461"/>
<polygon fill="#000000" fill-opacity="0.200000" stroke="#000000" stroke-width="2" stroke-opacity="0.200000" points="499.863,-463.1001 505.863,-461 499.863,-458.9001 499.863,-463.1001"/>
</g>
<!-- src/db/userdb/index.js&#45;&gt;src/db/index.js -->
<g id="edge11" class="edge">
<title>src/db/userdb/index.js&#45;&gt;src/db/index.js</title>
<path fill="none" stroke="#000000" stroke-width="2" stroke-opacity="0.200000" d="M365.935,-418.1074C380.2618,-426.141 401.9907,-437.946 421.5,-447 423.2809,-447.8265 425.1251,-448.6515 426.9932,-449.4641"/>
<polygon fill="#000000" fill-opacity="0.200000" stroke="#000000" stroke-width="2" stroke-opacity="0.200000" points="426.2864,-451.4453 432.6302,-451.8535 427.9255,-447.5784 426.2864,-451.4453"/>
</g>
<!-- src/db/userdb/userdb.js -->
<g id="node17" class="node">
<title>src/db/userdb/userdb.js</title>
<g id="a_node17"><a xlink:href="src/db/userdb/userdb.js" xlink:title="userdb.js">
<path fill="#ffffcc" stroke="#000000" d="M477.5,-418C477.5,-418 435.5,-418 435.5,-418 432.5,-418 429.5,-415 429.5,-412 429.5,-412 429.5,-406 429.5,-406 429.5,-403 432.5,-400 435.5,-400 435.5,-400 477.5,-400 477.5,-400 480.5,-400 483.5,-403 483.5,-406 483.5,-406 483.5,-412 483.5,-412 483.5,-415 480.5,-418 477.5,-418"/>
<text text-anchor="middle" x="456.5" y="-406.8" font-family="Helvetica,sans-Serif" font-size="9.00" fill="#000000">userdb.js</text>
</a>
</g>
</g>
<!-- src/db/userdb/index.js&#45;&gt;src/db/userdb/userdb.js -->
<g id="edge12" class="edge">
<title>src/db/userdb/index.js&#45;&gt;src/db/userdb/userdb.js</title>
<path fill="none" stroke="#000000" stroke-width="2" stroke-opacity="0.200000" d="M377.15,-409C391.1703,-409 408.3975,-409 423.2138,-409"/>
<polygon fill="#000000" fill-opacity="0.200000" stroke="#000000" stroke-width="2" stroke-opacity="0.200000" points="423.3996,-411.1001 429.3996,-409 423.3995,-406.9001 423.3996,-411.1001"/>
</g>
<!-- src/domain/user&#45;model/index.js -->
<g id="node18" class="node">
<title>src/domain/user&#45;model/index.js</title>
<g id="a_node18"><a xlink:href="src/domain/user-model/index.js" xlink:title="index.js">
<path fill="#ffffcc" stroke="#000000" d="M477.5,-264C477.5,-264 435.5,-264 435.5,-264 432.5,-264 429.5,-261 429.5,-258 429.5,-258 429.5,-252 429.5,-252 429.5,-249 432.5,-246 435.5,-246 435.5,-246 477.5,-246 477.5,-246 480.5,-246 483.5,-249 483.5,-252 483.5,-252 483.5,-258 483.5,-258 483.5,-261 480.5,-264 477.5,-264"/>
<text text-anchor="middle" x="456.5" y="-252.8" font-family="Helvetica,sans-Serif" font-size="9.00" fill="#000000">index.js</text>
</a>
</g>
</g>
<!-- src/domain/user&#45;model/index.js&#45;&gt;node_modules/sanitize&#45;html/dist/sanitize&#45;html.js -->
<g id="edge15" class="edge">
<title>src/domain/user&#45;model/index.js&#45;&gt;node_modules/sanitize&#45;html/dist/sanitize&#45;html.js</title>
<path fill="none" stroke="#000000" stroke-dasharray="5,2" stroke-opacity="0.200000" d="M461.9548,-245.7506C469.126,-234.4132 482.7943,-215.4266 499.5,-205 537.3238,-181.3929 587.4848,-170.3829 623.218,-165.2905"/>
<polygon fill="#000000" fill-opacity="0.200000" stroke="#000000" stroke-opacity="0.200000" points="623.6086,-167.3567 629.2696,-164.4648 623.0408,-163.1953 623.6086,-167.3567"/>
</g>
<!-- src/domain/user&#45;model/index.js&#45;&gt;src/Id/index.js -->
<g id="edge13" class="edge">
<title>src/domain/user&#45;model/index.js&#45;&gt;src/Id/index.js</title>
<path fill="none" stroke="#000000" stroke-width="2" stroke-opacity="0.200000" d="M465.0614,-264.2035C479.1359,-279.3336 507.239,-309.5444 523.6903,-327.2296"/>
<polygon fill="#000000" fill-opacity="0.200000" stroke="#000000" stroke-width="2" stroke-opacity="0.200000" points="522.3759,-328.8999 528.0002,-331.8627 525.4511,-326.0392 522.3759,-328.8999"/>
</g>
<!-- src/domain/user&#45;model/userFactory.js -->
<g id="node19" class="node">
<title>src/domain/user&#45;model/userFactory.js</title>
<g id="a_node19"><a xlink:href="src/domain/user-model/userFactory.js" xlink:title="userFactory.js">
<path fill="#ffffcc" stroke="#000000" d="M567.5,-264C567.5,-264 505.5,-264 505.5,-264 502.5,-264 499.5,-261 499.5,-258 499.5,-258 499.5,-252 499.5,-252 499.5,-249 502.5,-246 505.5,-246 505.5,-246 567.5,-246 567.5,-246 570.5,-246 573.5,-249 573.5,-252 573.5,-252 573.5,-258 573.5,-258 573.5,-261 570.5,-264 567.5,-264"/>
<text text-anchor="middle" x="536.5" y="-252.8" font-family="Helvetica,sans-Serif" font-size="9.00" fill="#000000">userFactory.js</text>
</a>
</g>
</g>
<!-- src/domain/user&#45;model/index.js&#45;&gt;src/domain/user&#45;model/userFactory.js -->
<g id="edge14" class="edge">
<title>src/domain/user&#45;model/index.js&#45;&gt;src/domain/user&#45;model/userFactory.js</title>
<path fill="none" stroke="#000000" stroke-width="2" stroke-opacity="0.200000" d="M483.5844,-255C486.5988,-255 489.7228,-255 492.8771,-255"/>
<polygon fill="#000000" fill-opacity="0.200000" stroke="#000000" stroke-width="2" stroke-opacity="0.200000" points="493.3689,-257.1001 499.3689,-255 493.3689,-252.9001 493.3689,-257.1001"/>
</g>
<!-- src/domain/user&#45;service/user&#45;actions.js&#45;&gt;src/domain/user&#45;model/index.js -->
<g id="edge18" class="edge">
<title>src/domain/user&#45;service/user&#45;actions.js&#45;&gt;src/domain/user&#45;model/index.js</title>
<path fill="none" stroke="#000000" stroke-width="2" stroke-opacity="0.200000" d="M388.1481,-255C399.6302,-255 412.1334,-255 423.2695,-255"/>
<polygon fill="#000000" fill-opacity="0.200000" stroke="#000000" stroke-width="2" stroke-opacity="0.200000" points="423.3004,-257.1001 429.3004,-255 423.3004,-252.9001 423.3004,-257.1001"/>
</g>
<!-- src/helpers/adaptRequest.js -->
<g id="node21" class="node">
<title>src/helpers/adaptRequest.js</title>
<g id="a_node21"><a xlink:href="src/helpers/adaptRequest.js" xlink:title="adaptRequest.js">
<path fill="#ffffcc" stroke="#000000" d="M272.5,-350C272.5,-350 201.5,-350 201.5,-350 198.5,-350 195.5,-347 195.5,-344 195.5,-344 195.5,-338 195.5,-338 195.5,-335 198.5,-332 201.5,-332 201.5,-332 272.5,-332 272.5,-332 275.5,-332 278.5,-335 278.5,-338 278.5,-338 278.5,-344 278.5,-344 278.5,-347 275.5,-350 272.5,-350"/>
<text text-anchor="middle" x="237" y="-338.8" font-family="Helvetica,sans-Serif" font-size="9.00" fill="#000000">adaptRequest.js</text>
</a>
</g>
</g>
<!-- src/helpers/expressCallback.js -->
<g id="node22" class="node">
<title>src/helpers/expressCallback.js</title>
<g id="a_node22"><a xlink:href="src/helpers/expressCallback.js" xlink:title="expressCallback.js">
<path fill="#ffffcc" stroke="#000000" d="M174,-350C174,-350 92,-350 92,-350 89,-350 86,-347 86,-344 86,-344 86,-338 86,-338 86,-335 89,-332 92,-332 92,-332 174,-332 174,-332 177,-332 180,-335 180,-338 180,-338 180,-344 180,-344 180,-347 177,-350 174,-350"/>
<text text-anchor="middle" x="133" y="-338.8" font-family="Helvetica,sans-Serif" font-size="9.00" fill="#000000">expressCallback.js</text>
</a>
</g>
</g>
<!-- src/helpers/expressCallback.js&#45;&gt;src/helpers/adaptRequest.js -->
<g id="edge19" class="edge">
<title>src/helpers/expressCallback.js&#45;&gt;src/helpers/adaptRequest.js</title>
<path fill="none" stroke="#000000" stroke-width="2" stroke-opacity="0.200000" d="M180.1313,-341C183.131,-341 186.1524,-341 189.1552,-341"/>
<polygon fill="#000000" fill-opacity="0.200000" stroke="#000000" stroke-width="2" stroke-opacity="0.200000" points="189.2798,-343.1001 195.2798,-341 189.2797,-338.9001 189.2798,-343.1001"/>
</g>
<!-- src/index.js -->
<g id="node23" class="node">
<title>src/index.js</title>
<g id="a_node23"><a xlink:href="src/index.js" xlink:title="index.js">
<path fill="#ffffcc" stroke="#000000" d="M64,-102C64,-102 22,-102 22,-102 19,-102 16,-99 16,-96 16,-96 16,-90 16,-90 16,-87 19,-84 22,-84 22,-84 64,-84 64,-84 67,-84 70,-87 70,-90 70,-90 70,-96 70,-96 70,-99 67,-102 64,-102"/>
<text text-anchor="middle" x="43" y="-90.8" font-family="Helvetica,sans-Serif" font-size="9.00" fill="#000000">index.js</text>
</a>
</g>
</g>
<!-- src/index.js&#45;&gt;node_modules/body&#45;parser/index.js -->
<g id="edge22" class="edge">
<title>src/index.js&#45;&gt;node_modules/body&#45;parser/index.js</title>
<path fill="none" stroke="#000000" stroke-dasharray="5,2" stroke-opacity="0.200000" d="M55.6631,-83.939C62.0508,-79.8569 70.1039,-75.4187 78,-73 145.76,-52.2443 166.1324,-61 237,-61 237,-61 237,-61 456.5,-61 520.2126,-61 593.5185,-75.3719 634.9448,-84.8526"/>
<polygon fill="#000000" fill-opacity="0.200000" stroke="#000000" stroke-opacity="0.200000" points="634.5015,-86.9055 640.8207,-86.2136 635.4493,-82.8138 634.5015,-86.9055"/>
</g>
<!-- src/index.js&#45;&gt;node_modules/express/index.js -->
<g id="edge23" class="edge">
<title>src/index.js&#45;&gt;node_modules/express/index.js</title>
<path fill="none" stroke="#000000" stroke-dasharray="5,2" stroke-opacity="0.200000" d="M48.9992,-83.6956C55.1572,-74.989 65.578,-62.3935 78,-56 141.4313,-23.3526 165.6601,-34 237,-34 237,-34 237,-34 456.5,-34 519.5418,-34 593.1524,-33.5502 634.8014,-33.254"/>
<polygon fill="#000000" fill-opacity="0.200000" stroke="#000000" stroke-opacity="0.200000" points="634.9724,-35.3529 640.9571,-33.2096 634.9421,-31.153 634.9724,-35.3529"/>
</g>
<!-- src/index.js&#45;&gt;src/controllers/index.js -->
<g id="edge20" class="edge">
<title>src/index.js&#45;&gt;src/controllers/index.js</title>
<path fill="none" stroke="#000000" stroke-width="2" stroke-opacity="0.200000" d="M70.003,-99.9008C79.3504,-102.2896 89.9383,-104.9953 99.7296,-107.4976"/>
<polygon fill="#000000" fill-opacity="0.200000" stroke="#000000" stroke-width="2" stroke-opacity="0.200000" points="99.3719,-109.5736 105.705,-109.0246 100.4118,-105.5043 99.3719,-109.5736"/>
</g>
<!-- src/index.js&#45;&gt;src/helpers/expressCallback.js -->
<g id="edge21" class="edge">
<title>src/index.js&#45;&gt;src/helpers/expressCallback.js</title>
<path fill="none" stroke="#000000" stroke-width="2" stroke-opacity="0.200000" d="M44.8171,-102.1391C49.262,-123.8417 61.5347,-180.0281 78,-225 91.7982,-262.6874 113.3975,-304.7496 124.9964,-326.3856"/>
<polygon fill="#000000" fill-opacity="0.200000" stroke="#000000" stroke-width="2" stroke-opacity="0.200000" points="123.2893,-327.644 127.9879,-331.9257 126.9849,-325.6484 123.2893,-327.644"/>
</g>
</g>
</svg>
