<?xml version="1.0" encoding="UTF-8" standalone="no"?>
<!DOCTYPE svg PUBLIC "-//W3C//DTD SVG 1.1//EN"
 "http://www.w3.org/Graphics/SVG/1.1/DTD/svg11.dtd">
<!-- Generated by graphviz version 2.40.1 (20161225.0304)
 -->
<!-- Title: dependency&#45;cruiser output Pages: 1 -->
<svg width="503pt" height="598pt"
 viewBox="0.00 0.00 503.00 598.00" xmlns="http://www.w3.org/2000/svg" xmlns:xlink="http://www.w3.org/1999/xlink">
<g id="graph0" class="graph" transform="scale(1 1) rotate(0) translate(4 594)">
<title>dependency&#45;cruiser output</title>
<polygon fill="#ffffff" stroke="transparent" points="-4,4 -4,-594 499,-594 499,4 -4,4"/>
<g id="clust1" class="cluster">
<title>cluster_src</title>
<path fill="#ffffff" stroke="#000000" stroke-width="2" d="M20,-8C20,-8 475,-8 475,-8 481,-8 487,-14 487,-20 487,-20 487,-570 487,-570 487,-576 481,-582 475,-582 475,-582 20,-582 20,-582 14,-582 8,-576 8,-570 8,-570 8,-20 8,-20 8,-14 14,-8 20,-8"/>
<text text-anchor="middle" x="247.5" y="-570.8" font-family="Helvetica,sans-Serif" font-weight="bold" font-size="9.00" fill="#000000">src</text>
</g>
<g id="clust2" class="cluster">
<title>cluster_src/controllers</title>
<path fill="#ffffff" stroke="#000000" stroke-width="2" d="M98,-106C98,-106 245,-106 245,-106 251,-106 257,-112 257,-118 257,-118 257,-176 257,-176 257,-182 251,-188 245,-188 245,-188 98,-188 98,-188 92,-188 86,-182 86,-176 86,-176 86,-118 86,-118 86,-112 92,-106 98,-106"/>
<text text-anchor="middle" x="171.5" y="-176.8" font-family="Helvetica,sans-Serif" font-weight="bold" font-size="9.00" fill="#000000">controllers</text>
</g>
<g id="clust3" class="cluster">
<title>cluster_src/db</title>
<path fill="#ffffff" stroke="#000000" stroke-width="2" d="M90,-444C90,-444 342.5,-444 342.5,-444 348.5,-444 354.5,-450 354.5,-456 354.5,-456 354.5,-544 354.5,-544 354.5,-550 348.5,-556 342.5,-556 342.5,-556 90,-556 90,-556 84,-556 78,-550 78,-544 78,-544 78,-456 78,-456 78,-450 84,-444 90,-444"/>
<text text-anchor="middle" x="216.25" y="-544.8" font-family="Helvetica,sans-Serif" font-weight="bold" font-size="9.00" fill="#000000">db</text>
</g>
<g id="clust4" class="cluster">
<title>cluster_src/db/userdb</title>
<path fill="#ffffff" stroke="#000000" stroke-width="2" d="M98,-452C98,-452 228,-452 228,-452 234,-452 240,-458 240,-464 240,-464 240,-492 240,-492 240,-498 234,-504 228,-504 228,-504 98,-504 98,-504 92,-504 86,-498 86,-492 86,-492 86,-464 86,-464 86,-458 92,-452 98,-452"/>
<text text-anchor="middle" x="163" y="-492.8" font-family="Helvetica,sans-Serif" font-weight="bold" font-size="9.00" fill="#000000">userdb</text>
</g>
<g id="clust5" class="cluster">
<title>cluster_src/domain</title>
<path fill="#ffffff" stroke="#000000" stroke-width="2" d="M277,-256C277,-256 467,-256 467,-256 473,-256 479,-262 479,-268 479,-268 479,-424 479,-424 479,-430 473,-436 467,-436 467,-436 277,-436 277,-436 271,-436 265,-430 265,-424 265,-424 265,-268 265,-268 265,-262 271,-256 277,-256"/>
<text text-anchor="middle" x="372" y="-424.8" font-family="Helvetica,sans-Serif" font-weight="bold" font-size="9.00" fill="#000000">domain</text>
</g>
<g id="clust6" class="cluster">
<title>cluster_src/domain/models</title>
<path fill="#ffffff" stroke="#000000" stroke-width="2" d="M285,-264C285,-264 459,-264 459,-264 465,-264 471,-270 471,-276 471,-276 471,-338 471,-338 471,-344 465,-350 459,-350 459,-350 285,-350 285,-350 279,-350 273,-344 273,-338 273,-338 273,-276 273,-276 273,-270 279,-264 285,-264"/>
<text text-anchor="middle" x="372" y="-338.8" font-family="Helvetica,sans-Serif" font-weight="bold" font-size="9.00" fill="#000000">models</text>
</g>
<g id="clust7" class="cluster">
<title>cluster_src/domain/models/user</title>
<path fill="#ffffff" stroke="#000000" stroke-width="2" d="M293,-272C293,-272 451,-272 451,-272 457,-272 463,-278 463,-284 463,-284 463,-312 463,-312 463,-318 457,-324 451,-324 451,-324 293,-324 293,-324 287,-324 281,-318 281,-312 281,-312 281,-284 281,-284 281,-278 287,-272 293,-272"/>
<text text-anchor="middle" x="372" y="-312.8" font-family="Helvetica,sans-Serif" font-weight="bold" font-size="9.00" fill="#000000">user</text>
</g>
<g id="clust8" class="cluster">
<title>cluster_src/domain/user&#45;service</title>
<path fill="#ffffff" stroke="#000000" stroke-width="2" d="M293,-358C293,-358 452,-358 452,-358 458,-358 464,-364 464,-370 464,-370 464,-398 464,-398 464,-404 458,-410 452,-410 452,-410 293,-410 293,-410 287,-410 281,-404 281,-398 281,-398 281,-370 281,-370 281,-364 287,-358 293,-358"/>
<text text-anchor="middle" x="372.5" y="-398.8" font-family="Helvetica,sans-Serif" font-weight="bold" font-size="9.00" fill="#000000">user&#45;service</text>
</g>
<g id="clust9" class="cluster">
<title>cluster_src/helpers</title>
<path fill="#ffffff" stroke="#000000" stroke-width="2" d="M374.5,-16C374.5,-16 461.5,-16 461.5,-16 467.5,-16 473.5,-22 473.5,-28 473.5,-28 473.5,-236 473.5,-236 473.5,-242 467.5,-248 461.5,-248 461.5,-248 374.5,-248 374.5,-248 368.5,-248 362.5,-242 362.5,-236 362.5,-236 362.5,-28 362.5,-28 362.5,-22 368.5,-16 374.5,-16"/>
<text text-anchor="middle" x="418" y="-236.8" font-family="Helvetica,sans-Serif" font-weight="bold" font-size="9.00" fill="#000000">helpers</text>
</g>
<g id="clust10" class="cluster">
<title>cluster_src/helpers/Id</title>
<path fill="#ffffff" stroke="#000000" stroke-width="2" d="M395,-170C395,-170 441,-170 441,-170 447,-170 453,-176 453,-182 453,-182 453,-210 453,-210 453,-216 447,-222 441,-222 441,-222 395,-222 395,-222 389,-222 383,-216 383,-210 383,-210 383,-182 383,-182 383,-176 389,-170 395,-170"/>
<text text-anchor="middle" x="418" y="-210.8" font-family="Helvetica,sans-Serif" font-weight="bold" font-size="9.00" fill="#000000">Id</text>
</g>
<!-- src/controllers/friend&#45;endpoint.js -->
<g id="node1" class="node">
<title>src/controllers/friend&#45;endpoint.js</title>
<g id="a_node1"><a xlink:href="src/controllers/friend-endpoint.js" xlink:title="friend&#45;endpoint.js">
<path fill="#ffffcc" stroke="#000000" d="M243,-162C243,-162 167,-162 167,-162 164,-162 161,-159 161,-156 161,-156 161,-150 161,-150 161,-147 164,-144 167,-144 167,-144 243,-144 243,-144 246,-144 249,-147 249,-150 249,-150 249,-156 249,-156 249,-159 246,-162 243,-162"/>
<text text-anchor="middle" x="205" y="-150.8" font-family="Helvetica,sans-Serif" font-size="9.00" fill="#000000">friend&#45;endpoint.js</text>
</a>
</g>
</g>
<!-- src/domain/models/user/index.js -->
<g id="node2" class="node">
<title>src/domain/models/user/index.js</title>
<g id="a_node2"><a xlink:href="src/domain/models/user/index.js" xlink:title="index.js">
<path fill="#ffffcc" stroke="#000000" d="M337,-298C337,-298 295,-298 295,-298 292,-298 289,-295 289,-292 289,-292 289,-286 289,-286 289,-283 292,-280 295,-280 295,-280 337,-280 337,-280 340,-280 343,-283 343,-286 343,-286 343,-292 343,-292 343,-295 340,-298 337,-298"/>
<text text-anchor="middle" x="316" y="-286.8" font-family="Helvetica,sans-Serif" font-size="9.00" fill="#000000">index.js</text>
</a>
</g>
</g>
<!-- src/controllers/friend&#45;endpoint.js&#45;&gt;src/domain/models/user/index.js -->
<g id="edge1" class="edge">
<title>src/controllers/friend&#45;endpoint.js&#45;&gt;src/domain/models/user/index.js</title>
<path fill="none" stroke="#000000" stroke-width="2" stroke-opacity="0.200000" d="M212.6295,-162.3478C231.8115,-185.8501 282.1272,-247.4982 304.7261,-275.1869"/>
<polygon fill="#000000" fill-opacity="0.200000" stroke="#000000" stroke-width="2" stroke-opacity="0.200000" points="303.1887,-276.6244 308.6095,-279.9449 306.4425,-273.9687 303.1887,-276.6244"/>
</g>
<!-- src/helpers/httpError.js -->
<g id="node3" class="node">
<title>src/helpers/httpError.js</title>
<g id="a_node3"><a xlink:href="src/helpers/httpError.js" xlink:title="httpError.js">
<path fill="#ffffcc" stroke="#000000" d="M442.5,-132C442.5,-132 393.5,-132 393.5,-132 390.5,-132 387.5,-129 387.5,-126 387.5,-126 387.5,-120 387.5,-120 387.5,-117 390.5,-114 393.5,-114 393.5,-114 442.5,-114 442.5,-114 445.5,-114 448.5,-117 448.5,-120 448.5,-120 448.5,-126 448.5,-126 448.5,-129 445.5,-132 442.5,-132"/>
<text text-anchor="middle" x="418" y="-120.8" font-family="Helvetica,sans-Serif" font-size="9.00" fill="#000000">httpError.js</text>
</a>
</g>
</g>
<!-- src/controllers/friend&#45;endpoint.js&#45;&gt;src/helpers/httpError.js -->
<g id="edge2" class="edge">
<title>src/controllers/friend&#45;endpoint.js&#45;&gt;src/helpers/httpError.js</title>
<path fill="none" stroke="#000000" stroke-width="2" stroke-opacity="0.200000" d="M249.1337,-146.784C288.183,-141.2841 344.504,-133.3516 381.1783,-128.1862"/>
<polygon fill="#000000" fill-opacity="0.200000" stroke="#000000" stroke-width="2" stroke-opacity="0.200000" points="381.6904,-130.2348 387.3388,-127.3185 381.1045,-126.0759 381.6904,-130.2348"/>
</g>
<!-- src/helpers/unpack.js -->
<g id="node4" class="node">
<title>src/helpers/unpack.js</title>
<g id="a_node4"><a xlink:href="src/helpers/unpack.js" xlink:title="unpack.js">
<path fill="#ffffcc" stroke="#000000" d="M440,-162C440,-162 396,-162 396,-162 393,-162 390,-159 390,-156 390,-156 390,-150 390,-150 390,-147 393,-144 396,-144 396,-144 440,-144 440,-144 443,-144 446,-147 446,-150 446,-150 446,-156 446,-156 446,-159 443,-162 440,-162"/>
<text text-anchor="middle" x="418" y="-150.8" font-family="Helvetica,sans-Serif" font-size="9.00" fill="#000000">unpack.js</text>
</a>
</g>
</g>
<!-- src/controllers/friend&#45;endpoint.js&#45;&gt;src/helpers/unpack.js -->
<g id="edge3" class="edge">
<title>src/controllers/friend&#45;endpoint.js&#45;&gt;src/helpers/unpack.js</title>
<path fill="none" stroke="#000000" stroke-width="2" stroke-opacity="0.200000" d="M249.1337,-153C289.1046,-153 347.1718,-153 383.7414,-153"/>
<polygon fill="#000000" fill-opacity="0.200000" stroke="#000000" stroke-width="2" stroke-opacity="0.200000" points="383.8647,-155.1001 389.8646,-153 383.8646,-150.9001 383.8647,-155.1001"/>
</g>
<!-- src/helpers/Id/index.js -->
<g id="node14" class="node">
<title>src/helpers/Id/index.js</title>
<g id="a_node14"><a xlink:href="src/helpers/Id/index.js" xlink:title="index.js">
<path fill="#ffffcc" stroke="#000000" d="M439,-196C439,-196 397,-196 397,-196 394,-196 391,-193 391,-190 391,-190 391,-184 391,-184 391,-181 394,-178 397,-178 397,-178 439,-178 439,-178 442,-178 445,-181 445,-184 445,-184 445,-190 445,-190 445,-193 442,-196 439,-196"/>
<text text-anchor="middle" x="418" y="-184.8" font-family="Helvetica,sans-Serif" font-size="9.00" fill="#000000">index.js</text>
</a>
</g>
</g>
<!-- src/domain/models/user/index.js&#45;&gt;src/helpers/Id/index.js -->
<g id="edge16" class="edge">
<title>src/domain/models/user/index.js&#45;&gt;src/helpers/Id/index.js</title>
<path fill="none" stroke="#000000" stroke-width="2" stroke-opacity="0.200000" d="M325.0518,-279.9482C343.0018,-261.9982 383.1957,-221.8043 404.3634,-200.6366"/>
<polygon fill="#000000" fill-opacity="0.200000" stroke="#000000" stroke-width="2" stroke-opacity="0.200000" points="406.0641,-201.9058 408.8218,-196.1782 403.0942,-198.9359 406.0641,-201.9058"/>
</g>
<!-- src/domain/models/user/userFactory.js -->
<g id="node15" class="node">
<title>src/domain/models/user/userFactory.js</title>
<g id="a_node15"><a xlink:href="src/domain/models/user/userFactory.js" xlink:title="userFactory.js">
<path fill="#ffffcc" stroke="#000000" d="M449,-298C449,-298 387,-298 387,-298 384,-298 381,-295 381,-292 381,-292 381,-286 381,-286 381,-283 384,-280 387,-280 387,-280 449,-280 449,-280 452,-280 455,-283 455,-286 455,-286 455,-292 455,-292 455,-295 452,-298 449,-298"/>
<text text-anchor="middle" x="418" y="-286.8" font-family="Helvetica,sans-Serif" font-size="9.00" fill="#000000">userFactory.js</text>
</a>
</g>
</g>
<!-- src/domain/models/user/index.js&#45;&gt;src/domain/models/user/userFactory.js -->
<g id="edge17" class="edge">
<title>src/domain/models/user/index.js&#45;&gt;src/domain/models/user/userFactory.js</title>
<path fill="none" stroke="#000000" stroke-width="2" stroke-opacity="0.200000" d="M343.0663,-289C352.7363,-289 363.8909,-289 374.5897,-289"/>
<polygon fill="#000000" fill-opacity="0.200000" stroke="#000000" stroke-width="2" stroke-opacity="0.200000" points="374.8217,-291.1001 380.8217,-289 374.8217,-286.9001 374.8217,-291.1001"/>
</g>
<!-- src/controllers/index.js -->
<g id="node5" class="node">
<title>src/controllers/index.js</title>
<g id="a_node5"><a xlink:href="src/controllers/index.js" xlink:title="index.js">
<path fill="#ffffcc" stroke="#000000" d="M142,-147C142,-147 100,-147 100,-147 97,-147 94,-144 94,-141 94,-141 94,-135 94,-135 94,-132 97,-129 100,-129 100,-129 142,-129 142,-129 145,-129 148,-132 148,-135 148,-135 148,-141 148,-141 148,-144 145,-147 142,-147"/>
<text text-anchor="middle" x="121" y="-135.8" font-family="Helvetica,sans-Serif" font-size="9.00" fill="#000000">index.js</text>
</a>
</g>
</g>
<!-- src/controllers/index.js&#45;&gt;src/controllers/friend&#45;endpoint.js -->
<g id="edge5" class="edge">
<title>src/controllers/index.js&#45;&gt;src/controllers/friend&#45;endpoint.js</title>
<path fill="none" stroke="#000000" stroke-width="2" stroke-opacity="0.200000" d="M148.0405,-142.8287C150.2317,-143.2199 152.4854,-143.6224 154.773,-144.0309"/>
<polygon fill="#000000" fill-opacity="0.200000" stroke="#000000" stroke-width="2" stroke-opacity="0.200000" points="154.6121,-146.1353 160.8878,-145.1228 155.3505,-142.0007 154.6121,-146.1353"/>
</g>
<!-- src/domain/user&#45;service/index.js -->
<g id="node6" class="node">
<title>src/domain/user&#45;service/index.js</title>
<g id="a_node6"><a xlink:href="src/domain/user-service/index.js" xlink:title="index.js">
<path fill="#ffffcc" stroke="#000000" d="M337,-384C337,-384 295,-384 295,-384 292,-384 289,-381 289,-378 289,-378 289,-372 289,-372 289,-369 292,-366 295,-366 295,-366 337,-366 337,-366 340,-366 343,-369 343,-372 343,-372 343,-378 343,-378 343,-381 340,-384 337,-384"/>
<text text-anchor="middle" x="316" y="-372.8" font-family="Helvetica,sans-Serif" font-size="9.00" fill="#000000">index.js</text>
</a>
</g>
</g>
<!-- src/controllers/index.js&#45;&gt;src/domain/user&#45;service/index.js -->
<g id="edge4" class="edge">
<title>src/controllers/index.js&#45;&gt;src/domain/user&#45;service/index.js</title>
<path fill="none" stroke="#000000" stroke-width="2" stroke-opacity="0.200000" d="M127.1115,-147.0727C146.1231,-175.0522 206.4604,-262.0304 265,-327 276.293,-339.5334 290.3261,-352.581 300.8117,-361.9038"/>
<polygon fill="#000000" fill-opacity="0.200000" stroke="#000000" stroke-width="2" stroke-opacity="0.200000" points="299.4673,-363.5181 305.3572,-365.9098 302.2443,-360.3672 299.4673,-363.5181"/>
</g>
<!-- src/controllers/user&#45;endpoint.js -->
<g id="node7" class="node">
<title>src/controllers/user&#45;endpoint.js</title>
<g id="a_node7"><a xlink:href="src/controllers/user-endpoint.js" xlink:title="user&#45;endpoint.js">
<path fill="#ffffcc" stroke="#000000" d="M240.5,-132C240.5,-132 169.5,-132 169.5,-132 166.5,-132 163.5,-129 163.5,-126 163.5,-126 163.5,-120 163.5,-120 163.5,-117 166.5,-114 169.5,-114 169.5,-114 240.5,-114 240.5,-114 243.5,-114 246.5,-117 246.5,-120 246.5,-120 246.5,-126 246.5,-126 246.5,-129 243.5,-132 240.5,-132"/>
<text text-anchor="middle" x="205" y="-120.8" font-family="Helvetica,sans-Serif" font-size="9.00" fill="#000000">user&#45;endpoint.js</text>
</a>
</g>
</g>
<!-- src/controllers/index.js&#45;&gt;src/controllers/user&#45;endpoint.js -->
<g id="edge6" class="edge">
<title>src/controllers/index.js&#45;&gt;src/controllers/user&#45;endpoint.js</title>
<path fill="none" stroke="#000000" stroke-width="2" stroke-opacity="0.200000" d="M148.0405,-133.1713C150.9451,-132.6527 153.9595,-132.1144 157.0172,-131.5684"/>
<polygon fill="#000000" fill-opacity="0.200000" stroke="#000000" stroke-width="2" stroke-opacity="0.200000" points="157.7952,-133.5627 163.3326,-130.4406 157.0569,-129.4281 157.7952,-133.5627"/>
</g>
<!-- src/db/userdb/index.js -->
<g id="node12" class="node">
<title>src/db/userdb/index.js</title>
<g id="a_node12"><a xlink:href="src/db/userdb/index.js" xlink:title="index.js">
<path fill="#ffffcc" stroke="#000000" d="M142,-478C142,-478 100,-478 100,-478 97,-478 94,-475 94,-472 94,-472 94,-466 94,-466 94,-463 97,-460 100,-460 100,-460 142,-460 142,-460 145,-460 148,-463 148,-466 148,-466 148,-472 148,-472 148,-475 145,-478 142,-478"/>
<text text-anchor="middle" x="121" y="-466.8" font-family="Helvetica,sans-Serif" font-size="9.00" fill="#000000">index.js</text>
</a>
</g>
</g>
<!-- src/domain/user&#45;service/index.js&#45;&gt;src/db/userdb/index.js -->
<g id="edge18" class="edge">
<title>src/domain/user&#45;service/index.js&#45;&gt;src/db/userdb/index.js</title>
<path fill="none" stroke="#000000" stroke-width="2" stroke-opacity="0.200000" d="M297.0727,-384.1239C261.4596,-401.2913 184.5403,-438.3703 145.217,-457.3262"/>
<polygon fill="#000000" fill-opacity="0.200000" stroke="#000000" stroke-width="2" stroke-opacity="0.200000" points="144.1903,-455.4898 139.6974,-459.9869 146.0141,-459.2731 144.1903,-455.4898"/>
</g>
<!-- src/domain/user&#45;service/user&#45;actions.js -->
<g id="node16" class="node">
<title>src/domain/user&#45;service/user&#45;actions.js</title>
<g id="a_node16"><a xlink:href="src/domain/user-service/user-actions.js" xlink:title="user&#45;actions.js">
<path fill="#ffffcc" stroke="#000000" d="M450,-384C450,-384 386,-384 386,-384 383,-384 380,-381 380,-378 380,-378 380,-372 380,-372 380,-369 383,-366 386,-366 386,-366 450,-366 450,-366 453,-366 456,-369 456,-372 456,-372 456,-378 456,-378 456,-381 453,-384 450,-384"/>
<text text-anchor="middle" x="418" y="-372.8" font-family="Helvetica,sans-Serif" font-size="9.00" fill="#000000">user&#45;actions.js</text>
</a>
</g>
</g>
<!-- src/domain/user&#45;service/index.js&#45;&gt;src/domain/user&#45;service/user&#45;actions.js -->
<g id="edge19" class="edge">
<title>src/domain/user&#45;service/index.js&#45;&gt;src/domain/user&#45;service/user&#45;actions.js</title>
<path fill="none" stroke="#000000" stroke-width="2" stroke-opacity="0.200000" d="M343.0663,-375C352.4403,-375 363.2094,-375 373.606,-375"/>
<polygon fill="#000000" fill-opacity="0.200000" stroke="#000000" stroke-width="2" stroke-opacity="0.200000" points="373.6709,-377.1001 379.6709,-375 373.6709,-372.9001 373.6709,-377.1001"/>
</g>
<!-- src/controllers/user&#45;endpoint.js&#45;&gt;src/domain/models/user/index.js -->
<g id="edge7" class="edge">
<title>src/controllers/user&#45;endpoint.js&#45;&gt;src/domain/models/user/index.js</title>
<path fill="none" stroke="#000000" stroke-width="2" stroke-opacity="0.200000" d="M246.6361,-131.0905C250.4054,-132.942 253.9458,-135.2137 257,-138 297.5942,-175.0344 310.5864,-243.4047 314.467,-273.7756"/>
<polygon fill="#000000" fill-opacity="0.200000" stroke="#000000" stroke-width="2" stroke-opacity="0.200000" points="312.4109,-274.2716 315.1991,-279.9844 316.582,-273.7797 312.4109,-274.2716"/>
</g>
<!-- src/controllers/user&#45;endpoint.js&#45;&gt;src/helpers/httpError.js -->
<g id="edge8" class="edge">
<title>src/controllers/user&#45;endpoint.js&#45;&gt;src/helpers/httpError.js</title>
<path fill="none" stroke="#000000" stroke-width="2" stroke-opacity="0.200000" d="M246.5742,-123C285.6007,-123 343.4366,-123 380.9277,-123"/>
<polygon fill="#000000" fill-opacity="0.200000" stroke="#000000" stroke-width="2" stroke-opacity="0.200000" points="381.2226,-125.1001 387.2226,-123 381.2226,-120.9001 381.2226,-125.1001"/>
</g>
<!-- src/controllers/user&#45;endpoint.js&#45;&gt;src/helpers/unpack.js -->
<g id="edge11" class="edge">
<title>src/controllers/user&#45;endpoint.js&#45;&gt;src/helpers/unpack.js</title>
<path fill="none" stroke="#000000" stroke-width="2" stroke-opacity="0.200000" d="M246.5742,-128.8555C286.5163,-134.4812 346.1606,-142.8818 383.5323,-148.1454"/>
<polygon fill="#000000" fill-opacity="0.200000" stroke="#000000" stroke-width="2" stroke-opacity="0.200000" points="383.5523,-150.2689 389.7865,-149.0263 384.1381,-146.1099 383.5523,-150.2689"/>
</g>
<!-- src/helpers/isSouthOrNorth.js -->
<g id="node8" class="node">
<title>src/helpers/isSouthOrNorth.js</title>
<g id="a_node8"><a xlink:href="src/helpers/isSouthOrNorth.js" xlink:title="isSouthOrNorth.js">
<path fill="#ffffcc" stroke="#000000" d="M456.5,-72C456.5,-72 379.5,-72 379.5,-72 376.5,-72 373.5,-69 373.5,-66 373.5,-66 373.5,-60 373.5,-60 373.5,-57 376.5,-54 379.5,-54 379.5,-54 456.5,-54 456.5,-54 459.5,-54 462.5,-57 462.5,-60 462.5,-60 462.5,-66 462.5,-66 462.5,-69 459.5,-72 456.5,-72"/>
<text text-anchor="middle" x="418" y="-60.8" font-family="Helvetica,sans-Serif" font-size="9.00" fill="#000000">isSouthOrNorth.js</text>
</a>
</g>
</g>
<!-- src/controllers/user&#45;endpoint.js&#45;&gt;src/helpers/isSouthOrNorth.js -->
<g id="edge9" class="edge">
<title>src/controllers/user&#45;endpoint.js&#45;&gt;src/helpers/isSouthOrNorth.js</title>
<path fill="none" stroke="#000000" stroke-width="2" stroke-opacity="0.200000" d="M246.7332,-115.4086C250.3536,-113.9175 253.8371,-112.1337 257,-110 262.0114,-106.6192 259.9653,-102.3459 265,-99 295.2552,-78.8935 335.4181,-69.9634 367.0027,-66.023"/>
<polygon fill="#000000" fill-opacity="0.200000" stroke="#000000" stroke-width="2" stroke-opacity="0.200000" points="367.4838,-68.0812 373.1998,-65.2996 366.9968,-63.9095 367.4838,-68.0812"/>
</g>
<!-- src/helpers/processSouthern.js -->
<g id="node9" class="node">
<title>src/helpers/processSouthern.js</title>
<g id="a_node9"><a xlink:href="src/helpers/processSouthern.js" xlink:title="processSouthern.js">
<path fill="#ffffcc" stroke="#000000" d="M459.5,-102C459.5,-102 376.5,-102 376.5,-102 373.5,-102 370.5,-99 370.5,-96 370.5,-96 370.5,-90 370.5,-90 370.5,-87 373.5,-84 376.5,-84 376.5,-84 459.5,-84 459.5,-84 462.5,-84 465.5,-87 465.5,-90 465.5,-90 465.5,-96 465.5,-96 465.5,-99 462.5,-102 459.5,-102"/>
<text text-anchor="middle" x="418" y="-90.8" font-family="Helvetica,sans-Serif" font-size="9.00" fill="#000000">processSouthern.js</text>
</a>
</g>
</g>
<!-- src/controllers/user&#45;endpoint.js&#45;&gt;src/helpers/processSouthern.js -->
<g id="edge10" class="edge">
<title>src/controllers/user&#45;endpoint.js&#45;&gt;src/helpers/processSouthern.js</title>
<path fill="none" stroke="#000000" stroke-width="2" stroke-opacity="0.200000" d="M246.5742,-117.1445C280.1072,-112.4215 327.527,-105.7427 363.9956,-100.6063"/>
<polygon fill="#000000" fill-opacity="0.200000" stroke="#000000" stroke-width="2" stroke-opacity="0.200000" points="364.5616,-102.6473 370.21,-99.731 363.9758,-98.4884 364.5616,-102.6473"/>
</g>
<!-- src/db/config.json -->
<g id="node10" class="node">
<title>src/db/config.json</title>
<g id="a_node10"><a xlink:href="src/db/config.json" xlink:title="config.json">
<path fill="#ffee44" stroke="#000000" d="M340.5,-530C340.5,-530 291.5,-530 291.5,-530 288.5,-530 285.5,-527 285.5,-524 285.5,-524 285.5,-518 285.5,-518 285.5,-515 288.5,-512 291.5,-512 291.5,-512 340.5,-512 340.5,-512 343.5,-512 346.5,-515 346.5,-518 346.5,-518 346.5,-524 346.5,-524 346.5,-527 343.5,-530 340.5,-530"/>
<text text-anchor="middle" x="316" y="-518.8" font-family="Helvetica,sans-Serif" font-size="9.00" fill="#000000">config.json</text>
</a>
</g>
</g>
<!-- src/db/index.js -->
<g id="node11" class="node">
<title>src/db/index.js</title>
<g id="a_node11"><a xlink:href="src/db/index.js" xlink:title="index.js">
<path fill="#ffffcc" stroke="#000000" d="M226,-530C226,-530 184,-530 184,-530 181,-530 178,-527 178,-524 178,-524 178,-518 178,-518 178,-515 181,-512 184,-512 184,-512 226,-512 226,-512 229,-512 232,-515 232,-518 232,-518 232,-524 232,-524 232,-527 229,-530 226,-530"/>
<text text-anchor="middle" x="205" y="-518.8" font-family="Helvetica,sans-Serif" font-size="9.00" fill="#000000">index.js</text>
</a>
</g>
</g>
<!-- src/db/index.js&#45;&gt;src/db/config.json -->
<g id="edge12" class="edge">
<title>src/db/index.js&#45;&gt;src/db/config.json</title>
<path fill="none" stroke="#000000" stroke-width="2" stroke-opacity="0.200000" d="M232.1537,-521C246.1936,-521 263.5417,-521 278.8084,-521"/>
<polygon fill="#000000" fill-opacity="0.200000" stroke="#000000" stroke-width="2" stroke-opacity="0.200000" points="279.2082,-523.1001 285.2082,-521 279.2081,-518.9001 279.2082,-523.1001"/>
</g>
<!-- src/db/userdb/index.js&#45;&gt;src/db/index.js -->
<g id="edge13" class="edge">
<title>src/db/userdb/index.js&#45;&gt;src/db/index.js</title>
<path fill="none" stroke="#000000" stroke-width="2" stroke-opacity="0.200000" d="M128.37,-478.0566C135.7888,-486.6284 147.9722,-499.2982 161,-507 164.4309,-509.0283 168.1888,-510.7968 172.0172,-512.3299"/>
<polygon fill="#000000" fill-opacity="0.200000" stroke="#000000" stroke-width="2" stroke-opacity="0.200000" points="171.291,-514.3003 177.6469,-514.4105 172.747,-510.3607 171.291,-514.3003"/>
</g>
<!-- src/db/userdb/userdb.js -->
<g id="node13" class="node">
<title>src/db/userdb/userdb.js</title>
<g id="a_node13"><a xlink:href="src/db/userdb/userdb.js" xlink:title="userdb.js">
<path fill="#ffffcc" stroke="#000000" d="M226,-478C226,-478 184,-478 184,-478 181,-478 178,-475 178,-472 178,-472 178,-466 178,-466 178,-463 181,-460 184,-460 184,-460 226,-460 226,-460 229,-460 232,-463 232,-466 232,-466 232,-472 232,-472 232,-475 229,-478 226,-478"/>
<text text-anchor="middle" x="205" y="-466.8" font-family="Helvetica,sans-Serif" font-size="9.00" fill="#000000">userdb.js</text>
</a>
</g>
</g>
<!-- src/db/userdb/index.js&#45;&gt;src/db/userdb/userdb.js -->
<g id="edge14" class="edge">
<title>src/db/userdb/index.js&#45;&gt;src/db/userdb/userdb.js</title>
<path fill="none" stroke="#000000" stroke-width="2" stroke-opacity="0.200000" d="M148.0405,-469C155.4594,-469 163.5947,-469 171.3362,-469"/>
<polygon fill="#000000" fill-opacity="0.200000" stroke="#000000" stroke-width="2" stroke-opacity="0.200000" points="171.7222,-471.1001 177.7222,-469 171.7221,-466.9001 171.7222,-471.1001"/>
</g>
<!-- src/db/userdb/userdb.js&#45;&gt;src/domain/models/user/index.js -->
<g id="edge15" class="edge">
<title>src/db/userdb/userdb.js&#45;&gt;src/domain/models/user/index.js</title>
<path fill="none" stroke="#000000" stroke-width="2" stroke-opacity="0.200000" d="M209.1572,-459.8333C218.2594,-440.0763 241.059,-392.2542 265,-355 277.1638,-336.0722 293.3491,-315.8079 304.1936,-302.8019"/>
<polygon fill="#000000" fill-opacity="0.200000" stroke="#000000" stroke-width="2" stroke-opacity="0.200000" points="305.9547,-303.9704 308.208,-298.0263 302.7397,-301.2679 305.9547,-303.9704"/>
</g>
<!-- src/helpers/adaptRequest.js -->
<g id="node17" class="node">
<title>src/helpers/adaptRequest.js</title>
<g id="a_node17"><a xlink:href="src/helpers/adaptRequest.js" xlink:title="adaptRequest.js">
<path fill="#ffffcc" stroke="#000000" d="M453.5,-42C453.5,-42 382.5,-42 382.5,-42 379.5,-42 376.5,-39 376.5,-36 376.5,-36 376.5,-30 376.5,-30 376.5,-27 379.5,-24 382.5,-24 382.5,-24 453.5,-24 453.5,-24 456.5,-24 459.5,-27 459.5,-30 459.5,-30 459.5,-36 459.5,-36 459.5,-39 456.5,-42 453.5,-42"/>
<text text-anchor="middle" x="418" y="-30.8" font-family="Helvetica,sans-Serif" font-size="9.00" fill="#000000">adaptRequest.js</text>
</a>
</g>
</g>
<!-- src/index.js -->
<g id="node18" class="node">
<title>src/index.js</title>
<g id="a_node18"><a xlink:href="src/index.js" xlink:title="index.js">
<path fill="#ffffcc" stroke="#000000" d="M64,-90C64,-90 22,-90 22,-90 19,-90 16,-87 16,-84 16,-84 16,-78 16,-78 16,-75 19,-72 22,-72 22,-72 64,-72 64,-72 67,-72 70,-75 70,-78 70,-78 70,-84 70,-84 70,-87 67,-90 64,-90"/>
<text text-anchor="middle" x="43" y="-78.8" font-family="Helvetica,sans-Serif" font-size="9.00" fill="#000000">index.js</text>
</a>
</g>
</g>
<!-- src/index.js&#45;&gt;src/controllers/index.js -->
<g id="edge20" class="edge">
<title>src/index.js&#45;&gt;src/controllers/index.js</title>
<path fill="none" stroke="#000000" stroke-width="2" stroke-opacity="0.200000" d="M47.9646,-90.1174C53.8563,-100.1021 64.5924,-115.9018 78,-125 81.1339,-127.1267 84.6262,-128.9143 88.2282,-130.415"/>
<polygon fill="#000000" fill-opacity="0.200000" stroke="#000000" stroke-width="2" stroke-opacity="0.200000" points="87.5872,-132.4171 93.9428,-132.5445 89.0538,-128.4815 87.5872,-132.4171"/>
</g>
<!-- src/index.js&#45;&gt;src/helpers/adaptRequest.js -->
<g id="edge21" class="edge">
<title>src/index.js&#45;&gt;src/helpers/adaptRequest.js</title>
<path fill="none" stroke="#000000" stroke-width="2" stroke-opacity="0.200000" d="M70.2711,-77.5093C133.5126,-69.4144 290.8195,-49.2791 370.3522,-39.0989"/>
<polygon fill="#000000" fill-opacity="0.200000" stroke="#000000" stroke-width="2" stroke-opacity="0.200000" points="370.722,-41.1688 376.4067,-38.3239 370.1887,-37.0028 370.722,-41.1688"/>
</g>
</g>
</svg>
