<?xml version="1.0" encoding="UTF-8" standalone="no"?>
<!DOCTYPE svg PUBLIC "-//W3C//DTD SVG 1.1//EN"
 "http://www.w3.org/Graphics/SVG/1.1/DTD/svg11.dtd">
<!-- Generated by graphviz version 2.40.1 (20161225.0304)
 -->
<!-- Title: dependency&#45;cruiser output Pages: 1 -->
<svg width="714pt" height="682pt"
 viewBox="0.00 0.00 713.50 682.00" xmlns="http://www.w3.org/2000/svg" xmlns:xlink="http://www.w3.org/1999/xlink">
<g id="graph0" class="graph" transform="scale(1 1) rotate(0) translate(4 678)">
<title>dependency&#45;cruiser output</title>
<polygon fill="#ffffff" stroke="transparent" points="-4,4 -4,-678 709.5,-678 709.5,4 -4,4"/>
<g id="clust1" class="cluster">
<title>cluster_node_modules</title>
<path fill="#ffffff" stroke="#000000" stroke-width="2" d="M584.5,-8C584.5,-8 685.5,-8 685.5,-8 691.5,-8 697.5,-14 697.5,-20 697.5,-20 697.5,-390 697.5,-390 697.5,-396 691.5,-402 685.5,-402 685.5,-402 584.5,-402 584.5,-402 578.5,-402 572.5,-396 572.5,-390 572.5,-390 572.5,-20 572.5,-20 572.5,-14 578.5,-8 584.5,-8"/>
<text text-anchor="middle" x="635" y="-390.8" font-family="Helvetica,sans-Serif" font-weight="bold" font-size="9.00" fill="#000000">node_modules</text>
</g>
<g id="clust2" class="cluster">
<title>cluster_node_modules/body&#45;parser</title>
<path fill="#ffffff" stroke="#000000" stroke-width="2" d="M612,-76C612,-76 658,-76 658,-76 664,-76 670,-82 670,-88 670,-88 670,-116 670,-116 670,-122 664,-128 658,-128 658,-128 612,-128 612,-128 606,-128 600,-122 600,-116 600,-116 600,-88 600,-88 600,-82 606,-76 612,-76"/>
<text text-anchor="middle" x="635" y="-116.8" font-family="Helvetica,sans-Serif" font-weight="bold" font-size="9.00" fill="#000000">body&#45;parser</text>
</g>
<g id="clust3" class="cluster">
<title>cluster_node_modules/cuid</title>
<path fill="#ffffff" stroke="#000000" stroke-width="2" d="M612,-324C612,-324 658,-324 658,-324 664,-324 670,-330 670,-336 670,-336 670,-364 670,-364 670,-370 664,-376 658,-376 658,-376 612,-376 612,-376 606,-376 600,-370 600,-364 600,-364 600,-336 600,-336 600,-330 606,-324 612,-324"/>
<text text-anchor="middle" x="635" y="-364.8" font-family="Helvetica,sans-Serif" font-weight="bold" font-size="9.00" fill="#000000">cuid</text>
</g>
<g id="clust4" class="cluster">
<title>cluster_node_modules/express</title>
<path fill="#ffffff" stroke="#000000" stroke-width="2" d="M612,-16C612,-16 658,-16 658,-16 664,-16 670,-22 670,-28 670,-28 670,-56 670,-56 670,-62 664,-68 658,-68 658,-68 612,-68 612,-68 606,-68 600,-62 600,-56 600,-56 600,-28 600,-28 600,-22 606,-16 612,-16"/>
<text text-anchor="middle" x="635" y="-56.8" font-family="Helvetica,sans-Serif" font-weight="bold" font-size="9.00" fill="#000000">express</text>
</g>
<g id="clust5" class="cluster">
<title>cluster_node_modules/pg</title>
<path fill="#ffffff" stroke="#000000" stroke-width="2" d="M604,-230C604,-230 666,-230 666,-230 672,-230 678,-236 678,-242 678,-242 678,-304 678,-304 678,-310 672,-316 666,-316 666,-316 604,-316 604,-316 598,-316 592,-310 592,-304 592,-304 592,-242 592,-242 592,-236 598,-230 604,-230"/>
<text text-anchor="middle" x="635" y="-304.8" font-family="Helvetica,sans-Serif" font-weight="bold" font-size="9.00" fill="#000000">pg</text>
</g>
<g id="clust6" class="cluster">
<title>cluster_node_modules/pg/lib</title>
<path fill="#ffffff" stroke="#000000" stroke-width="2" d="M612,-238C612,-238 658,-238 658,-238 664,-238 670,-244 670,-250 670,-250 670,-278 670,-278 670,-284 664,-290 658,-290 658,-290 612,-290 612,-290 606,-290 600,-284 600,-278 600,-278 600,-250 600,-250 600,-244 606,-238 612,-238"/>
<text text-anchor="middle" x="635" y="-278.8" font-family="Helvetica,sans-Serif" font-weight="bold" font-size="9.00" fill="#000000">lib</text>
</g>
<g id="clust7" class="cluster">
<title>cluster_node_modules/sanitize&#45;html</title>
<path fill="#ffffff" stroke="#000000" stroke-width="2" d="M592.5,-136C592.5,-136 677.5,-136 677.5,-136 683.5,-136 689.5,-142 689.5,-148 689.5,-148 689.5,-210 689.5,-210 689.5,-216 683.5,-222 677.5,-222 677.5,-222 592.5,-222 592.5,-222 586.5,-222 580.5,-216 580.5,-210 580.5,-210 580.5,-148 580.5,-148 580.5,-142 586.5,-136 592.5,-136"/>
<text text-anchor="middle" x="635" y="-210.8" font-family="Helvetica,sans-Serif" font-weight="bold" font-size="9.00" fill="#000000">sanitize&#45;html</text>
</g>
<g id="clust8" class="cluster">
<title>cluster_node_modules/sanitize&#45;html/dist</title>
<path fill="#ffffff" stroke="#000000" stroke-width="2" d="M600.5,-144C600.5,-144 669.5,-144 669.5,-144 675.5,-144 681.5,-150 681.5,-156 681.5,-156 681.5,-184 681.5,-184 681.5,-190 675.5,-196 669.5,-196 669.5,-196 600.5,-196 600.5,-196 594.5,-196 588.5,-190 588.5,-184 588.5,-184 588.5,-156 588.5,-156 588.5,-150 594.5,-144 600.5,-144"/>
<text text-anchor="middle" x="635" y="-184.8" font-family="Helvetica,sans-Serif" font-weight="bold" font-size="9.00" fill="#000000">dist</text>
</g>
<g id="clust9" class="cluster">
<title>cluster_src</title>
<path fill="#ffffff" stroke="#000000" stroke-width="2" d="M20,-152C20,-152 552.5,-152 552.5,-152 558.5,-152 564.5,-158 564.5,-164 564.5,-164 564.5,-654 564.5,-654 564.5,-660 558.5,-666 552.5,-666 552.5,-666 20,-666 20,-666 14,-666 8,-660 8,-654 8,-654 8,-164 8,-164 8,-158 14,-152 20,-152"/>
<text text-anchor="middle" x="286.25" y="-654.8" font-family="Helvetica,sans-Serif" font-weight="bold" font-size="9.00" fill="#000000">src</text>
</g>
<g id="clust10" class="cluster">
<title>cluster_src/controllers</title>
<path fill="#ffffff" stroke="#000000" stroke-width="2" d="M90,-468C90,-468 237,-468 237,-468 243,-468 249,-474 249,-480 249,-480 249,-538 249,-538 249,-544 243,-550 237,-550 237,-550 90,-550 90,-550 84,-550 78,-544 78,-538 78,-538 78,-480 78,-480 78,-474 84,-468 90,-468"/>
<text text-anchor="middle" x="163.5" y="-538.8" font-family="Helvetica,sans-Serif" font-weight="bold" font-size="9.00" fill="#000000">controllers</text>
</g>
<g id="clust11" class="cluster">
<title>cluster_src/db</title>
<path fill="#ffffff" stroke="#000000" stroke-width="2" d="M269,-160C269,-160 522,-160 522,-160 528,-160 534,-166 534,-172 534,-172 534,-260 534,-260 534,-266 528,-272 522,-272 522,-272 269,-272 269,-272 263,-272 257,-266 257,-260 257,-260 257,-172 257,-172 257,-166 263,-160 269,-160"/>
<text text-anchor="middle" x="395.5" y="-260.8" font-family="Helvetica,sans-Serif" font-weight="bold" font-size="9.00" fill="#000000">db</text>
</g>
<g id="clust12" class="cluster">
<title>cluster_src/db/userdb</title>
<path fill="#ffffff" stroke="#000000" stroke-width="2" d="M277,-168C277,-168 420,-168 420,-168 426,-168 432,-174 432,-180 432,-180 432,-208 432,-208 432,-214 426,-220 420,-220 420,-220 277,-220 277,-220 271,-220 265,-214 265,-208 265,-208 265,-180 265,-180 265,-174 271,-168 277,-168"/>
<text text-anchor="middle" x="348.5" y="-208.8" font-family="Helvetica,sans-Serif" font-weight="bold" font-size="9.00" fill="#000000">userdb</text>
</g>
<g id="clust13" class="cluster">
<title>cluster_src/domain</title>
<path fill="#ffffff" stroke="#000000" stroke-width="2" d="M166,-280C166,-280 544.5,-280 544.5,-280 550.5,-280 556.5,-286 556.5,-292 556.5,-292 556.5,-388 556.5,-388 556.5,-394 550.5,-400 544.5,-400 544.5,-400 166,-400 166,-400 160,-400 154,-394 154,-388 154,-388 154,-292 154,-292 154,-286 160,-280 166,-280"/>
<text text-anchor="middle" x="355.25" y="-388.8" font-family="Helvetica,sans-Serif" font-weight="bold" font-size="9.00" fill="#000000">domain</text>
</g>
<g id="clust14" class="cluster">
<title>cluster_src/domain/models</title>
<path fill="#ffffff" stroke="#000000" stroke-width="2" d="M366,-288C366,-288 536.5,-288 536.5,-288 542.5,-288 548.5,-294 548.5,-300 548.5,-300 548.5,-362 548.5,-362 548.5,-368 542.5,-374 536.5,-374 536.5,-374 366,-374 366,-374 360,-374 354,-368 354,-362 354,-362 354,-300 354,-300 354,-294 360,-288 366,-288"/>
<text text-anchor="middle" x="451.25" y="-362.8" font-family="Helvetica,sans-Serif" font-weight="bold" font-size="9.00" fill="#000000">models</text>
</g>
<g id="clust15" class="cluster">
<title>cluster_src/domain/models/user</title>
<path fill="#ffffff" stroke="#000000" stroke-width="2" d="M374,-296C374,-296 528.5,-296 528.5,-296 534.5,-296 540.5,-302 540.5,-308 540.5,-308 540.5,-336 540.5,-336 540.5,-342 534.5,-348 528.5,-348 528.5,-348 374,-348 374,-348 368,-348 362,-342 362,-336 362,-336 362,-308 362,-308 362,-302 368,-296 374,-296"/>
<text text-anchor="middle" x="451.25" y="-336.8" font-family="Helvetica,sans-Serif" font-weight="bold" font-size="9.00" fill="#000000">user</text>
</g>
<g id="clust16" class="cluster">
<title>cluster_src/domain/user&#45;service</title>
<path fill="#ffffff" stroke="#000000" stroke-width="2" d="M174,-296C174,-296 334,-296 334,-296 340,-296 346,-302 346,-308 346,-308 346,-336 346,-336 346,-342 340,-348 334,-348 334,-348 174,-348 174,-348 168,-348 162,-342 162,-336 162,-336 162,-308 162,-308 162,-302 168,-296 174,-296"/>
<text text-anchor="middle" x="254" y="-336.8" font-family="Helvetica,sans-Serif" font-weight="bold" font-size="9.00" fill="#000000">user&#45;service</text>
</g>
<g id="clust17" class="cluster">
<title>cluster_src/helpers</title>
<path fill="#ffffff" stroke="#000000" stroke-width="2" d="M452,-408C452,-408 539,-408 539,-408 545,-408 551,-414 551,-420 551,-420 551,-628 551,-628 551,-634 545,-640 539,-640 539,-640 452,-640 452,-640 446,-640 440,-634 440,-628 440,-628 440,-420 440,-420 440,-414 446,-408 452,-408"/>
<text text-anchor="middle" x="495.5" y="-628.8" font-family="Helvetica,sans-Serif" font-weight="bold" font-size="9.00" fill="#000000">helpers</text>
</g>
<g id="clust18" class="cluster">
<title>cluster_src/helpers/Id</title>
<path fill="#ffffff" stroke="#000000" stroke-width="2" d="M472.5,-416C472.5,-416 518.5,-416 518.5,-416 524.5,-416 530.5,-422 530.5,-428 530.5,-428 530.5,-456 530.5,-456 530.5,-462 524.5,-468 518.5,-468 518.5,-468 472.5,-468 472.5,-468 466.5,-468 460.5,-462 460.5,-456 460.5,-456 460.5,-428 460.5,-428 460.5,-422 466.5,-416 472.5,-416"/>
<text text-anchor="middle" x="495.5" y="-456.8" font-family="Helvetica,sans-Serif" font-weight="bold" font-size="9.00" fill="#000000">Id</text>
</g>
<!-- node_modules/body&#45;parser/index.js -->
<g id="node1" class="node">
<title>node_modules/body&#45;parser/index.js</title>
<g id="a_node1"><a xlink:href="node_modules/body-parser/index.js" xlink:title="index.js">
<polygon fill="#c40b0a" fill-opacity="0.101961" stroke="#000000" points="662,-102 660.5,-104 650,-104 648.5,-102 608,-102 608,-84 662,-84 662,-102"/>
<text text-anchor="middle" x="635" y="-90.8" font-family="Helvetica,sans-Serif" font-size="9.00" fill="#c40b0a">index.js</text>
</a>
</g>
</g>
<!-- node_modules/cuid/index.js -->
<g id="node2" class="node">
<title>node_modules/cuid/index.js</title>
<g id="a_node2"><a xlink:href="node_modules/cuid/index.js" xlink:title="index.js">
<polygon fill="#c40b0a" fill-opacity="0.101961" stroke="#000000" points="662,-350 660.5,-352 650,-352 648.5,-350 608,-350 608,-332 662,-332 662,-350"/>
<text text-anchor="middle" x="635" y="-338.8" font-family="Helvetica,sans-Serif" font-size="9.00" fill="#c40b0a">index.js</text>
</a>
</g>
</g>
<!-- node_modules/express/index.js -->
<g id="node3" class="node">
<title>node_modules/express/index.js</title>
<g id="a_node3"><a xlink:href="node_modules/express/index.js" xlink:title="index.js">
<polygon fill="#c40b0a" fill-opacity="0.101961" stroke="#000000" points="662,-42 660.5,-44 650,-44 648.5,-42 608,-42 608,-24 662,-24 662,-42"/>
<text text-anchor="middle" x="635" y="-30.8" font-family="Helvetica,sans-Serif" font-size="9.00" fill="#c40b0a">index.js</text>
</a>
</g>
</g>
<!-- node_modules/pg/lib/index.js -->
<g id="node4" class="node">
<title>node_modules/pg/lib/index.js</title>
<g id="a_node4"><a xlink:href="node_modules/pg/lib/index.js" xlink:title="index.js">
<polygon fill="#c40b0a" fill-opacity="0.101961" stroke="#000000" points="662,-264 660.5,-266 650,-266 648.5,-264 608,-264 608,-246 662,-246 662,-264"/>
<text text-anchor="middle" x="635" y="-252.8" font-family="Helvetica,sans-Serif" font-size="9.00" fill="#c40b0a">index.js</text>
</a>
</g>
</g>
<!-- node_modules/sanitize&#45;html/dist/sanitize&#45;html.js -->
<g id="node5" class="node">
<title>node_modules/sanitize&#45;html/dist/sanitize&#45;html.js</title>
<g id="a_node5"><a xlink:href="node_modules/sanitize-html/dist/sanitize-html.js" xlink:title="sanitize&#45;html.js">
<polygon fill="#c40b0a" fill-opacity="0.101961" stroke="#000000" points="673.5,-170 672,-172 661.5,-172 660,-170 596.5,-170 596.5,-152 673.5,-152 673.5,-170"/>
<text text-anchor="middle" x="635" y="-158.8" font-family="Helvetica,sans-Serif" font-size="9.00" fill="#c40b0a">sanitize&#45;html.js</text>
</a>
</g>
</g>
<!-- src/controllers/friend&#45;endpoint.js -->
<g id="node6" class="node">
<title>src/controllers/friend&#45;endpoint.js</title>
<g id="a_node6"><a xlink:href="src/controllers/friend-endpoint.js" xlink:title="friend&#45;endpoint.js">
<path fill="#ffffcc" stroke="#000000" d="M235,-494C235,-494 159,-494 159,-494 156,-494 153,-491 153,-488 153,-488 153,-482 153,-482 153,-479 156,-476 159,-476 159,-476 235,-476 235,-476 238,-476 241,-479 241,-482 241,-482 241,-488 241,-488 241,-491 238,-494 235,-494"/>
<text text-anchor="middle" x="197" y="-482.8" font-family="Helvetica,sans-Serif" font-size="9.00" fill="#000000">friend&#45;endpoint.js</text>
</a>
</g>
</g>
<!-- src/helpers/httpError.js -->
<g id="node7" class="node">
<title>src/helpers/httpError.js</title>
<g id="a_node7"><a xlink:href="src/helpers/httpError.js" xlink:title="httpError.js">
<path fill="#ffffcc" stroke="#000000" d="M520,-494C520,-494 471,-494 471,-494 468,-494 465,-491 465,-488 465,-488 465,-482 465,-482 465,-479 468,-476 471,-476 471,-476 520,-476 520,-476 523,-476 526,-479 526,-482 526,-482 526,-488 526,-488 526,-491 523,-494 520,-494"/>
<text text-anchor="middle" x="495.5" y="-482.8" font-family="Helvetica,sans-Serif" font-size="9.00" fill="#000000">httpError.js</text>
</a>
</g>
</g>
<!-- src/controllers/friend&#45;endpoint.js&#45;&gt;src/helpers/httpError.js -->
<g id="edge1" class="edge">
<title>src/controllers/friend&#45;endpoint.js&#45;&gt;src/helpers/httpError.js</title>
<path fill="none" stroke="#000000" stroke-width="2" stroke-opacity="0.200000" d="M241.0447,-485C300.0714,-485 403.7664,-485 458.7922,-485"/>
<polygon fill="#000000" fill-opacity="0.200000" stroke="#000000" stroke-width="2" stroke-opacity="0.200000" points="458.932,-487.1001 464.932,-485 458.932,-482.9001 458.932,-487.1001"/>
</g>
<!-- src/helpers/unpack.js -->
<g id="node8" class="node">
<title>src/helpers/unpack.js</title>
<g id="a_node8"><a xlink:href="src/helpers/unpack.js" xlink:title="unpack.js">
<path fill="#ffffcc" stroke="#000000" d="M517.5,-524C517.5,-524 473.5,-524 473.5,-524 470.5,-524 467.5,-521 467.5,-518 467.5,-518 467.5,-512 467.5,-512 467.5,-509 470.5,-506 473.5,-506 473.5,-506 517.5,-506 517.5,-506 520.5,-506 523.5,-509 523.5,-512 523.5,-512 523.5,-518 523.5,-518 523.5,-521 520.5,-524 517.5,-524"/>
<text text-anchor="middle" x="495.5" y="-512.8" font-family="Helvetica,sans-Serif" font-size="9.00" fill="#000000">unpack.js</text>
</a>
</g>
</g>
<!-- src/controllers/friend&#45;endpoint.js&#45;&gt;src/helpers/unpack.js -->
<g id="edge2" class="edge">
<title>src/controllers/friend&#45;endpoint.js&#45;&gt;src/helpers/unpack.js</title>
<path fill="none" stroke="#000000" stroke-width="2" stroke-opacity="0.200000" d="M241.0447,-489.4266C301.0083,-495.4531 407.0695,-506.1125 461.3753,-511.5704"/>
<polygon fill="#000000" fill-opacity="0.200000" stroke="#000000" stroke-width="2" stroke-opacity="0.200000" points="461.2379,-513.6671 467.4178,-512.1777 461.6579,-509.4881 461.2379,-513.6671"/>
</g>
<!-- src/controllers/index.js -->
<g id="node9" class="node">
<title>src/controllers/index.js</title>
<g id="a_node9"><a xlink:href="src/controllers/index.js" xlink:title="index.js">
<path fill="#ffffcc" stroke="#000000" d="M134,-494C134,-494 92,-494 92,-494 89,-494 86,-491 86,-488 86,-488 86,-482 86,-482 86,-479 89,-476 92,-476 92,-476 134,-476 134,-476 137,-476 140,-479 140,-482 140,-482 140,-488 140,-488 140,-491 137,-494 134,-494"/>
<text text-anchor="middle" x="113" y="-482.8" font-family="Helvetica,sans-Serif" font-size="9.00" fill="#000000">index.js</text>
</a>
</g>
</g>
<!-- src/controllers/index.js&#45;&gt;src/controllers/friend&#45;endpoint.js -->
<g id="edge4" class="edge">
<title>src/controllers/index.js&#45;&gt;src/controllers/friend&#45;endpoint.js</title>
<path fill="none" stroke="#000000" stroke-width="2" stroke-opacity="0.200000" d="M140.0405,-485C142.2317,-485 144.4854,-485 146.773,-485"/>
<polygon fill="#000000" fill-opacity="0.200000" stroke="#000000" stroke-width="2" stroke-opacity="0.200000" points="146.8879,-487.1001 152.8878,-485 146.8878,-482.9001 146.8879,-487.1001"/>
</g>
<!-- src/domain/user&#45;service/index.js -->
<g id="node10" class="node">
<title>src/domain/user&#45;service/index.js</title>
<g id="a_node10"><a xlink:href="src/domain/user-service/index.js" xlink:title="index.js">
<path fill="#ffffcc" stroke="#000000" d="M218,-322C218,-322 176,-322 176,-322 173,-322 170,-319 170,-316 170,-316 170,-310 170,-310 170,-307 173,-304 176,-304 176,-304 218,-304 218,-304 221,-304 224,-307 224,-310 224,-310 224,-316 224,-316 224,-319 221,-322 218,-322"/>
<text text-anchor="middle" x="197" y="-310.8" font-family="Helvetica,sans-Serif" font-size="9.00" fill="#000000">index.js</text>
</a>
</g>
</g>
<!-- src/controllers/index.js&#45;&gt;src/domain/user&#45;service/index.js -->
<g id="edge3" class="edge">
<title>src/controllers/index.js&#45;&gt;src/domain/user&#45;service/index.js</title>
<path fill="none" stroke="#000000" stroke-width="2" stroke-opacity="0.200000" d="M117.5162,-475.7525C131.3037,-447.5209 172.9346,-362.2768 189.7943,-327.7545"/>
<polygon fill="#000000" fill-opacity="0.200000" stroke="#000000" stroke-width="2" stroke-opacity="0.200000" points="191.7154,-328.6062 192.4615,-322.2932 187.9414,-326.763 191.7154,-328.6062"/>
</g>
<!-- src/controllers/user&#45;endpoint.js -->
<g id="node11" class="node">
<title>src/controllers/user&#45;endpoint.js</title>
<g id="a_node11"><a xlink:href="src/controllers/user-endpoint.js" xlink:title="user&#45;endpoint.js">
<path fill="#ffffcc" stroke="#000000" d="M232.5,-524C232.5,-524 161.5,-524 161.5,-524 158.5,-524 155.5,-521 155.5,-518 155.5,-518 155.5,-512 155.5,-512 155.5,-509 158.5,-506 161.5,-506 161.5,-506 232.5,-506 232.5,-506 235.5,-506 238.5,-509 238.5,-512 238.5,-512 238.5,-518 238.5,-518 238.5,-521 235.5,-524 232.5,-524"/>
<text text-anchor="middle" x="197" y="-512.8" font-family="Helvetica,sans-Serif" font-size="9.00" fill="#000000">user&#45;endpoint.js</text>
</a>
</g>
</g>
<!-- src/controllers/index.js&#45;&gt;src/controllers/user&#45;endpoint.js -->
<g id="edge5" class="edge">
<title>src/controllers/index.js&#45;&gt;src/controllers/user&#45;endpoint.js</title>
<path fill="none" stroke="#000000" stroke-width="2" stroke-opacity="0.200000" d="M136.6458,-494.0021C142.0115,-496.0072 147.6929,-498.1008 153,-500 156.5904,-501.2849 160.3543,-502.6064 164.1054,-503.9074"/>
<polygon fill="#000000" fill-opacity="0.200000" stroke="#000000" stroke-width="2" stroke-opacity="0.200000" points="163.6058,-505.9564 169.9627,-505.9265 164.9747,-501.9857 163.6058,-505.9564"/>
</g>
<!-- src/db/userdb/index.js -->
<g id="node16" class="node">
<title>src/db/userdb/index.js</title>
<g id="a_node16"><a xlink:href="src/db/userdb/index.js" xlink:title="index.js">
<path fill="#ffffcc" stroke="#000000" d="M321,-194C321,-194 279,-194 279,-194 276,-194 273,-191 273,-188 273,-188 273,-182 273,-182 273,-179 276,-176 279,-176 279,-176 321,-176 321,-176 324,-176 327,-179 327,-182 327,-182 327,-188 327,-188 327,-191 324,-194 321,-194"/>
<text text-anchor="middle" x="300" y="-182.8" font-family="Helvetica,sans-Serif" font-size="9.00" fill="#000000">index.js</text>
</a>
</g>
</g>
<!-- src/domain/user&#45;service/index.js&#45;&gt;src/db/userdb/index.js -->
<g id="edge17" class="edge">
<title>src/domain/user&#45;service/index.js&#45;&gt;src/db/userdb/index.js</title>
<path fill="none" stroke="#000000" stroke-width="2" stroke-opacity="0.200000" d="M204.4075,-303.7946C222.224,-281.6536 267.5619,-225.3114 288.7577,-198.9711"/>
<polygon fill="#000000" fill-opacity="0.200000" stroke="#000000" stroke-width="2" stroke-opacity="0.200000" points="290.5341,-200.1131 292.6596,-194.122 287.262,-197.48 290.5341,-200.1131"/>
</g>
<!-- src/domain/user&#45;service/user&#45;actions.js -->
<g id="node21" class="node">
<title>src/domain/user&#45;service/user&#45;actions.js</title>
<g id="a_node21"><a xlink:href="src/domain/user-service/user-actions.js" xlink:title="user&#45;actions.js">
<path fill="#ffffcc" stroke="#000000" d="M332,-322C332,-322 268,-322 268,-322 265,-322 262,-319 262,-316 262,-316 262,-310 262,-310 262,-307 265,-304 268,-304 268,-304 332,-304 332,-304 335,-304 338,-307 338,-310 338,-310 338,-316 338,-316 338,-319 335,-322 332,-322"/>
<text text-anchor="middle" x="300" y="-310.8" font-family="Helvetica,sans-Serif" font-size="9.00" fill="#000000">user&#45;actions.js</text>
</a>
</g>
</g>
<!-- src/domain/user&#45;service/index.js&#45;&gt;src/domain/user&#45;service/user&#45;actions.js -->
<g id="edge18" class="edge">
<title>src/domain/user&#45;service/index.js&#45;&gt;src/domain/user&#45;service/user&#45;actions.js</title>
<path fill="none" stroke="#000000" stroke-width="2" stroke-opacity="0.200000" d="M224.062,-313C233.7281,-313 244.8894,-313 255.6289,-313"/>
<polygon fill="#000000" fill-opacity="0.200000" stroke="#000000" stroke-width="2" stroke-opacity="0.200000" points="255.889,-315.1001 261.889,-313 255.8889,-310.9001 255.889,-315.1001"/>
</g>
<!-- src/controllers/user&#45;endpoint.js&#45;&gt;src/helpers/httpError.js -->
<g id="edge6" class="edge">
<title>src/controllers/user&#45;endpoint.js&#45;&gt;src/helpers/httpError.js</title>
<path fill="none" stroke="#000000" stroke-width="2" stroke-opacity="0.200000" d="M238.5051,-510.8286C296.9658,-504.9532 402.6511,-494.3315 458.5409,-488.7145"/>
<polygon fill="#000000" fill-opacity="0.200000" stroke="#000000" stroke-width="2" stroke-opacity="0.200000" points="459.0155,-490.7775 464.7754,-488.0879 458.5954,-486.5985 459.0155,-490.7775"/>
</g>
<!-- src/controllers/user&#45;endpoint.js&#45;&gt;src/helpers/unpack.js -->
<g id="edge9" class="edge">
<title>src/controllers/user&#45;endpoint.js&#45;&gt;src/helpers/unpack.js</title>
<path fill="none" stroke="#000000" stroke-width="2" stroke-opacity="0.200000" d="M238.5051,-515C297.8913,-515 406.0092,-515 461.1575,-515"/>
<polygon fill="#000000" fill-opacity="0.200000" stroke="#000000" stroke-width="2" stroke-opacity="0.200000" points="461.2919,-517.1001 467.2918,-515 461.2918,-512.9001 461.2919,-517.1001"/>
</g>
<!-- src/helpers/isSouthOrNorth.js -->
<g id="node12" class="node">
<title>src/helpers/isSouthOrNorth.js</title>
<g id="a_node12"><a xlink:href="src/helpers/isSouthOrNorth.js" xlink:title="isSouthOrNorth.js">
<path fill="#ffffcc" stroke="#000000" d="M534,-584C534,-584 457,-584 457,-584 454,-584 451,-581 451,-578 451,-578 451,-572 451,-572 451,-569 454,-566 457,-566 457,-566 534,-566 534,-566 537,-566 540,-569 540,-572 540,-572 540,-578 540,-578 540,-581 537,-584 534,-584"/>
<text text-anchor="middle" x="495.5" y="-572.8" font-family="Helvetica,sans-Serif" font-size="9.00" fill="#000000">isSouthOrNorth.js</text>
</a>
</g>
</g>
<!-- src/controllers/user&#45;endpoint.js&#45;&gt;src/helpers/isSouthOrNorth.js -->
<g id="edge7" class="edge">
<title>src/controllers/user&#45;endpoint.js&#45;&gt;src/helpers/isSouthOrNorth.js</title>
<path fill="none" stroke="#000000" stroke-width="2" stroke-opacity="0.200000" d="M233.7068,-524.0657C241.3789,-525.8196 249.4348,-527.5579 257,-529 295.6203,-536.3619 395.1091,-541.4063 432,-555 435.9343,-556.4497 436.1568,-558.3238 440,-560 443.2821,-561.4315 446.7343,-562.7564 450.2444,-563.9764"/>
<polygon fill="#000000" fill-opacity="0.200000" stroke="#000000" stroke-width="2" stroke-opacity="0.200000" points="449.8307,-566.051 456.1865,-565.9309 451.1431,-562.0612 449.8307,-566.051"/>
</g>
<!-- src/helpers/processSouthern.js -->
<g id="node13" class="node">
<title>src/helpers/processSouthern.js</title>
<g id="a_node13"><a xlink:href="src/helpers/processSouthern.js" xlink:title="processSouthern.js">
<path fill="#ffffcc" stroke="#000000" d="M537,-554C537,-554 454,-554 454,-554 451,-554 448,-551 448,-548 448,-548 448,-542 448,-542 448,-539 451,-536 454,-536 454,-536 537,-536 537,-536 540,-536 543,-539 543,-542 543,-542 543,-548 543,-548 543,-551 540,-554 537,-554"/>
<text text-anchor="middle" x="495.5" y="-542.8" font-family="Helvetica,sans-Serif" font-size="9.00" fill="#000000">processSouthern.js</text>
</a>
</g>
</g>
<!-- src/controllers/user&#45;endpoint.js&#45;&gt;src/helpers/processSouthern.js -->
<g id="edge8" class="edge">
<title>src/controllers/user&#45;endpoint.js&#45;&gt;src/helpers/processSouthern.js</title>
<path fill="none" stroke="#000000" stroke-width="2" stroke-opacity="0.200000" d="M238.5051,-519.1714C291.5202,-524.4995 383.3715,-533.7308 441.7045,-539.5934"/>
<polygon fill="#000000" fill-opacity="0.200000" stroke="#000000" stroke-width="2" stroke-opacity="0.200000" points="441.764,-541.7099 447.944,-540.2205 442.1841,-537.5309 441.764,-541.7099"/>
</g>
<!-- src/db/config.json -->
<g id="node14" class="node">
<title>src/db/config.json</title>
<g id="a_node14"><a xlink:href="src/db/config.json" xlink:title="config.json">
<path fill="#ffee44" stroke="#000000" d="M520,-246C520,-246 471,-246 471,-246 468,-246 465,-243 465,-240 465,-240 465,-234 465,-234 465,-231 468,-228 471,-228 471,-228 520,-228 520,-228 523,-228 526,-231 526,-234 526,-234 526,-240 526,-240 526,-243 523,-246 520,-246"/>
<text text-anchor="middle" x="495.5" y="-234.8" font-family="Helvetica,sans-Serif" font-size="9.00" fill="#000000">config.json</text>
</a>
</g>
</g>
<!-- src/db/index.js -->
<g id="node15" class="node">
<title>src/db/index.js</title>
<g id="a_node15"><a xlink:href="src/db/index.js" xlink:title="index.js">
<path fill="#ffffcc" stroke="#000000" d="M418,-246C418,-246 376,-246 376,-246 373,-246 370,-243 370,-240 370,-240 370,-234 370,-234 370,-231 373,-228 376,-228 376,-228 418,-228 418,-228 421,-228 424,-231 424,-234 424,-234 424,-240 424,-240 424,-243 421,-246 418,-246"/>
<text text-anchor="middle" x="397" y="-234.8" font-family="Helvetica,sans-Serif" font-size="9.00" fill="#000000">index.js</text>
</a>
</g>
</g>
<!-- src/db/index.js&#45;&gt;node_modules/pg/lib/index.js -->
<g id="edge11" class="edge">
<title>src/db/index.js&#45;&gt;node_modules/pg/lib/index.js</title>
<path fill="none" stroke="#000000" stroke-dasharray="5,2" stroke-opacity="0.200000" d="M418.5013,-227.9153C425.2577,-225.494 432.8282,-223.215 440,-222 494.556,-212.7575 510.487,-209.9843 564.5,-222 582.5066,-226.0057 601.3544,-235.1218 615.0269,-242.7597"/>
<polygon fill="#000000" fill-opacity="0.200000" stroke="#000000" stroke-opacity="0.200000" points="614.3018,-244.7644 620.5522,-245.9233 616.3888,-241.1195 614.3018,-244.7644"/>
</g>
<!-- src/db/index.js&#45;&gt;src/db/config.json -->
<g id="edge10" class="edge">
<title>src/db/index.js&#45;&gt;src/db/config.json</title>
<path fill="none" stroke="#000000" stroke-width="2" stroke-opacity="0.200000" d="M424.1763,-237C434.8427,-237 447.2507,-237 458.6984,-237"/>
<polygon fill="#000000" fill-opacity="0.200000" stroke="#000000" stroke-width="2" stroke-opacity="0.200000" points="458.9423,-239.1001 464.9423,-237 458.9423,-234.9001 458.9423,-239.1001"/>
</g>
<!-- src/db/userdb/index.js&#45;&gt;src/db/index.js -->
<g id="edge12" class="edge">
<title>src/db/userdb/index.js&#45;&gt;src/db/index.js</title>
<path fill="none" stroke="#000000" stroke-width="2" stroke-opacity="0.200000" d="M310.9611,-194.2016C321.4536,-202.6368 338.0075,-214.997 354,-223 357.0717,-224.5371 360.3493,-225.9577 363.6728,-227.2568"/>
<polygon fill="#000000" fill-opacity="0.200000" stroke="#000000" stroke-width="2" stroke-opacity="0.200000" points="363.314,-229.3623 369.6701,-229.4627 364.7639,-225.4205 363.314,-229.3623"/>
</g>
<!-- src/db/userdb/userdb.js -->
<g id="node17" class="node">
<title>src/db/userdb/userdb.js</title>
<g id="a_node17"><a xlink:href="src/db/userdb/userdb.js" xlink:title="userdb.js">
<path fill="#ffffcc" stroke="#000000" d="M418,-194C418,-194 376,-194 376,-194 373,-194 370,-191 370,-188 370,-188 370,-182 370,-182 370,-179 373,-176 376,-176 376,-176 418,-176 418,-176 421,-176 424,-179 424,-182 424,-182 424,-188 424,-188 424,-191 421,-194 418,-194"/>
<text text-anchor="middle" x="397" y="-182.8" font-family="Helvetica,sans-Serif" font-size="9.00" fill="#000000">userdb.js</text>
</a>
</g>
</g>
<!-- src/db/userdb/index.js&#45;&gt;src/db/userdb/userdb.js -->
<g id="edge13" class="edge">
<title>src/db/userdb/index.js&#45;&gt;src/db/userdb/userdb.js</title>
<path fill="none" stroke="#000000" stroke-width="2" stroke-opacity="0.200000" d="M327.0199,-185C338.3812,-185 351.7132,-185 363.6756,-185"/>
<polygon fill="#000000" fill-opacity="0.200000" stroke="#000000" stroke-width="2" stroke-opacity="0.200000" points="363.7886,-187.1001 369.7886,-185 363.7885,-182.9001 363.7886,-187.1001"/>
</g>
<!-- src/domain/models/user/index.js -->
<g id="node18" class="node">
<title>src/domain/models/user/index.js</title>
<g id="a_node18"><a xlink:href="src/domain/models/user/index.js" xlink:title="index.js">
<path fill="#ffffcc" stroke="#000000" d="M418,-322C418,-322 376,-322 376,-322 373,-322 370,-319 370,-316 370,-316 370,-310 370,-310 370,-307 373,-304 376,-304 376,-304 418,-304 418,-304 421,-304 424,-307 424,-310 424,-310 424,-316 424,-316 424,-319 421,-322 418,-322"/>
<text text-anchor="middle" x="397" y="-310.8" font-family="Helvetica,sans-Serif" font-size="9.00" fill="#000000">index.js</text>
</a>
</g>
</g>
<!-- src/domain/models/user/index.js&#45;&gt;node_modules/sanitize&#45;html/dist/sanitize&#45;html.js -->
<g id="edge16" class="edge">
<title>src/domain/models/user/index.js&#45;&gt;node_modules/sanitize&#45;html/dist/sanitize&#45;html.js</title>
<path fill="none" stroke="#000000" stroke-dasharray="5,2" stroke-opacity="0.200000" d="M408.9915,-303.7698C417.0381,-296.8193 427.0407,-286.536 432,-275 437.1901,-262.9271 430.3986,-165.9725 440,-157 485.249,-114.7149 565.376,-134.8921 607.4479,-149.8636"/>
<polygon fill="#000000" fill-opacity="0.200000" stroke="#000000" stroke-opacity="0.200000" points="606.7679,-151.8509 613.1242,-151.9346 608.2074,-147.9053 606.7679,-151.8509"/>
</g>
<!-- src/helpers/Id/index.js -->
<g id="node19" class="node">
<title>src/helpers/Id/index.js</title>
<g id="a_node19"><a xlink:href="src/helpers/Id/index.js" xlink:title="index.js">
<path fill="#ffffcc" stroke="#000000" d="M516.5,-442C516.5,-442 474.5,-442 474.5,-442 471.5,-442 468.5,-439 468.5,-436 468.5,-436 468.5,-430 468.5,-430 468.5,-427 471.5,-424 474.5,-424 474.5,-424 516.5,-424 516.5,-424 519.5,-424 522.5,-427 522.5,-430 522.5,-430 522.5,-436 522.5,-436 522.5,-439 519.5,-442 516.5,-442"/>
<text text-anchor="middle" x="495.5" y="-430.8" font-family="Helvetica,sans-Serif" font-size="9.00" fill="#000000">index.js</text>
</a>
</g>
</g>
<!-- src/domain/models/user/index.js&#45;&gt;src/helpers/Id/index.js -->
<g id="edge14" class="edge">
<title>src/domain/models/user/index.js&#45;&gt;src/helpers/Id/index.js</title>
<path fill="none" stroke="#000000" stroke-width="2" stroke-opacity="0.200000" d="M404.4035,-322.0195C421.4456,-342.7814 463.5499,-394.076 483.9937,-418.9822"/>
<polygon fill="#000000" fill-opacity="0.200000" stroke="#000000" stroke-width="2" stroke-opacity="0.200000" points="482.5805,-420.5705 488.0106,-423.8758 485.827,-417.9057 482.5805,-420.5705"/>
</g>
<!-- src/domain/models/user/userFactory.js -->
<g id="node20" class="node">
<title>src/domain/models/user/userFactory.js</title>
<g id="a_node20"><a xlink:href="src/domain/models/user/userFactory.js" xlink:title="userFactory.js">
<path fill="#ffffcc" stroke="#000000" d="M526.5,-322C526.5,-322 464.5,-322 464.5,-322 461.5,-322 458.5,-319 458.5,-316 458.5,-316 458.5,-310 458.5,-310 458.5,-307 461.5,-304 464.5,-304 464.5,-304 526.5,-304 526.5,-304 529.5,-304 532.5,-307 532.5,-310 532.5,-310 532.5,-316 532.5,-316 532.5,-319 529.5,-322 526.5,-322"/>
<text text-anchor="middle" x="495.5" y="-310.8" font-family="Helvetica,sans-Serif" font-size="9.00" fill="#000000">userFactory.js</text>
</a>
</g>
</g>
<!-- src/domain/models/user/index.js&#45;&gt;src/domain/models/user/userFactory.js -->
<g id="edge15" class="edge">
<title>src/domain/models/user/index.js&#45;&gt;src/domain/models/user/userFactory.js</title>
<path fill="none" stroke="#000000" stroke-width="2" stroke-opacity="0.200000" d="M424.1763,-313C432.8647,-313 442.7088,-313 452.2481,-313"/>
<polygon fill="#000000" fill-opacity="0.200000" stroke="#000000" stroke-width="2" stroke-opacity="0.200000" points="452.4577,-315.1001 458.4576,-313 452.4576,-310.9001 452.4577,-315.1001"/>
</g>
<!-- src/helpers/Id/index.js&#45;&gt;node_modules/cuid/index.js -->
<g id="edge20" class="edge">
<title>src/helpers/Id/index.js&#45;&gt;node_modules/cuid/index.js</title>
<path fill="none" stroke="#000000" stroke-dasharray="5,2" stroke-opacity="0.200000" d="M509.3858,-423.8423C534.4539,-407.31 587.3051,-372.4547 615.8095,-353.6561"/>
<polygon fill="#000000" fill-opacity="0.200000" stroke="#000000" stroke-opacity="0.200000" points="617.3177,-355.1771 621.1704,-350.1206 615.0054,-351.6709 617.3177,-355.1771"/>
</g>
<!-- src/domain/user&#45;service/user&#45;actions.js&#45;&gt;src/domain/models/user/index.js -->
<g id="edge19" class="edge">
<title>src/domain/user&#45;service/user&#45;actions.js&#45;&gt;src/domain/models/user/index.js</title>
<path fill="none" stroke="#000000" stroke-width="2" stroke-opacity="0.200000" d="M338.0586,-313C346.5176,-313 355.4215,-313 363.6737,-313"/>
<polygon fill="#000000" fill-opacity="0.200000" stroke="#000000" stroke-width="2" stroke-opacity="0.200000" points="363.839,-315.1001 369.839,-313 363.839,-310.9001 363.839,-315.1001"/>
</g>
<!-- src/helpers/adaptRequest.js -->
<g id="node22" class="node">
<title>src/helpers/adaptRequest.js</title>
<g id="a_node22"><a xlink:href="src/helpers/adaptRequest.js" xlink:title="adaptRequest.js">
<path fill="#ffffcc" stroke="#000000" d="M531,-614C531,-614 460,-614 460,-614 457,-614 454,-611 454,-608 454,-608 454,-602 454,-602 454,-599 457,-596 460,-596 460,-596 531,-596 531,-596 534,-596 537,-599 537,-602 537,-602 537,-608 537,-608 537,-611 534,-614 531,-614"/>
<text text-anchor="middle" x="495.5" y="-602.8" font-family="Helvetica,sans-Serif" font-size="9.00" fill="#000000">adaptRequest.js</text>
</a>
</g>
</g>
<!-- src/index.js -->
<g id="node23" class="node">
<title>src/index.js</title>
<g id="a_node23"><a xlink:href="src/index.js" xlink:title="index.js">
<path fill="#ffffcc" stroke="#000000" d="M64,-333C64,-333 22,-333 22,-333 19,-333 16,-330 16,-327 16,-327 16,-321 16,-321 16,-318 19,-315 22,-315 22,-315 64,-315 64,-315 67,-315 70,-318 70,-321 70,-321 70,-327 70,-327 70,-330 67,-333 64,-333"/>
<text text-anchor="middle" x="43" y="-321.8" font-family="Helvetica,sans-Serif" font-size="9.00" fill="#000000">index.js</text>
</a>
</g>
</g>
<!-- src/index.js&#45;&gt;node_modules/body&#45;parser/index.js -->
<g id="edge23" class="edge">
<title>src/index.js&#45;&gt;node_modules/body&#45;parser/index.js</title>
<path fill="none" stroke="#000000" stroke-dasharray="5,2" stroke-opacity="0.200000" d="M44.4086,-314.9445C51.6108,-272.236 88.3108,-93 197,-93 197,-93 197,-93 397,-93 470.0071,-93 555.6115,-93 601.6458,-93"/>
<polygon fill="#000000" fill-opacity="0.200000" stroke="#000000" stroke-opacity="0.200000" points="601.8735,-95.1001 607.8734,-93 601.8734,-90.9001 601.8735,-95.1001"/>
</g>
<!-- src/index.js&#45;&gt;node_modules/express/index.js -->
<g id="edge24" class="edge">
<title>src/index.js&#45;&gt;node_modules/express/index.js</title>
<path fill="none" stroke="#000000" stroke-dasharray="5,2" stroke-opacity="0.200000" d="M43.392,-314.9278C45.1294,-278.4225 53.1801,-142.6194 78,-109 113.0617,-61.5077 137.9675,-50 197,-50 197,-50 197,-50 397,-50 470.1931,-50 555.7267,-41.9018 601.6994,-36.884"/>
<polygon fill="#000000" fill-opacity="0.200000" stroke="#000000" stroke-opacity="0.200000" points="602.185,-38.9432 607.9184,-36.1976 601.7242,-34.7686 602.185,-38.9432"/>
</g>
<!-- src/index.js&#45;&gt;src/controllers/index.js -->
<g id="edge21" class="edge">
<title>src/index.js&#45;&gt;src/controllers/index.js</title>
<path fill="none" stroke="#000000" stroke-width="2" stroke-opacity="0.200000" d="M46.9641,-333.1174C58.5629,-359.7947 92.5063,-437.8645 106.674,-470.4501"/>
<polygon fill="#000000" fill-opacity="0.200000" stroke="#000000" stroke-width="2" stroke-opacity="0.200000" points="104.7611,-471.3176 109.0794,-475.9826 108.6128,-469.6429 104.7611,-471.3176"/>
</g>
<!-- src/index.js&#45;&gt;src/helpers/adaptRequest.js -->
<g id="edge22" class="edge">
<title>src/index.js&#45;&gt;src/helpers/adaptRequest.js</title>
<path fill="none" stroke="#000000" stroke-width="2" stroke-opacity="0.200000" d="M43.7355,-333.1159C47.105,-373.8106 61.6076,-537.5549 78,-553 116.6579,-589.4239 143.8856,-564 197,-564 197,-564 197,-564 300,-564 329.5987,-564 406.647,-582.2292 454.7067,-594.3773"/>
<polygon fill="#000000" fill-opacity="0.200000" stroke="#000000" stroke-width="2" stroke-opacity="0.200000" points="454.3758,-596.4599 460.7081,-595.9008 455.4093,-592.389 454.3758,-596.4599"/>
</g>
</g>
</svg>
