<?xml version="1.0" encoding="UTF-8" standalone="no"?>
<!DOCTYPE svg PUBLIC "-//W3C//DTD SVG 1.1//EN"
 "http://www.w3.org/Graphics/SVG/1.1/DTD/svg11.dtd">
<!-- Generated by graphviz version 2.40.1 (20161225.0304)
 -->
<!-- Title: dependency&#45;cruiser output Pages: 1 -->
<svg width="749pt" height="570pt"
 viewBox="0.00 0.00 749.00 570.00" xmlns="http://www.w3.org/2000/svg" xmlns:xlink="http://www.w3.org/1999/xlink">
<g id="graph0" class="graph" transform="scale(1 1) rotate(0) translate(4 566)">
<title>dependency&#45;cruiser output</title>
<polygon fill="#ffffff" stroke="transparent" points="-4,4 -4,-566 745,-566 745,4 -4,4"/>
<g id="clust1" class="cluster">
<title>cluster_node_modules</title>
<path fill="#ffffff" stroke="#000000" stroke-width="2" d="M620,-8C620,-8 721,-8 721,-8 727,-8 733,-14 733,-20 733,-20 733,-390 733,-390 733,-396 727,-402 721,-402 721,-402 620,-402 620,-402 614,-402 608,-396 608,-390 608,-390 608,-20 608,-20 608,-14 614,-8 620,-8"/>
<text text-anchor="middle" x="670.5" y="-390.8" font-family="Helvetica,sans-Serif" font-weight="bold" font-size="9.00" fill="#000000">node_modules</text>
</g>
<g id="clust2" class="cluster">
<title>cluster_node_modules/body&#45;parser</title>
<path fill="#ffffff" stroke="#000000" stroke-width="2" d="M647.5,-76C647.5,-76 693.5,-76 693.5,-76 699.5,-76 705.5,-82 705.5,-88 705.5,-88 705.5,-116 705.5,-116 705.5,-122 699.5,-128 693.5,-128 693.5,-128 647.5,-128 647.5,-128 641.5,-128 635.5,-122 635.5,-116 635.5,-116 635.5,-88 635.5,-88 635.5,-82 641.5,-76 647.5,-76"/>
<text text-anchor="middle" x="670.5" y="-116.8" font-family="Helvetica,sans-Serif" font-weight="bold" font-size="9.00" fill="#000000">body&#45;parser</text>
</g>
<g id="clust3" class="cluster">
<title>cluster_node_modules/cuid</title>
<path fill="#ffffff" stroke="#000000" stroke-width="2" d="M647.5,-324C647.5,-324 693.5,-324 693.5,-324 699.5,-324 705.5,-330 705.5,-336 705.5,-336 705.5,-364 705.5,-364 705.5,-370 699.5,-376 693.5,-376 693.5,-376 647.5,-376 647.5,-376 641.5,-376 635.5,-370 635.5,-364 635.5,-364 635.5,-336 635.5,-336 635.5,-330 641.5,-324 647.5,-324"/>
<text text-anchor="middle" x="670.5" y="-364.8" font-family="Helvetica,sans-Serif" font-weight="bold" font-size="9.00" fill="#000000">cuid</text>
</g>
<g id="clust4" class="cluster">
<title>cluster_node_modules/express</title>
<path fill="#ffffff" stroke="#000000" stroke-width="2" d="M647.5,-16C647.5,-16 693.5,-16 693.5,-16 699.5,-16 705.5,-22 705.5,-28 705.5,-28 705.5,-56 705.5,-56 705.5,-62 699.5,-68 693.5,-68 693.5,-68 647.5,-68 647.5,-68 641.5,-68 635.5,-62 635.5,-56 635.5,-56 635.5,-28 635.5,-28 635.5,-22 641.5,-16 647.5,-16"/>
<text text-anchor="middle" x="670.5" y="-56.8" font-family="Helvetica,sans-Serif" font-weight="bold" font-size="9.00" fill="#000000">express</text>
</g>
<g id="clust5" class="cluster">
<title>cluster_node_modules/pg</title>
<path fill="#ffffff" stroke="#000000" stroke-width="2" d="M639.5,-230C639.5,-230 701.5,-230 701.5,-230 707.5,-230 713.5,-236 713.5,-242 713.5,-242 713.5,-304 713.5,-304 713.5,-310 707.5,-316 701.5,-316 701.5,-316 639.5,-316 639.5,-316 633.5,-316 627.5,-310 627.5,-304 627.5,-304 627.5,-242 627.5,-242 627.5,-236 633.5,-230 639.5,-230"/>
<text text-anchor="middle" x="670.5" y="-304.8" font-family="Helvetica,sans-Serif" font-weight="bold" font-size="9.00" fill="#000000">pg</text>
</g>
<g id="clust6" class="cluster">
<title>cluster_node_modules/pg/lib</title>
<path fill="#ffffff" stroke="#000000" stroke-width="2" d="M647.5,-238C647.5,-238 693.5,-238 693.5,-238 699.5,-238 705.5,-244 705.5,-250 705.5,-250 705.5,-278 705.5,-278 705.5,-284 699.5,-290 693.5,-290 693.5,-290 647.5,-290 647.5,-290 641.5,-290 635.5,-284 635.5,-278 635.5,-278 635.5,-250 635.5,-250 635.5,-244 641.5,-238 647.5,-238"/>
<text text-anchor="middle" x="670.5" y="-278.8" font-family="Helvetica,sans-Serif" font-weight="bold" font-size="9.00" fill="#000000">lib</text>
</g>
<g id="clust7" class="cluster">
<title>cluster_node_modules/sanitize&#45;html</title>
<path fill="#ffffff" stroke="#000000" stroke-width="2" d="M628,-136C628,-136 713,-136 713,-136 719,-136 725,-142 725,-148 725,-148 725,-210 725,-210 725,-216 719,-222 713,-222 713,-222 628,-222 628,-222 622,-222 616,-216 616,-210 616,-210 616,-148 616,-148 616,-142 622,-136 628,-136"/>
<text text-anchor="middle" x="670.5" y="-210.8" font-family="Helvetica,sans-Serif" font-weight="bold" font-size="9.00" fill="#000000">sanitize&#45;html</text>
</g>
<g id="clust8" class="cluster">
<title>cluster_node_modules/sanitize&#45;html/dist</title>
<path fill="#ffffff" stroke="#000000" stroke-width="2" d="M636,-144C636,-144 705,-144 705,-144 711,-144 717,-150 717,-156 717,-156 717,-184 717,-184 717,-190 711,-196 705,-196 705,-196 636,-196 636,-196 630,-196 624,-190 624,-184 624,-184 624,-156 624,-156 624,-150 630,-144 636,-144"/>
<text text-anchor="middle" x="670.5" y="-184.8" font-family="Helvetica,sans-Serif" font-weight="bold" font-size="9.00" fill="#000000">dist</text>
</g>
<g id="clust9" class="cluster">
<title>cluster_src</title>
<path fill="#ffffff" stroke="#000000" stroke-width="2" d="M20,-66C20,-66 588,-66 588,-66 594,-66 600,-72 600,-78 600,-78 600,-542 600,-542 600,-548 594,-554 588,-554 588,-554 20,-554 20,-554 14,-554 8,-548 8,-542 8,-542 8,-78 8,-78 8,-72 14,-66 20,-66"/>
<text text-anchor="middle" x="304" y="-542.8" font-family="Helvetica,sans-Serif" font-weight="bold" font-size="9.00" fill="#000000">src</text>
</g>
<g id="clust10" class="cluster">
<title>cluster_src/Id</title>
<path fill="#ffffff" stroke="#000000" stroke-width="2" d="M508,-476C508,-476 554,-476 554,-476 560,-476 566,-482 566,-488 566,-488 566,-516 566,-516 566,-522 560,-528 554,-528 554,-528 508,-528 508,-528 502,-528 496,-522 496,-516 496,-516 496,-488 496,-488 496,-482 502,-476 508,-476"/>
<text text-anchor="middle" x="531" y="-516.8" font-family="Helvetica,sans-Serif" font-weight="bold" font-size="9.00" fill="#000000">Id</text>
</g>
<g id="clust11" class="cluster">
<title>cluster_src/controllers</title>
<path fill="#ffffff" stroke="#000000" stroke-width="2" d="M104.5,-74C104.5,-74 388,-74 388,-74 394,-74 400,-80 400,-86 400,-86 400,-208 400,-208 400,-214 394,-220 388,-220 388,-220 104.5,-220 104.5,-220 98.5,-220 92.5,-214 92.5,-208 92.5,-208 92.5,-86 92.5,-86 92.5,-80 98.5,-74 104.5,-74"/>
<text text-anchor="middle" x="246.25" y="-208.8" font-family="Helvetica,sans-Serif" font-weight="bold" font-size="9.00" fill="#000000">controllers</text>
</g>
<g id="clust12" class="cluster">
<title>cluster_src/controllers/aux</title>
<path fill="#ffffff" stroke="#000000" stroke-width="2" d="M293,-82C293,-82 380,-82 380,-82 386,-82 392,-88 392,-94 392,-94 392,-182 392,-182 392,-188 386,-194 380,-194 380,-194 293,-194 293,-194 287,-194 281,-188 281,-182 281,-182 281,-94 281,-94 281,-88 287,-82 293,-82"/>
<text text-anchor="middle" x="336.5" y="-182.8" font-family="Helvetica,sans-Serif" font-weight="bold" font-size="9.00" fill="#000000">aux</text>
</g>
<g id="clust13" class="cluster">
<title>cluster_src/db</title>
<path fill="#ffffff" stroke="#000000" stroke-width="2" d="M305.5,-228C305.5,-228 557.5,-228 557.5,-228 563.5,-228 569.5,-234 569.5,-240 569.5,-240 569.5,-328 569.5,-328 569.5,-334 563.5,-340 557.5,-340 557.5,-340 305.5,-340 305.5,-340 299.5,-340 293.5,-334 293.5,-328 293.5,-328 293.5,-240 293.5,-240 293.5,-234 299.5,-228 305.5,-228"/>
<text text-anchor="middle" x="431.5" y="-328.8" font-family="Helvetica,sans-Serif" font-weight="bold" font-size="9.00" fill="#000000">db</text>
</g>
<g id="clust14" class="cluster">
<title>cluster_src/db/userdb</title>
<path fill="#ffffff" stroke="#000000" stroke-width="2" d="M313.5,-236C313.5,-236 474,-236 474,-236 480,-236 486,-242 486,-248 486,-248 486,-276 486,-276 486,-282 480,-288 474,-288 474,-288 313.5,-288 313.5,-288 307.5,-288 301.5,-282 301.5,-276 301.5,-276 301.5,-248 301.5,-248 301.5,-242 307.5,-236 313.5,-236"/>
<text text-anchor="middle" x="393.75" y="-276.8" font-family="Helvetica,sans-Serif" font-weight="bold" font-size="9.00" fill="#000000">userdb</text>
</g>
<g id="clust15" class="cluster">
<title>cluster_src/domain</title>
<path fill="#ffffff" stroke="#000000" stroke-width="2" d="M198,-348C198,-348 580,-348 580,-348 586,-348 592,-354 592,-360 592,-360 592,-456 592,-456 592,-462 586,-468 580,-468 580,-468 198,-468 198,-468 192,-468 186,-462 186,-456 186,-456 186,-360 186,-360 186,-354 192,-348 198,-348"/>
<text text-anchor="middle" x="389" y="-456.8" font-family="Helvetica,sans-Serif" font-weight="bold" font-size="9.00" fill="#000000">domain</text>
</g>
<g id="clust16" class="cluster">
<title>cluster_src/domain/models</title>
<path fill="#ffffff" stroke="#000000" stroke-width="2" d="M420,-356C420,-356 572,-356 572,-356 578,-356 584,-362 584,-368 584,-368 584,-430 584,-430 584,-436 578,-442 572,-442 572,-442 420,-442 420,-442 414,-442 408,-436 408,-430 408,-430 408,-368 408,-368 408,-362 414,-356 420,-356"/>
<text text-anchor="middle" x="496" y="-430.8" font-family="Helvetica,sans-Serif" font-weight="bold" font-size="9.00" fill="#000000">models</text>
</g>
<g id="clust17" class="cluster">
<title>cluster_src/domain/models/user</title>
<path fill="#ffffff" stroke="#000000" stroke-width="2" d="M428,-364C428,-364 564,-364 564,-364 570,-364 576,-370 576,-376 576,-376 576,-404 576,-404 576,-410 570,-416 564,-416 564,-416 428,-416 428,-416 422,-416 416,-410 416,-404 416,-404 416,-376 416,-376 416,-370 422,-364 428,-364"/>
<text text-anchor="middle" x="496" y="-404.8" font-family="Helvetica,sans-Serif" font-weight="bold" font-size="9.00" fill="#000000">user</text>
</g>
<g id="clust18" class="cluster">
<title>cluster_src/domain/user&#45;service</title>
<path fill="#ffffff" stroke="#000000" stroke-width="2" d="M206,-356C206,-356 370.5,-356 370.5,-356 376.5,-356 382.5,-362 382.5,-368 382.5,-368 382.5,-396 382.5,-396 382.5,-402 376.5,-408 370.5,-408 370.5,-408 206,-408 206,-408 200,-408 194,-402 194,-396 194,-396 194,-368 194,-368 194,-362 200,-356 206,-356"/>
<text text-anchor="middle" x="288.25" y="-396.8" font-family="Helvetica,sans-Serif" font-weight="bold" font-size="9.00" fill="#000000">user&#45;service</text>
</g>
<g id="clust19" class="cluster">
<title>cluster_src/helpers</title>
<path fill="#ffffff" stroke="#000000" stroke-width="2" d="M90,-228C90,-228 165,-228 165,-228 171,-228 177,-234 177,-240 177,-240 177,-268 177,-268 177,-274 171,-280 165,-280 165,-280 90,-280 90,-280 84,-280 78,-274 78,-268 78,-268 78,-240 78,-240 78,-234 84,-228 90,-228"/>
<text text-anchor="middle" x="127.5" y="-268.8" font-family="Helvetica,sans-Serif" font-weight="bold" font-size="9.00" fill="#000000">helpers</text>
</g>
<!-- node_modules/body&#45;parser/index.js -->
<g id="node1" class="node">
<title>node_modules/body&#45;parser/index.js</title>
<g id="a_node1"><a xlink:href="node_modules/body-parser/index.js" xlink:title="index.js">
<polygon fill="#c40b0a" fill-opacity="0.101961" stroke="#000000" points="697.5,-102 696,-104 685.5,-104 684,-102 643.5,-102 643.5,-84 697.5,-84 697.5,-102"/>
<text text-anchor="middle" x="670.5" y="-90.8" font-family="Helvetica,sans-Serif" font-size="9.00" fill="#c40b0a">index.js</text>
</a>
</g>
</g>
<!-- node_modules/cuid/index.js -->
<g id="node2" class="node">
<title>node_modules/cuid/index.js</title>
<g id="a_node2"><a xlink:href="node_modules/cuid/index.js" xlink:title="index.js">
<polygon fill="#c40b0a" fill-opacity="0.101961" stroke="#000000" points="697.5,-350 696,-352 685.5,-352 684,-350 643.5,-350 643.5,-332 697.5,-332 697.5,-350"/>
<text text-anchor="middle" x="670.5" y="-338.8" font-family="Helvetica,sans-Serif" font-size="9.00" fill="#c40b0a">index.js</text>
</a>
</g>
</g>
<!-- node_modules/express/index.js -->
<g id="node3" class="node">
<title>node_modules/express/index.js</title>
<g id="a_node3"><a xlink:href="node_modules/express/index.js" xlink:title="index.js">
<polygon fill="#c40b0a" fill-opacity="0.101961" stroke="#000000" points="697.5,-42 696,-44 685.5,-44 684,-42 643.5,-42 643.5,-24 697.5,-24 697.5,-42"/>
<text text-anchor="middle" x="670.5" y="-30.8" font-family="Helvetica,sans-Serif" font-size="9.00" fill="#c40b0a">index.js</text>
</a>
</g>
</g>
<!-- node_modules/pg/lib/index.js -->
<g id="node4" class="node">
<title>node_modules/pg/lib/index.js</title>
<g id="a_node4"><a xlink:href="node_modules/pg/lib/index.js" xlink:title="index.js">
<polygon fill="#c40b0a" fill-opacity="0.101961" stroke="#000000" points="697.5,-264 696,-266 685.5,-266 684,-264 643.5,-264 643.5,-246 697.5,-246 697.5,-264"/>
<text text-anchor="middle" x="670.5" y="-252.8" font-family="Helvetica,sans-Serif" font-size="9.00" fill="#c40b0a">index.js</text>
</a>
</g>
</g>
<!-- node_modules/sanitize&#45;html/dist/sanitize&#45;html.js -->
<g id="node5" class="node">
<title>node_modules/sanitize&#45;html/dist/sanitize&#45;html.js</title>
<g id="a_node5"><a xlink:href="node_modules/sanitize-html/dist/sanitize-html.js" xlink:title="sanitize&#45;html.js">
<polygon fill="#c40b0a" fill-opacity="0.101961" stroke="#000000" points="709,-170 707.5,-172 697,-172 695.5,-170 632,-170 632,-152 709,-152 709,-170"/>
<text text-anchor="middle" x="670.5" y="-158.8" font-family="Helvetica,sans-Serif" font-size="9.00" fill="#c40b0a">sanitize&#45;html.js</text>
</a>
</g>
</g>
<!-- src/Id/index.js -->
<g id="node6" class="node">
<title>src/Id/index.js</title>
<g id="a_node6"><a xlink:href="src/Id/index.js" xlink:title="index.js">
<path fill="#ffffcc" stroke="#000000" d="M552,-502C552,-502 510,-502 510,-502 507,-502 504,-499 504,-496 504,-496 504,-490 504,-490 504,-487 507,-484 510,-484 510,-484 552,-484 552,-484 555,-484 558,-487 558,-490 558,-490 558,-496 558,-496 558,-499 555,-502 552,-502"/>
<text text-anchor="middle" x="531" y="-490.8" font-family="Helvetica,sans-Serif" font-size="9.00" fill="#000000">index.js</text>
</a>
</g>
</g>
<!-- src/Id/index.js&#45;&gt;node_modules/cuid/index.js -->
<g id="edge1" class="edge">
<title>src/Id/index.js&#45;&gt;node_modules/cuid/index.js</title>
<path fill="none" stroke="#000000" stroke-dasharray="5,2" stroke-opacity="0.200000" d="M539.5436,-483.9284C552.6261,-470.017 578.3799,-442.5503 600,-419 620.584,-396.5782 644.2642,-370.2723 658.2737,-354.6553"/>
<polygon fill="#000000" fill-opacity="0.200000" stroke="#000000" stroke-opacity="0.200000" points="659.8552,-356.0373 662.2969,-350.168 656.728,-353.2335 659.8552,-356.0373"/>
</g>
<!-- src/controllers/aux/httpError.js -->
<g id="node7" class="node">
<title>src/controllers/aux/httpError.js</title>
<g id="a_node7"><a xlink:href="src/controllers/aux/httpError.js" xlink:title="httpError.js">
<path fill="#ffffcc" stroke="#000000" d="M361,-108C361,-108 312,-108 312,-108 309,-108 306,-105 306,-102 306,-102 306,-96 306,-96 306,-93 309,-90 312,-90 312,-90 361,-90 361,-90 364,-90 367,-93 367,-96 367,-96 367,-102 367,-102 367,-105 364,-108 361,-108"/>
<text text-anchor="middle" x="336.5" y="-96.8" font-family="Helvetica,sans-Serif" font-size="9.00" fill="#000000">httpError.js</text>
</a>
</g>
</g>
<!-- src/controllers/aux/isSouthOrNorth.js -->
<g id="node8" class="node">
<title>src/controllers/aux/isSouthOrNorth.js</title>
<g id="a_node8"><a xlink:href="src/controllers/aux/isSouthOrNorth.js" xlink:title="isSouthOrNorth.js">
<path fill="#ffffcc" stroke="#000000" d="M375,-138C375,-138 298,-138 298,-138 295,-138 292,-135 292,-132 292,-132 292,-126 292,-126 292,-123 295,-120 298,-120 298,-120 375,-120 375,-120 378,-120 381,-123 381,-126 381,-126 381,-132 381,-132 381,-135 378,-138 375,-138"/>
<text text-anchor="middle" x="336.5" y="-126.8" font-family="Helvetica,sans-Serif" font-size="9.00" fill="#000000">isSouthOrNorth.js</text>
</a>
</g>
</g>
<!-- src/controllers/aux/processSouthern.js -->
<g id="node9" class="node">
<title>src/controllers/aux/processSouthern.js</title>
<g id="a_node9"><a xlink:href="src/controllers/aux/processSouthern.js" xlink:title="processSouthern.js">
<path fill="#ffffcc" stroke="#000000" d="M378,-168C378,-168 295,-168 295,-168 292,-168 289,-165 289,-162 289,-162 289,-156 289,-156 289,-153 292,-150 295,-150 295,-150 378,-150 378,-150 381,-150 384,-153 384,-156 384,-156 384,-162 384,-162 384,-165 381,-168 378,-168"/>
<text text-anchor="middle" x="336.5" y="-156.8" font-family="Helvetica,sans-Serif" font-size="9.00" fill="#000000">processSouthern.js</text>
</a>
</g>
</g>
<!-- src/controllers/friend&#45;endpoint.js -->
<g id="node10" class="node">
<title>src/controllers/friend&#45;endpoint.js</title>
<g id="a_node10"><a xlink:href="src/controllers/friend-endpoint.js" xlink:title="friend&#45;endpoint.js">
<path fill="#ffffcc" stroke="#000000" d="M267,-108C267,-108 191,-108 191,-108 188,-108 185,-105 185,-102 185,-102 185,-96 185,-96 185,-93 188,-90 191,-90 191,-90 267,-90 267,-90 270,-90 273,-93 273,-96 273,-96 273,-102 273,-102 273,-105 270,-108 267,-108"/>
<text text-anchor="middle" x="229" y="-96.8" font-family="Helvetica,sans-Serif" font-size="9.00" fill="#000000">friend&#45;endpoint.js</text>
</a>
</g>
</g>
<!-- src/controllers/friend&#45;endpoint.js&#45;&gt;src/controllers/aux/httpError.js -->
<g id="edge2" class="edge">
<title>src/controllers/friend&#45;endpoint.js&#45;&gt;src/controllers/aux/httpError.js</title>
<path fill="none" stroke="#000000" stroke-width="2" stroke-opacity="0.200000" d="M273.0345,-99C281.8997,-99 291.1296,-99 299.7158,-99"/>
<polygon fill="#000000" fill-opacity="0.200000" stroke="#000000" stroke-width="2" stroke-opacity="0.200000" points="299.8398,-101.1001 305.8398,-99 299.8398,-96.9001 299.8398,-101.1001"/>
</g>
<!-- src/controllers/index.js -->
<g id="node11" class="node">
<title>src/controllers/index.js</title>
<g id="a_node11"><a xlink:href="src/controllers/index.js" xlink:title="index.js">
<path fill="#ffffcc" stroke="#000000" d="M148.5,-123C148.5,-123 106.5,-123 106.5,-123 103.5,-123 100.5,-120 100.5,-117 100.5,-117 100.5,-111 100.5,-111 100.5,-108 103.5,-105 106.5,-105 106.5,-105 148.5,-105 148.5,-105 151.5,-105 154.5,-108 154.5,-111 154.5,-111 154.5,-117 154.5,-117 154.5,-120 151.5,-123 148.5,-123"/>
<text text-anchor="middle" x="127.5" y="-111.8" font-family="Helvetica,sans-Serif" font-size="9.00" fill="#000000">index.js</text>
</a>
</g>
</g>
<!-- src/controllers/index.js&#45;&gt;src/controllers/friend&#45;endpoint.js -->
<g id="edge4" class="edge">
<title>src/controllers/index.js&#45;&gt;src/controllers/friend&#45;endpoint.js</title>
<path fill="none" stroke="#000000" stroke-width="2" stroke-opacity="0.200000" d="M154.7001,-109.9803C162.0936,-108.8876 170.3438,-107.6684 178.5824,-106.4509"/>
<polygon fill="#000000" fill-opacity="0.200000" stroke="#000000" stroke-width="2" stroke-opacity="0.200000" points="179.2373,-108.477 184.8658,-105.5223 178.6232,-104.3221 179.2373,-108.477"/>
</g>
<!-- src/domain/user&#45;service/index.js -->
<g id="node12" class="node">
<title>src/domain/user&#45;service/index.js</title>
<g id="a_node12"><a xlink:href="src/domain/user-service/index.js" xlink:title="index.js">
<path fill="#ffffcc" stroke="#000000" d="M250,-382C250,-382 208,-382 208,-382 205,-382 202,-379 202,-376 202,-376 202,-370 202,-370 202,-367 205,-364 208,-364 208,-364 250,-364 250,-364 253,-364 256,-367 256,-370 256,-370 256,-376 256,-376 256,-379 253,-382 250,-382"/>
<text text-anchor="middle" x="229" y="-370.8" font-family="Helvetica,sans-Serif" font-size="9.00" fill="#000000">index.js</text>
</a>
</g>
</g>
<!-- src/controllers/index.js&#45;&gt;src/domain/user&#45;service/index.js -->
<g id="edge3" class="edge">
<title>src/controllers/index.js&#45;&gt;src/domain/user&#45;service/index.js</title>
<path fill="none" stroke="#000000" stroke-width="2" stroke-opacity="0.200000" d="M131.8632,-123.1016C140.8172,-141.9214 161.7109,-186.5736 177,-225 196.1081,-273.0248 215.4638,-331.1838 224.1981,-358.0567"/>
<polygon fill="#000000" fill-opacity="0.200000" stroke="#000000" stroke-width="2" stroke-opacity="0.200000" points="222.2424,-358.8339 226.0884,-363.8953 226.2382,-357.5401 222.2424,-358.8339"/>
</g>
<!-- src/controllers/user&#45;endpoint.js -->
<g id="node13" class="node">
<title>src/controllers/user&#45;endpoint.js</title>
<g id="a_node13"><a xlink:href="src/controllers/user-endpoint.js" xlink:title="user&#45;endpoint.js">
<path fill="#ffffcc" stroke="#000000" d="M264.5,-138C264.5,-138 193.5,-138 193.5,-138 190.5,-138 187.5,-135 187.5,-132 187.5,-132 187.5,-126 187.5,-126 187.5,-123 190.5,-120 193.5,-120 193.5,-120 264.5,-120 264.5,-120 267.5,-120 270.5,-123 270.5,-126 270.5,-126 270.5,-132 270.5,-132 270.5,-135 267.5,-138 264.5,-138"/>
<text text-anchor="middle" x="229" y="-126.8" font-family="Helvetica,sans-Serif" font-size="9.00" fill="#000000">user&#45;endpoint.js</text>
</a>
</g>
</g>
<!-- src/controllers/index.js&#45;&gt;src/controllers/user&#45;endpoint.js -->
<g id="edge5" class="edge">
<title>src/controllers/index.js&#45;&gt;src/controllers/user&#45;endpoint.js</title>
<path fill="none" stroke="#000000" stroke-width="2" stroke-opacity="0.200000" d="M154.7001,-118.0197C162.8891,-119.2299 172.1291,-120.5954 181.2402,-121.9419"/>
<polygon fill="#000000" fill-opacity="0.200000" stroke="#000000" stroke-width="2" stroke-opacity="0.200000" points="180.9539,-124.0223 187.1965,-122.8221 181.568,-119.8674 180.9539,-124.0223"/>
</g>
<!-- src/db/userdb/index.js -->
<g id="node16" class="node">
<title>src/db/userdb/index.js</title>
<g id="a_node16"><a xlink:href="src/db/userdb/index.js" xlink:title="index.js">
<path fill="#ffffcc" stroke="#000000" d="M357.5,-262C357.5,-262 315.5,-262 315.5,-262 312.5,-262 309.5,-259 309.5,-256 309.5,-256 309.5,-250 309.5,-250 309.5,-247 312.5,-244 315.5,-244 315.5,-244 357.5,-244 357.5,-244 360.5,-244 363.5,-247 363.5,-250 363.5,-250 363.5,-256 363.5,-256 363.5,-259 360.5,-262 357.5,-262"/>
<text text-anchor="middle" x="336.5" y="-250.8" font-family="Helvetica,sans-Serif" font-size="9.00" fill="#000000">index.js</text>
</a>
</g>
</g>
<!-- src/domain/user&#45;service/index.js&#45;&gt;src/db/userdb/index.js -->
<g id="edge16" class="edge">
<title>src/domain/user&#45;service/index.js&#45;&gt;src/db/userdb/index.js</title>
<path fill="none" stroke="#000000" stroke-width="2" stroke-opacity="0.200000" d="M237.08,-363.9805C255.757,-343.1317 302.0156,-291.4942 324.2212,-266.7066"/>
<polygon fill="#000000" fill-opacity="0.200000" stroke="#000000" stroke-width="2" stroke-opacity="0.200000" points="325.8869,-267.9944 328.3263,-262.1242 322.7586,-265.192 325.8869,-267.9944"/>
</g>
<!-- src/domain/user&#45;service/user&#45;actions.js -->
<g id="node20" class="node">
<title>src/domain/user&#45;service/user&#45;actions.js</title>
<g id="a_node20"><a xlink:href="src/domain/user-service/user-actions.js" xlink:title="user&#45;actions.js">
<path fill="#ffffcc" stroke="#000000" d="M368.5,-382C368.5,-382 304.5,-382 304.5,-382 301.5,-382 298.5,-379 298.5,-376 298.5,-376 298.5,-370 298.5,-370 298.5,-367 301.5,-364 304.5,-364 304.5,-364 368.5,-364 368.5,-364 371.5,-364 374.5,-367 374.5,-370 374.5,-370 374.5,-376 374.5,-376 374.5,-379 371.5,-382 368.5,-382"/>
<text text-anchor="middle" x="336.5" y="-370.8" font-family="Helvetica,sans-Serif" font-size="9.00" fill="#000000">user&#45;actions.js</text>
</a>
</g>
</g>
<!-- src/domain/user&#45;service/index.js&#45;&gt;src/domain/user&#45;service/user&#45;actions.js -->
<g id="edge17" class="edge">
<title>src/domain/user&#45;service/index.js&#45;&gt;src/domain/user&#45;service/user&#45;actions.js</title>
<path fill="none" stroke="#000000" stroke-width="2" stroke-opacity="0.200000" d="M256.1268,-373C267.0379,-373 279.9072,-373 292.112,-373"/>
<polygon fill="#000000" fill-opacity="0.200000" stroke="#000000" stroke-width="2" stroke-opacity="0.200000" points="292.4199,-375.1001 298.4199,-373 292.4198,-370.9001 292.4199,-375.1001"/>
</g>
<!-- src/controllers/user&#45;endpoint.js&#45;&gt;src/controllers/aux/httpError.js -->
<g id="edge6" class="edge">
<title>src/controllers/user&#45;endpoint.js&#45;&gt;src/controllers/aux/httpError.js</title>
<path fill="none" stroke="#000000" stroke-width="2" stroke-opacity="0.200000" d="M260.0471,-119.9513C266.9395,-117.9684 274.2129,-115.8959 281,-114 287.1824,-112.273 293.7613,-110.467 300.1471,-108.7307"/>
<polygon fill="#000000" fill-opacity="0.200000" stroke="#000000" stroke-width="2" stroke-opacity="0.200000" points="300.6991,-110.757 305.9406,-107.1601 299.6001,-106.7033 300.6991,-110.757"/>
</g>
<!-- src/controllers/user&#45;endpoint.js&#45;&gt;src/controllers/aux/isSouthOrNorth.js -->
<g id="edge7" class="edge">
<title>src/controllers/user&#45;endpoint.js&#45;&gt;src/controllers/aux/isSouthOrNorth.js</title>
<path fill="none" stroke="#000000" stroke-width="2" stroke-opacity="0.200000" d="M270.5623,-129C275.4643,-129 280.5092,-129 285.5217,-129"/>
<polygon fill="#000000" fill-opacity="0.200000" stroke="#000000" stroke-width="2" stroke-opacity="0.200000" points="285.8406,-131.1001 291.8406,-129 285.8406,-126.9001 285.8406,-131.1001"/>
</g>
<!-- src/controllers/user&#45;endpoint.js&#45;&gt;src/controllers/aux/processSouthern.js -->
<g id="edge8" class="edge">
<title>src/controllers/user&#45;endpoint.js&#45;&gt;src/controllers/aux/processSouthern.js</title>
<path fill="none" stroke="#000000" stroke-width="2" stroke-opacity="0.200000" d="M260.0471,-138.0487C266.9395,-140.0316 274.2129,-142.1041 281,-144 286.0439,-145.409 291.3516,-146.8705 296.6031,-148.3039"/>
<polygon fill="#000000" fill-opacity="0.200000" stroke="#000000" stroke-width="2" stroke-opacity="0.200000" points="296.3821,-150.42 302.723,-149.9687 297.4847,-146.3673 296.3821,-150.42"/>
</g>
<!-- src/db/config.json -->
<g id="node14" class="node">
<title>src/db/config.json</title>
<g id="a_node14"><a xlink:href="src/db/config.json" xlink:title="config.json">
<path fill="#ffee44" stroke="#000000" d="M555.5,-314C555.5,-314 506.5,-314 506.5,-314 503.5,-314 500.5,-311 500.5,-308 500.5,-308 500.5,-302 500.5,-302 500.5,-299 503.5,-296 506.5,-296 506.5,-296 555.5,-296 555.5,-296 558.5,-296 561.5,-299 561.5,-302 561.5,-302 561.5,-308 561.5,-308 561.5,-311 558.5,-314 555.5,-314"/>
<text text-anchor="middle" x="531" y="-302.8" font-family="Helvetica,sans-Serif" font-size="9.00" fill="#000000">config.json</text>
</a>
</g>
</g>
<!-- src/db/index.js -->
<g id="node15" class="node">
<title>src/db/index.js</title>
<g id="a_node15"><a xlink:href="src/db/index.js" xlink:title="index.js">
<path fill="#ffffcc" stroke="#000000" d="M472,-314C472,-314 430,-314 430,-314 427,-314 424,-311 424,-308 424,-308 424,-302 424,-302 424,-299 427,-296 430,-296 430,-296 472,-296 472,-296 475,-296 478,-299 478,-302 478,-302 478,-308 478,-308 478,-311 475,-314 472,-314"/>
<text text-anchor="middle" x="451" y="-302.8" font-family="Helvetica,sans-Serif" font-size="9.00" fill="#000000">index.js</text>
</a>
</g>
</g>
<!-- src/db/index.js&#45;&gt;node_modules/pg/lib/index.js -->
<g id="edge10" class="edge">
<title>src/db/index.js&#45;&gt;node_modules/pg/lib/index.js</title>
<path fill="none" stroke="#000000" stroke-dasharray="5,2" stroke-opacity="0.200000" d="M474.9208,-295.9905C481.0842,-293.8532 487.7442,-291.7024 494,-290 543.2953,-276.5851 601.6376,-266.0263 637.3507,-260.1492"/>
<polygon fill="#000000" fill-opacity="0.200000" stroke="#000000" stroke-opacity="0.200000" points="637.7317,-262.2149 643.3155,-259.1765 637.0557,-258.0696 637.7317,-262.2149"/>
</g>
<!-- src/db/index.js&#45;&gt;src/db/config.json -->
<g id="edge9" class="edge">
<title>src/db/index.js&#45;&gt;src/db/config.json</title>
<path fill="none" stroke="#000000" stroke-width="2" stroke-opacity="0.200000" d="M478.0844,-305C483.2321,-305 488.6995,-305 494.0915,-305"/>
<polygon fill="#000000" fill-opacity="0.200000" stroke="#000000" stroke-width="2" stroke-opacity="0.200000" points="494.363,-307.1001 500.363,-305 494.363,-302.9001 494.363,-307.1001"/>
</g>
<!-- src/db/userdb/index.js&#45;&gt;src/db/index.js -->
<g id="edge11" class="edge">
<title>src/db/userdb/index.js&#45;&gt;src/db/index.js</title>
<path fill="none" stroke="#000000" stroke-width="2" stroke-opacity="0.200000" d="M351.7412,-262.1C365.9639,-270.3485 387.9449,-282.4822 408,-291 411.2405,-292.3763 414.6652,-293.7 418.1101,-294.9473"/>
<polygon fill="#000000" fill-opacity="0.200000" stroke="#000000" stroke-width="2" stroke-opacity="0.200000" points="417.5408,-296.9729 423.8977,-296.9702 418.9266,-293.0081 417.5408,-296.9729"/>
</g>
<!-- src/db/userdb/userdb.js -->
<g id="node17" class="node">
<title>src/db/userdb/userdb.js</title>
<g id="a_node17"><a xlink:href="src/db/userdb/userdb.js" xlink:title="userdb.js">
<path fill="#ffffcc" stroke="#000000" d="M472,-262C472,-262 430,-262 430,-262 427,-262 424,-259 424,-256 424,-256 424,-250 424,-250 424,-247 427,-244 430,-244 430,-244 472,-244 472,-244 475,-244 478,-247 478,-250 478,-250 478,-256 478,-256 478,-259 475,-262 472,-262"/>
<text text-anchor="middle" x="451" y="-250.8" font-family="Helvetica,sans-Serif" font-size="9.00" fill="#000000">userdb.js</text>
</a>
</g>
</g>
<!-- src/db/userdb/index.js&#45;&gt;src/db/userdb/userdb.js -->
<g id="edge12" class="edge">
<title>src/db/userdb/index.js&#45;&gt;src/db/userdb/userdb.js</title>
<path fill="none" stroke="#000000" stroke-width="2" stroke-opacity="0.200000" d="M363.6349,-253C379.773,-253 400.3742,-253 417.518,-253"/>
<polygon fill="#000000" fill-opacity="0.200000" stroke="#000000" stroke-width="2" stroke-opacity="0.200000" points="417.6631,-255.1001 423.6631,-253 417.663,-250.9001 417.6631,-255.1001"/>
</g>
<!-- src/domain/models/user/index.js -->
<g id="node18" class="node">
<title>src/domain/models/user/index.js</title>
<g id="a_node18"><a xlink:href="src/domain/models/user/index.js" xlink:title="index.js">
<path fill="#ffffcc" stroke="#000000" d="M472,-390C472,-390 430,-390 430,-390 427,-390 424,-387 424,-384 424,-384 424,-378 424,-378 424,-375 427,-372 430,-372 430,-372 472,-372 472,-372 475,-372 478,-375 478,-378 478,-378 478,-384 478,-384 478,-387 475,-390 472,-390"/>
<text text-anchor="middle" x="451" y="-378.8" font-family="Helvetica,sans-Serif" font-size="9.00" fill="#000000">index.js</text>
</a>
</g>
</g>
<!-- src/domain/models/user/index.js&#45;&gt;node_modules/sanitize&#45;html/dist/sanitize&#45;html.js -->
<g id="edge15" class="edge">
<title>src/domain/models/user/index.js&#45;&gt;node_modules/sanitize&#45;html/dist/sanitize&#45;html.js</title>
<path fill="none" stroke="#000000" stroke-dasharray="5,2" stroke-opacity="0.200000" d="M462.9915,-371.7698C471.0381,-364.8193 481.0407,-354.536 486,-343 496.3801,-318.8542 478.1925,-245.9973 494,-225 524.8304,-184.0477 584.3903,-169.2581 625.7466,-163.9417"/>
<polygon fill="#000000" fill-opacity="0.200000" stroke="#000000" stroke-opacity="0.200000" points="626.0045,-166.0259 631.7107,-163.224 625.5027,-161.8559 626.0045,-166.0259"/>
</g>
<!-- src/domain/models/user/index.js&#45;&gt;src/Id/index.js -->
<g id="edge13" class="edge">
<title>src/domain/models/user/index.js&#45;&gt;src/Id/index.js</title>
<path fill="none" stroke="#000000" stroke-width="2" stroke-opacity="0.200000" d="M457.5467,-390.1654C471.4934,-409.6908 504.2172,-455.5041 520.8743,-478.824"/>
<polygon fill="#000000" fill-opacity="0.200000" stroke="#000000" stroke-width="2" stroke-opacity="0.200000" points="519.1665,-480.0461 524.3628,-483.7079 522.5842,-477.6049 519.1665,-480.0461"/>
</g>
<!-- src/domain/models/user/userFactory.js -->
<g id="node19" class="node">
<title>src/domain/models/user/userFactory.js</title>
<g id="a_node19"><a xlink:href="src/domain/models/user/userFactory.js" xlink:title="userFactory.js">
<path fill="#ffffcc" stroke="#000000" d="M562,-390C562,-390 500,-390 500,-390 497,-390 494,-387 494,-384 494,-384 494,-378 494,-378 494,-375 497,-372 500,-372 500,-372 562,-372 562,-372 565,-372 568,-375 568,-378 568,-378 568,-384 568,-384 568,-387 565,-390 562,-390"/>
<text text-anchor="middle" x="531" y="-378.8" font-family="Helvetica,sans-Serif" font-size="9.00" fill="#000000">userFactory.js</text>
</a>
</g>
</g>
<!-- src/domain/models/user/index.js&#45;&gt;src/domain/models/user/userFactory.js -->
<g id="edge14" class="edge">
<title>src/domain/models/user/index.js&#45;&gt;src/domain/models/user/userFactory.js</title>
<path fill="none" stroke="#000000" stroke-width="2" stroke-opacity="0.200000" d="M478.0844,-381C481.0988,-381 484.2228,-381 487.3771,-381"/>
<polygon fill="#000000" fill-opacity="0.200000" stroke="#000000" stroke-width="2" stroke-opacity="0.200000" points="487.8689,-383.1001 493.8689,-381 487.8689,-378.9001 487.8689,-383.1001"/>
</g>
<!-- src/domain/user&#45;service/user&#45;actions.js&#45;&gt;src/domain/models/user/index.js -->
<g id="edge18" class="edge">
<title>src/domain/user&#45;service/user&#45;actions.js&#45;&gt;src/domain/models/user/index.js</title>
<path fill="none" stroke="#000000" stroke-width="2" stroke-opacity="0.200000" d="M374.6268,-375.6639C388.6177,-376.6414 404.3301,-377.7392 417.8492,-378.6838"/>
<polygon fill="#000000" fill-opacity="0.200000" stroke="#000000" stroke-width="2" stroke-opacity="0.200000" points="417.7605,-380.7826 423.8923,-379.106 418.0533,-376.5928 417.7605,-380.7826"/>
</g>
<!-- src/helpers/adaptRequest.js -->
<g id="node21" class="node">
<title>src/helpers/adaptRequest.js</title>
<g id="a_node21"><a xlink:href="src/helpers/adaptRequest.js" xlink:title="adaptRequest.js">
<path fill="#ffffcc" stroke="#000000" d="M163,-254C163,-254 92,-254 92,-254 89,-254 86,-251 86,-248 86,-248 86,-242 86,-242 86,-239 89,-236 92,-236 92,-236 163,-236 163,-236 166,-236 169,-239 169,-242 169,-242 169,-248 169,-248 169,-251 166,-254 163,-254"/>
<text text-anchor="middle" x="127.5" y="-242.8" font-family="Helvetica,sans-Serif" font-size="9.00" fill="#000000">adaptRequest.js</text>
</a>
</g>
</g>
<!-- src/index.js -->
<g id="node22" class="node">
<title>src/index.js</title>
<g id="a_node22"><a xlink:href="src/index.js" xlink:title="index.js">
<path fill="#ffffcc" stroke="#000000" d="M64,-100C64,-100 22,-100 22,-100 19,-100 16,-97 16,-94 16,-94 16,-88 16,-88 16,-85 19,-82 22,-82 22,-82 64,-82 64,-82 67,-82 70,-85 70,-88 70,-88 70,-94 70,-94 70,-97 67,-100 64,-100"/>
<text text-anchor="middle" x="43" y="-88.8" font-family="Helvetica,sans-Serif" font-size="9.00" fill="#000000">index.js</text>
</a>
</g>
</g>
<!-- src/index.js&#45;&gt;node_modules/body&#45;parser/index.js -->
<g id="edge21" class="edge">
<title>src/index.js&#45;&gt;node_modules/body&#45;parser/index.js</title>
<path fill="none" stroke="#000000" stroke-dasharray="5,2" stroke-opacity="0.200000" d="M55.6673,-81.9527C62.056,-77.8738 70.1087,-73.4344 78,-71 142.3312,-51.1546 161.6773,-59 229,-59 229,-59 229,-59 451,-59 517.7094,-59 594.4932,-74.5257 637.2738,-84.5941"/>
<polygon fill="#000000" fill-opacity="0.200000" stroke="#000000" stroke-opacity="0.200000" points="637.0103,-86.6901 643.3337,-86.0375 637.9836,-82.6044 637.0103,-86.6901"/>
</g>
<!-- src/index.js&#45;&gt;node_modules/express/index.js -->
<g id="edge22" class="edge">
<title>src/index.js&#45;&gt;node_modules/express/index.js</title>
<path fill="none" stroke="#000000" stroke-dasharray="5,2" stroke-opacity="0.200000" d="M49.0001,-81.6975C55.1589,-72.9924 65.5803,-60.3978 78,-54 138.2348,-22.9713 161.243,-33 229,-33 229,-33 229,-33 451,-33 517.1048,-33 594.4081,-33 637.3807,-33"/>
<polygon fill="#000000" fill-opacity="0.200000" stroke="#000000" stroke-opacity="0.200000" points="637.4665,-35.1001 643.4664,-33 637.4664,-30.9001 637.4665,-35.1001"/>
</g>
<!-- src/index.js&#45;&gt;src/controllers/index.js -->
<g id="edge19" class="edge">
<title>src/index.js&#45;&gt;src/controllers/index.js</title>
<path fill="none" stroke="#000000" stroke-width="2" stroke-opacity="0.200000" d="M70.2015,-98.4039C77.8907,-100.4969 86.3449,-102.798 94.3427,-104.9749"/>
<polygon fill="#000000" fill-opacity="0.200000" stroke="#000000" stroke-width="2" stroke-opacity="0.200000" points="94.0086,-107.0603 100.3495,-106.6099 95.1117,-103.0078 94.0086,-107.0603"/>
</g>
<!-- src/index.js&#45;&gt;src/helpers/adaptRequest.js -->
<g id="edge20" class="edge">
<title>src/index.js&#45;&gt;src/helpers/adaptRequest.js</title>
<path fill="none" stroke="#000000" stroke-width="2" stroke-opacity="0.200000" d="M44.3601,-100.0376C48.5189,-126.6354 61.7743,-203.9644 78,-223 81.4201,-227.0124 85.7163,-230.3225 90.3406,-233.0455"/>
<polygon fill="#000000" fill-opacity="0.200000" stroke="#000000" stroke-width="2" stroke-opacity="0.200000" points="89.6015,-235.0302 95.8872,-235.9793 91.5653,-231.3176 89.6015,-235.0302"/>
</g>
</g>
</svg>
