<?xml version="1.0" encoding="UTF-8" standalone="no"?>
<!DOCTYPE svg PUBLIC "-//W3C//DTD SVG 1.1//EN"
 "http://www.w3.org/Graphics/SVG/1.1/DTD/svg11.dtd">
<!-- Generated by graphviz version 2.40.1 (20161225.0304)
 -->
<!-- Title: dependency&#45;cruiser output Pages: 1 -->
<svg width="636pt" height="690pt"
 viewBox="0.00 0.00 636.00 690.00" xmlns="http://www.w3.org/2000/svg" xmlns:xlink="http://www.w3.org/1999/xlink">
<g id="graph0" class="graph" transform="scale(1 1) rotate(0) translate(4 686)">
<title>dependency&#45;cruiser output</title>
<polygon fill="#ffffff" stroke="transparent" points="-4,4 -4,-686 632,-686 632,4 -4,4"/>
<g id="clust1" class="cluster">
<title>cluster_node_modules</title>
<path fill="#ffffff" stroke="#000000" stroke-width="2" d="M507,-8C507,-8 608,-8 608,-8 614,-8 620,-14 620,-20 620,-20 620,-390 620,-390 620,-396 614,-402 608,-402 608,-402 507,-402 507,-402 501,-402 495,-396 495,-390 495,-390 495,-20 495,-20 495,-14 501,-8 507,-8"/>
<text text-anchor="middle" x="557.5" y="-390.8" font-family="Helvetica,sans-Serif" font-weight="bold" font-size="9.00" fill="#000000">node_modules</text>
</g>
<g id="clust2" class="cluster">
<title>cluster_node_modules/body&#45;parser</title>
<path fill="#ffffff" stroke="#000000" stroke-width="2" d="M534.5,-76C534.5,-76 580.5,-76 580.5,-76 586.5,-76 592.5,-82 592.5,-88 592.5,-88 592.5,-116 592.5,-116 592.5,-122 586.5,-128 580.5,-128 580.5,-128 534.5,-128 534.5,-128 528.5,-128 522.5,-122 522.5,-116 522.5,-116 522.5,-88 522.5,-88 522.5,-82 528.5,-76 534.5,-76"/>
<text text-anchor="middle" x="557.5" y="-116.8" font-family="Helvetica,sans-Serif" font-weight="bold" font-size="9.00" fill="#000000">body&#45;parser</text>
</g>
<g id="clust3" class="cluster">
<title>cluster_node_modules/cuid</title>
<path fill="#ffffff" stroke="#000000" stroke-width="2" d="M534.5,-324C534.5,-324 580.5,-324 580.5,-324 586.5,-324 592.5,-330 592.5,-336 592.5,-336 592.5,-364 592.5,-364 592.5,-370 586.5,-376 580.5,-376 580.5,-376 534.5,-376 534.5,-376 528.5,-376 522.5,-370 522.5,-364 522.5,-364 522.5,-336 522.5,-336 522.5,-330 528.5,-324 534.5,-324"/>
<text text-anchor="middle" x="557.5" y="-364.8" font-family="Helvetica,sans-Serif" font-weight="bold" font-size="9.00" fill="#000000">cuid</text>
</g>
<g id="clust4" class="cluster">
<title>cluster_node_modules/express</title>
<path fill="#ffffff" stroke="#000000" stroke-width="2" d="M534.5,-16C534.5,-16 580.5,-16 580.5,-16 586.5,-16 592.5,-22 592.5,-28 592.5,-28 592.5,-56 592.5,-56 592.5,-62 586.5,-68 580.5,-68 580.5,-68 534.5,-68 534.5,-68 528.5,-68 522.5,-62 522.5,-56 522.5,-56 522.5,-28 522.5,-28 522.5,-22 528.5,-16 534.5,-16"/>
<text text-anchor="middle" x="557.5" y="-56.8" font-family="Helvetica,sans-Serif" font-weight="bold" font-size="9.00" fill="#000000">express</text>
</g>
<g id="clust5" class="cluster">
<title>cluster_node_modules/pg</title>
<path fill="#ffffff" stroke="#000000" stroke-width="2" d="M526.5,-136C526.5,-136 588.5,-136 588.5,-136 594.5,-136 600.5,-142 600.5,-148 600.5,-148 600.5,-210 600.5,-210 600.5,-216 594.5,-222 588.5,-222 588.5,-222 526.5,-222 526.5,-222 520.5,-222 514.5,-216 514.5,-210 514.5,-210 514.5,-148 514.5,-148 514.5,-142 520.5,-136 526.5,-136"/>
<text text-anchor="middle" x="557.5" y="-210.8" font-family="Helvetica,sans-Serif" font-weight="bold" font-size="9.00" fill="#000000">pg</text>
</g>
<g id="clust6" class="cluster">
<title>cluster_node_modules/pg/lib</title>
<path fill="#ffffff" stroke="#000000" stroke-width="2" d="M534.5,-144C534.5,-144 580.5,-144 580.5,-144 586.5,-144 592.5,-150 592.5,-156 592.5,-156 592.5,-184 592.5,-184 592.5,-190 586.5,-196 580.5,-196 580.5,-196 534.5,-196 534.5,-196 528.5,-196 522.5,-190 522.5,-184 522.5,-184 522.5,-156 522.5,-156 522.5,-150 528.5,-144 534.5,-144"/>
<text text-anchor="middle" x="557.5" y="-184.8" font-family="Helvetica,sans-Serif" font-weight="bold" font-size="9.00" fill="#000000">lib</text>
</g>
<g id="clust7" class="cluster">
<title>cluster_node_modules/sanitize&#45;html</title>
<path fill="#ffffff" stroke="#000000" stroke-width="2" d="M515,-230C515,-230 600,-230 600,-230 606,-230 612,-236 612,-242 612,-242 612,-304 612,-304 612,-310 606,-316 600,-316 600,-316 515,-316 515,-316 509,-316 503,-310 503,-304 503,-304 503,-242 503,-242 503,-236 509,-230 515,-230"/>
<text text-anchor="middle" x="557.5" y="-304.8" font-family="Helvetica,sans-Serif" font-weight="bold" font-size="9.00" fill="#000000">sanitize&#45;html</text>
</g>
<g id="clust8" class="cluster">
<title>cluster_node_modules/sanitize&#45;html/dist</title>
<path fill="#ffffff" stroke="#000000" stroke-width="2" d="M523,-238C523,-238 592,-238 592,-238 598,-238 604,-244 604,-250 604,-250 604,-278 604,-278 604,-284 598,-290 592,-290 592,-290 523,-290 523,-290 517,-290 511,-284 511,-278 511,-278 511,-250 511,-250 511,-244 517,-238 523,-238"/>
<text text-anchor="middle" x="557.5" y="-278.8" font-family="Helvetica,sans-Serif" font-weight="bold" font-size="9.00" fill="#000000">dist</text>
</g>
<g id="clust9" class="cluster">
<title>cluster_src</title>
<path fill="#ffffff" stroke="#000000" stroke-width="2" d="M20,-100C20,-100 475,-100 475,-100 481,-100 487,-106 487,-112 487,-112 487,-662 487,-662 487,-668 481,-674 475,-674 475,-674 20,-674 20,-674 14,-674 8,-668 8,-662 8,-662 8,-112 8,-112 8,-106 14,-100 20,-100"/>
<text text-anchor="middle" x="247.5" y="-662.8" font-family="Helvetica,sans-Serif" font-weight="bold" font-size="9.00" fill="#000000">src</text>
</g>
<g id="clust10" class="cluster">
<title>cluster_src/controllers</title>
<path fill="#ffffff" stroke="#000000" stroke-width="2" d="M98,-450C98,-450 245,-450 245,-450 251,-450 257,-456 257,-462 257,-462 257,-520 257,-520 257,-526 251,-532 245,-532 245,-532 98,-532 98,-532 92,-532 86,-526 86,-520 86,-520 86,-462 86,-462 86,-456 92,-450 98,-450"/>
<text text-anchor="middle" x="171.5" y="-520.8" font-family="Helvetica,sans-Serif" font-weight="bold" font-size="9.00" fill="#000000">controllers</text>
</g>
<g id="clust11" class="cluster">
<title>cluster_src/db</title>
<path fill="#ffffff" stroke="#000000" stroke-width="2" d="M90,-108C90,-108 342.5,-108 342.5,-108 348.5,-108 354.5,-114 354.5,-120 354.5,-120 354.5,-208 354.5,-208 354.5,-214 348.5,-220 342.5,-220 342.5,-220 90,-220 90,-220 84,-220 78,-214 78,-208 78,-208 78,-120 78,-120 78,-114 84,-108 90,-108"/>
<text text-anchor="middle" x="216.25" y="-208.8" font-family="Helvetica,sans-Serif" font-weight="bold" font-size="9.00" fill="#000000">db</text>
</g>
<g id="clust12" class="cluster">
<title>cluster_src/db/userdb</title>
<path fill="#ffffff" stroke="#000000" stroke-width="2" d="M98,-142C98,-142 228,-142 228,-142 234,-142 240,-148 240,-154 240,-154 240,-182 240,-182 240,-188 234,-194 228,-194 228,-194 98,-194 98,-194 92,-194 86,-188 86,-182 86,-182 86,-154 86,-154 86,-148 92,-142 98,-142"/>
<text text-anchor="middle" x="163" y="-182.8" font-family="Helvetica,sans-Serif" font-weight="bold" font-size="9.00" fill="#000000">userdb</text>
</g>
<g id="clust13" class="cluster">
<title>cluster_src/domain</title>
<path fill="#ffffff" stroke="#000000" stroke-width="2" d="M277,-228C277,-228 467,-228 467,-228 473,-228 479,-234 479,-240 479,-240 479,-396 479,-396 479,-402 473,-408 467,-408 467,-408 277,-408 277,-408 271,-408 265,-402 265,-396 265,-396 265,-240 265,-240 265,-234 271,-228 277,-228"/>
<text text-anchor="middle" x="372" y="-396.8" font-family="Helvetica,sans-Serif" font-weight="bold" font-size="9.00" fill="#000000">domain</text>
</g>
<g id="clust14" class="cluster">
<title>cluster_src/domain/models</title>
<path fill="#ffffff" stroke="#000000" stroke-width="2" d="M285,-296C285,-296 459,-296 459,-296 465,-296 471,-302 471,-308 471,-308 471,-370 471,-370 471,-376 465,-382 459,-382 459,-382 285,-382 285,-382 279,-382 273,-376 273,-370 273,-370 273,-308 273,-308 273,-302 279,-296 285,-296"/>
<text text-anchor="middle" x="372" y="-370.8" font-family="Helvetica,sans-Serif" font-weight="bold" font-size="9.00" fill="#000000">models</text>
</g>
<g id="clust15" class="cluster">
<title>cluster_src/domain/models/user</title>
<path fill="#ffffff" stroke="#000000" stroke-width="2" d="M293,-304C293,-304 451,-304 451,-304 457,-304 463,-310 463,-316 463,-316 463,-344 463,-344 463,-350 457,-356 451,-356 451,-356 293,-356 293,-356 287,-356 281,-350 281,-344 281,-344 281,-316 281,-316 281,-310 287,-304 293,-304"/>
<text text-anchor="middle" x="372" y="-344.8" font-family="Helvetica,sans-Serif" font-weight="bold" font-size="9.00" fill="#000000">user</text>
</g>
<g id="clust16" class="cluster">
<title>cluster_src/domain/user&#45;service</title>
<path fill="#ffffff" stroke="#000000" stroke-width="2" d="M293,-236C293,-236 452,-236 452,-236 458,-236 464,-242 464,-248 464,-248 464,-276 464,-276 464,-282 458,-288 452,-288 452,-288 293,-288 293,-288 287,-288 281,-282 281,-276 281,-276 281,-248 281,-248 281,-242 287,-236 293,-236"/>
<text text-anchor="middle" x="372.5" y="-276.8" font-family="Helvetica,sans-Serif" font-weight="bold" font-size="9.00" fill="#000000">user&#45;service</text>
</g>
<g id="clust17" class="cluster">
<title>cluster_src/helpers</title>
<path fill="#ffffff" stroke="#000000" stroke-width="2" d="M374.5,-416C374.5,-416 461.5,-416 461.5,-416 467.5,-416 473.5,-422 473.5,-428 473.5,-428 473.5,-636 473.5,-636 473.5,-642 467.5,-648 461.5,-648 461.5,-648 374.5,-648 374.5,-648 368.5,-648 362.5,-642 362.5,-636 362.5,-636 362.5,-428 362.5,-428 362.5,-422 368.5,-416 374.5,-416"/>
<text text-anchor="middle" x="418" y="-636.8" font-family="Helvetica,sans-Serif" font-weight="bold" font-size="9.00" fill="#000000">helpers</text>
</g>
<g id="clust18" class="cluster">
<title>cluster_src/helpers/Id</title>
<path fill="#ffffff" stroke="#000000" stroke-width="2" d="M395,-424C395,-424 441,-424 441,-424 447,-424 453,-430 453,-436 453,-436 453,-464 453,-464 453,-470 447,-476 441,-476 441,-476 395,-476 395,-476 389,-476 383,-470 383,-464 383,-464 383,-436 383,-436 383,-430 389,-424 395,-424"/>
<text text-anchor="middle" x="418" y="-464.8" font-family="Helvetica,sans-Serif" font-weight="bold" font-size="9.00" fill="#000000">Id</text>
</g>
<!-- node_modules/body&#45;parser/index.js -->
<g id="node1" class="node">
<title>node_modules/body&#45;parser/index.js</title>
<g id="a_node1"><a xlink:href="node_modules/body-parser/index.js" xlink:title="index.js">
<polygon fill="#c40b0a" fill-opacity="0.101961" stroke="#000000" points="584.5,-102 583,-104 572.5,-104 571,-102 530.5,-102 530.5,-84 584.5,-84 584.5,-102"/>
<text text-anchor="middle" x="557.5" y="-90.8" font-family="Helvetica,sans-Serif" font-size="9.00" fill="#c40b0a">index.js</text>
</a>
</g>
</g>
<!-- node_modules/cuid/index.js -->
<g id="node2" class="node">
<title>node_modules/cuid/index.js</title>
<g id="a_node2"><a xlink:href="node_modules/cuid/index.js" xlink:title="index.js">
<polygon fill="#c40b0a" fill-opacity="0.101961" stroke="#000000" points="584.5,-350 583,-352 572.5,-352 571,-350 530.5,-350 530.5,-332 584.5,-332 584.5,-350"/>
<text text-anchor="middle" x="557.5" y="-338.8" font-family="Helvetica,sans-Serif" font-size="9.00" fill="#c40b0a">index.js</text>
</a>
</g>
</g>
<!-- node_modules/express/index.js -->
<g id="node3" class="node">
<title>node_modules/express/index.js</title>
<g id="a_node3"><a xlink:href="node_modules/express/index.js" xlink:title="index.js">
<polygon fill="#c40b0a" fill-opacity="0.101961" stroke="#000000" points="584.5,-42 583,-44 572.5,-44 571,-42 530.5,-42 530.5,-24 584.5,-24 584.5,-42"/>
<text text-anchor="middle" x="557.5" y="-30.8" font-family="Helvetica,sans-Serif" font-size="9.00" fill="#c40b0a">index.js</text>
</a>
</g>
</g>
<!-- node_modules/pg/lib/index.js -->
<g id="node4" class="node">
<title>node_modules/pg/lib/index.js</title>
<g id="a_node4"><a xlink:href="node_modules/pg/lib/index.js" xlink:title="index.js">
<polygon fill="#c40b0a" fill-opacity="0.101961" stroke="#000000" points="584.5,-170 583,-172 572.5,-172 571,-170 530.5,-170 530.5,-152 584.5,-152 584.5,-170"/>
<text text-anchor="middle" x="557.5" y="-158.8" font-family="Helvetica,sans-Serif" font-size="9.00" fill="#c40b0a">index.js</text>
</a>
</g>
</g>
<!-- node_modules/sanitize&#45;html/dist/sanitize&#45;html.js -->
<g id="node5" class="node">
<title>node_modules/sanitize&#45;html/dist/sanitize&#45;html.js</title>
<g id="a_node5"><a xlink:href="node_modules/sanitize-html/dist/sanitize-html.js" xlink:title="sanitize&#45;html.js">
<polygon fill="#c40b0a" fill-opacity="0.101961" stroke="#000000" points="596,-264 594.5,-266 584,-266 582.5,-264 519,-264 519,-246 596,-246 596,-264"/>
<text text-anchor="middle" x="557.5" y="-252.8" font-family="Helvetica,sans-Serif" font-size="9.00" fill="#c40b0a">sanitize&#45;html.js</text>
</a>
</g>
</g>
<!-- src/controllers/friend&#45;endpoint.js -->
<g id="node6" class="node">
<title>src/controllers/friend&#45;endpoint.js</title>
<g id="a_node6"><a xlink:href="src/controllers/friend-endpoint.js" xlink:title="friend&#45;endpoint.js">
<path fill="#ffffcc" stroke="#000000" d="M243,-476C243,-476 167,-476 167,-476 164,-476 161,-473 161,-470 161,-470 161,-464 161,-464 161,-461 164,-458 167,-458 167,-458 243,-458 243,-458 246,-458 249,-461 249,-464 249,-464 249,-470 249,-470 249,-473 246,-476 243,-476"/>
<text text-anchor="middle" x="205" y="-464.8" font-family="Helvetica,sans-Serif" font-size="9.00" fill="#000000">friend&#45;endpoint.js</text>
</a>
</g>
</g>
<!-- src/domain/models/user/index.js -->
<g id="node7" class="node">
<title>src/domain/models/user/index.js</title>
<g id="a_node7"><a xlink:href="src/domain/models/user/index.js" xlink:title="index.js">
<path fill="#ffffcc" stroke="#000000" d="M337,-330C337,-330 295,-330 295,-330 292,-330 289,-327 289,-324 289,-324 289,-318 289,-318 289,-315 292,-312 295,-312 295,-312 337,-312 337,-312 340,-312 343,-315 343,-318 343,-318 343,-324 343,-324 343,-327 340,-330 337,-330"/>
<text text-anchor="middle" x="316" y="-318.8" font-family="Helvetica,sans-Serif" font-size="9.00" fill="#000000">index.js</text>
</a>
</g>
</g>
<!-- src/controllers/friend&#45;endpoint.js&#45;&gt;src/domain/models/user/index.js -->
<g id="edge1" class="edge">
<title>src/controllers/friend&#45;endpoint.js&#45;&gt;src/domain/models/user/index.js</title>
<path fill="none" stroke="#000000" stroke-width="2" stroke-opacity="0.200000" d="M211.9435,-457.867C230.7096,-433.1837 282.5473,-365.0008 305.1862,-335.2235"/>
<polygon fill="#000000" fill-opacity="0.200000" stroke="#000000" stroke-width="2" stroke-opacity="0.200000" points="307.0994,-336.1768 309.0591,-330.1295 303.756,-333.6349 307.0994,-336.1768"/>
</g>
<!-- src/helpers/httpError.js -->
<g id="node8" class="node">
<title>src/helpers/httpError.js</title>
<g id="a_node8"><a xlink:href="src/helpers/httpError.js" xlink:title="httpError.js">
<path fill="#ffffcc" stroke="#000000" d="M442.5,-502C442.5,-502 393.5,-502 393.5,-502 390.5,-502 387.5,-499 387.5,-496 387.5,-496 387.5,-490 387.5,-490 387.5,-487 390.5,-484 393.5,-484 393.5,-484 442.5,-484 442.5,-484 445.5,-484 448.5,-487 448.5,-490 448.5,-490 448.5,-496 448.5,-496 448.5,-499 445.5,-502 442.5,-502"/>
<text text-anchor="middle" x="418" y="-490.8" font-family="Helvetica,sans-Serif" font-size="9.00" fill="#000000">httpError.js</text>
</a>
</g>
</g>
<!-- src/controllers/friend&#45;endpoint.js&#45;&gt;src/helpers/httpError.js -->
<g id="edge2" class="edge">
<title>src/controllers/friend&#45;endpoint.js&#45;&gt;src/helpers/httpError.js</title>
<path fill="none" stroke="#000000" stroke-width="2" stroke-opacity="0.200000" d="M249.0095,-468.9458C278.8853,-470.6549 319.2203,-473.7204 354.5,-479 363.2992,-480.3168 372.699,-482.1497 381.4956,-484.0562"/>
<polygon fill="#000000" fill-opacity="0.200000" stroke="#000000" stroke-width="2" stroke-opacity="0.200000" points="381.1619,-486.1331 387.4744,-485.3823 382.0715,-482.0328 381.1619,-486.1331"/>
</g>
<!-- src/helpers/unpack.js -->
<g id="node9" class="node">
<title>src/helpers/unpack.js</title>
<g id="a_node9"><a xlink:href="src/helpers/unpack.js" xlink:title="unpack.js">
<path fill="#ffffcc" stroke="#000000" d="M440,-532C440,-532 396,-532 396,-532 393,-532 390,-529 390,-526 390,-526 390,-520 390,-520 390,-517 393,-514 396,-514 396,-514 440,-514 440,-514 443,-514 446,-517 446,-520 446,-520 446,-526 446,-526 446,-529 443,-532 440,-532"/>
<text text-anchor="middle" x="418" y="-520.8" font-family="Helvetica,sans-Serif" font-size="9.00" fill="#000000">unpack.js</text>
</a>
</g>
</g>
<!-- src/controllers/friend&#45;endpoint.js&#45;&gt;src/helpers/unpack.js -->
<g id="edge3" class="edge">
<title>src/controllers/friend&#45;endpoint.js&#45;&gt;src/helpers/unpack.js</title>
<path fill="none" stroke="#000000" stroke-width="2" stroke-opacity="0.200000" d="M249.0652,-475.8761C289.6851,-484.2442 345.0726,-496.1967 354.5,-501 358.7096,-503.1448 358.3345,-505.7707 362.5,-508 369.1001,-511.5323 376.5965,-514.2823 383.8976,-516.4053"/>
<polygon fill="#000000" fill-opacity="0.200000" stroke="#000000" stroke-width="2" stroke-opacity="0.200000" points="383.6205,-518.5057 389.9607,-518.0445 384.7167,-514.4512 383.6205,-518.5057"/>
</g>
<!-- src/domain/models/user/index.js&#45;&gt;node_modules/sanitize&#45;html/dist/sanitize&#45;html.js -->
<g id="edge19" class="edge">
<title>src/domain/models/user/index.js&#45;&gt;node_modules/sanitize&#45;html/dist/sanitize&#45;html.js</title>
<path fill="none" stroke="#000000" stroke-dasharray="5,2" stroke-opacity="0.200000" d="M333.1477,-311.7974C340.9361,-306.7132 349.5061,-299.6625 354.5,-291 367.4965,-268.4561 342.8829,-250.097 362.5,-233 411.4592,-190.3302 495.6276,-223.4051 535.4231,-243.0806"/>
<polygon fill="#000000" fill-opacity="0.200000" stroke="#000000" stroke-opacity="0.200000" points="534.6604,-245.0478 540.9632,-245.8757 536.5523,-241.2981 534.6604,-245.0478"/>
</g>
<!-- src/helpers/Id/index.js -->
<g id="node19" class="node">
<title>src/helpers/Id/index.js</title>
<g id="a_node19"><a xlink:href="src/helpers/Id/index.js" xlink:title="index.js">
<path fill="#ffffcc" stroke="#000000" d="M439,-450C439,-450 397,-450 397,-450 394,-450 391,-447 391,-444 391,-444 391,-438 391,-438 391,-435 394,-432 397,-432 397,-432 439,-432 439,-432 442,-432 445,-435 445,-438 445,-438 445,-444 445,-444 445,-447 442,-450 439,-450"/>
<text text-anchor="middle" x="418" y="-438.8" font-family="Helvetica,sans-Serif" font-size="9.00" fill="#000000">index.js</text>
</a>
</g>
</g>
<!-- src/domain/models/user/index.js&#45;&gt;src/helpers/Id/index.js -->
<g id="edge17" class="edge">
<title>src/domain/models/user/index.js&#45;&gt;src/helpers/Id/index.js</title>
<path fill="none" stroke="#000000" stroke-width="2" stroke-opacity="0.200000" d="M323.6666,-330.0195C341.388,-350.8683 385.28,-402.5058 406.3494,-427.2934"/>
<polygon fill="#000000" fill-opacity="0.200000" stroke="#000000" stroke-width="2" stroke-opacity="0.200000" points="404.7585,-428.6642 410.2445,-431.8758 407.9586,-425.9441 404.7585,-428.6642"/>
</g>
<!-- src/domain/models/user/userFactory.js -->
<g id="node20" class="node">
<title>src/domain/models/user/userFactory.js</title>
<g id="a_node20"><a xlink:href="src/domain/models/user/userFactory.js" xlink:title="userFactory.js">
<path fill="#ffffcc" stroke="#000000" d="M449,-330C449,-330 387,-330 387,-330 384,-330 381,-327 381,-324 381,-324 381,-318 381,-318 381,-315 384,-312 387,-312 387,-312 449,-312 449,-312 452,-312 455,-315 455,-318 455,-318 455,-324 455,-324 455,-327 452,-330 449,-330"/>
<text text-anchor="middle" x="418" y="-318.8" font-family="Helvetica,sans-Serif" font-size="9.00" fill="#000000">userFactory.js</text>
</a>
</g>
</g>
<!-- src/domain/models/user/index.js&#45;&gt;src/domain/models/user/userFactory.js -->
<g id="edge18" class="edge">
<title>src/domain/models/user/index.js&#45;&gt;src/domain/models/user/userFactory.js</title>
<path fill="none" stroke="#000000" stroke-width="2" stroke-opacity="0.200000" d="M343.0663,-321C352.7363,-321 363.8909,-321 374.5897,-321"/>
<polygon fill="#000000" fill-opacity="0.200000" stroke="#000000" stroke-width="2" stroke-opacity="0.200000" points="374.8217,-323.1001 380.8217,-321 374.8217,-318.9001 374.8217,-323.1001"/>
</g>
<!-- src/controllers/index.js -->
<g id="node10" class="node">
<title>src/controllers/index.js</title>
<g id="a_node10"><a xlink:href="src/controllers/index.js" xlink:title="index.js">
<path fill="#ffffcc" stroke="#000000" d="M142,-476C142,-476 100,-476 100,-476 97,-476 94,-473 94,-470 94,-470 94,-464 94,-464 94,-461 97,-458 100,-458 100,-458 142,-458 142,-458 145,-458 148,-461 148,-464 148,-464 148,-470 148,-470 148,-473 145,-476 142,-476"/>
<text text-anchor="middle" x="121" y="-464.8" font-family="Helvetica,sans-Serif" font-size="9.00" fill="#000000">index.js</text>
</a>
</g>
</g>
<!-- src/controllers/index.js&#45;&gt;src/controllers/friend&#45;endpoint.js -->
<g id="edge5" class="edge">
<title>src/controllers/index.js&#45;&gt;src/controllers/friend&#45;endpoint.js</title>
<path fill="none" stroke="#000000" stroke-width="2" stroke-opacity="0.200000" d="M148.0405,-467C150.2317,-467 152.4854,-467 154.773,-467"/>
<polygon fill="#000000" fill-opacity="0.200000" stroke="#000000" stroke-width="2" stroke-opacity="0.200000" points="154.8879,-469.1001 160.8878,-467 154.8878,-464.9001 154.8879,-469.1001"/>
</g>
<!-- src/domain/user&#45;service/index.js -->
<g id="node11" class="node">
<title>src/domain/user&#45;service/index.js</title>
<g id="a_node11"><a xlink:href="src/domain/user-service/index.js" xlink:title="index.js">
<path fill="#ffffcc" stroke="#000000" d="M337,-262C337,-262 295,-262 295,-262 292,-262 289,-259 289,-256 289,-256 289,-250 289,-250 289,-247 292,-244 295,-244 295,-244 337,-244 337,-244 340,-244 343,-247 343,-250 343,-250 343,-256 343,-256 343,-259 340,-262 337,-262"/>
<text text-anchor="middle" x="316" y="-250.8" font-family="Helvetica,sans-Serif" font-size="9.00" fill="#000000">index.js</text>
</a>
</g>
</g>
<!-- src/controllers/index.js&#45;&gt;src/domain/user&#45;service/index.js -->
<g id="edge4" class="edge">
<title>src/controllers/index.js&#45;&gt;src/domain/user&#45;service/index.js</title>
<path fill="none" stroke="#000000" stroke-width="2" stroke-opacity="0.200000" d="M128.4921,-457.7176C149.3261,-432.0506 210.0363,-358.2392 265,-301 276.685,-288.8313 290.6851,-275.753 301.0584,-266.3257"/>
<polygon fill="#000000" fill-opacity="0.200000" stroke="#000000" stroke-width="2" stroke-opacity="0.200000" points="302.505,-267.8489 305.5479,-262.2676 299.6885,-264.7331 302.505,-267.8489"/>
</g>
<!-- src/controllers/user&#45;endpoint.js -->
<g id="node12" class="node">
<title>src/controllers/user&#45;endpoint.js</title>
<g id="a_node12"><a xlink:href="src/controllers/user-endpoint.js" xlink:title="user&#45;endpoint.js">
<path fill="#ffffcc" stroke="#000000" d="M240.5,-506C240.5,-506 169.5,-506 169.5,-506 166.5,-506 163.5,-503 163.5,-500 163.5,-500 163.5,-494 163.5,-494 163.5,-491 166.5,-488 169.5,-488 169.5,-488 240.5,-488 240.5,-488 243.5,-488 246.5,-491 246.5,-494 246.5,-494 246.5,-500 246.5,-500 246.5,-503 243.5,-506 240.5,-506"/>
<text text-anchor="middle" x="205" y="-494.8" font-family="Helvetica,sans-Serif" font-size="9.00" fill="#000000">user&#45;endpoint.js</text>
</a>
</g>
</g>
<!-- src/controllers/index.js&#45;&gt;src/controllers/user&#45;endpoint.js -->
<g id="edge6" class="edge">
<title>src/controllers/index.js&#45;&gt;src/controllers/user&#45;endpoint.js</title>
<path fill="none" stroke="#000000" stroke-width="2" stroke-opacity="0.200000" d="M144.6458,-476.0021C150.0115,-478.0072 155.6929,-480.1008 161,-482 164.5904,-483.2849 168.3543,-484.6064 172.1054,-485.9074"/>
<polygon fill="#000000" fill-opacity="0.200000" stroke="#000000" stroke-width="2" stroke-opacity="0.200000" points="171.6058,-487.9564 177.9627,-487.9265 172.9747,-483.9857 171.6058,-487.9564"/>
</g>
<!-- src/db/userdb/index.js -->
<g id="node17" class="node">
<title>src/db/userdb/index.js</title>
<g id="a_node17"><a xlink:href="src/db/userdb/index.js" xlink:title="index.js">
<path fill="#ffffcc" stroke="#000000" d="M142,-168C142,-168 100,-168 100,-168 97,-168 94,-165 94,-162 94,-162 94,-156 94,-156 94,-153 97,-150 100,-150 100,-150 142,-150 142,-150 145,-150 148,-153 148,-156 148,-156 148,-162 148,-162 148,-165 145,-168 142,-168"/>
<text text-anchor="middle" x="121" y="-156.8" font-family="Helvetica,sans-Serif" font-size="9.00" fill="#000000">index.js</text>
</a>
</g>
</g>
<!-- src/domain/user&#45;service/index.js&#45;&gt;src/db/userdb/index.js -->
<g id="edge20" class="edge">
<title>src/domain/user&#45;service/index.js&#45;&gt;src/db/userdb/index.js</title>
<path fill="none" stroke="#000000" stroke-width="2" stroke-opacity="0.200000" d="M297.0727,-243.8761C261.4596,-226.7087 184.5403,-189.6297 145.217,-170.6738"/>
<polygon fill="#000000" fill-opacity="0.200000" stroke="#000000" stroke-width="2" stroke-opacity="0.200000" points="146.0141,-168.7269 139.6974,-168.0131 144.1903,-172.5102 146.0141,-168.7269"/>
</g>
<!-- src/domain/user&#45;service/user&#45;actions.js -->
<g id="node21" class="node">
<title>src/domain/user&#45;service/user&#45;actions.js</title>
<g id="a_node21"><a xlink:href="src/domain/user-service/user-actions.js" xlink:title="user&#45;actions.js">
<path fill="#ffffcc" stroke="#000000" d="M450,-262C450,-262 386,-262 386,-262 383,-262 380,-259 380,-256 380,-256 380,-250 380,-250 380,-247 383,-244 386,-244 386,-244 450,-244 450,-244 453,-244 456,-247 456,-250 456,-250 456,-256 456,-256 456,-259 453,-262 450,-262"/>
<text text-anchor="middle" x="418" y="-250.8" font-family="Helvetica,sans-Serif" font-size="9.00" fill="#000000">user&#45;actions.js</text>
</a>
</g>
</g>
<!-- src/domain/user&#45;service/index.js&#45;&gt;src/domain/user&#45;service/user&#45;actions.js -->
<g id="edge21" class="edge">
<title>src/domain/user&#45;service/index.js&#45;&gt;src/domain/user&#45;service/user&#45;actions.js</title>
<path fill="none" stroke="#000000" stroke-width="2" stroke-opacity="0.200000" d="M343.0663,-253C352.4403,-253 363.2094,-253 373.606,-253"/>
<polygon fill="#000000" fill-opacity="0.200000" stroke="#000000" stroke-width="2" stroke-opacity="0.200000" points="373.6709,-255.1001 379.6709,-253 373.6709,-250.9001 373.6709,-255.1001"/>
</g>
<!-- src/controllers/user&#45;endpoint.js&#45;&gt;src/domain/models/user/index.js -->
<g id="edge7" class="edge">
<title>src/controllers/user&#45;endpoint.js&#45;&gt;src/domain/models/user/index.js</title>
<path fill="none" stroke="#000000" stroke-width="2" stroke-opacity="0.200000" d="M246.6973,-488.9759C250.4547,-487.1114 253.9756,-484.8186 257,-482 299.9,-442.0196 311.7125,-368.2385 314.8789,-336.3477"/>
<polygon fill="#000000" fill-opacity="0.200000" stroke="#000000" stroke-width="2" stroke-opacity="0.200000" points="316.9853,-336.3697 315.4314,-330.2056 312.8022,-335.9933 316.9853,-336.3697"/>
</g>
<!-- src/controllers/user&#45;endpoint.js&#45;&gt;src/helpers/httpError.js -->
<g id="edge8" class="edge">
<title>src/controllers/user&#45;endpoint.js&#45;&gt;src/helpers/httpError.js</title>
<path fill="none" stroke="#000000" stroke-width="2" stroke-opacity="0.200000" d="M246.5742,-496.2193C285.6007,-495.4864 343.4366,-494.4003 380.9277,-493.6962"/>
<polygon fill="#000000" fill-opacity="0.200000" stroke="#000000" stroke-width="2" stroke-opacity="0.200000" points="381.2631,-495.7904 387.2226,-493.578 381.1842,-491.5911 381.2631,-495.7904"/>
</g>
<!-- src/controllers/user&#45;endpoint.js&#45;&gt;src/helpers/unpack.js -->
<g id="edge11" class="edge">
<title>src/controllers/user&#45;endpoint.js&#45;&gt;src/helpers/unpack.js</title>
<path fill="none" stroke="#000000" stroke-width="2" stroke-opacity="0.200000" d="M246.5742,-502.0748C286.5163,-506.9503 346.1606,-514.2309 383.5323,-518.7927"/>
<polygon fill="#000000" fill-opacity="0.200000" stroke="#000000" stroke-width="2" stroke-opacity="0.200000" points="383.5763,-520.9136 389.7865,-519.5561 384.0852,-516.7445 383.5763,-520.9136"/>
</g>
<!-- src/helpers/isSouthOrNorth.js -->
<g id="node13" class="node">
<title>src/helpers/isSouthOrNorth.js</title>
<g id="a_node13"><a xlink:href="src/helpers/isSouthOrNorth.js" xlink:title="isSouthOrNorth.js">
<path fill="#ffffcc" stroke="#000000" d="M456.5,-562C456.5,-562 379.5,-562 379.5,-562 376.5,-562 373.5,-559 373.5,-556 373.5,-556 373.5,-550 373.5,-550 373.5,-547 376.5,-544 379.5,-544 379.5,-544 456.5,-544 456.5,-544 459.5,-544 462.5,-547 462.5,-550 462.5,-550 462.5,-556 462.5,-556 462.5,-559 459.5,-562 456.5,-562"/>
<text text-anchor="middle" x="418" y="-550.8" font-family="Helvetica,sans-Serif" font-size="9.00" fill="#000000">isSouthOrNorth.js</text>
</a>
</g>
</g>
<!-- src/controllers/user&#45;endpoint.js&#45;&gt;src/helpers/isSouthOrNorth.js -->
<g id="edge9" class="edge">
<title>src/controllers/user&#45;endpoint.js&#45;&gt;src/helpers/isSouthOrNorth.js</title>
<path fill="none" stroke="#000000" stroke-width="2" stroke-opacity="0.200000" d="M243.1943,-506.0188C247.8668,-507.2778 252.5576,-508.6167 257,-510 260.6256,-511.129 261.3805,-511.8516 265,-513 300.9423,-524.4041 342.3567,-535.0849 373.0264,-542.536"/>
<polygon fill="#000000" fill-opacity="0.200000" stroke="#000000" stroke-width="2" stroke-opacity="0.200000" points="372.6869,-544.6143 379.0123,-543.9824 373.6734,-540.5318 372.6869,-544.6143"/>
</g>
<!-- src/helpers/processSouthern.js -->
<g id="node14" class="node">
<title>src/helpers/processSouthern.js</title>
<g id="a_node14"><a xlink:href="src/helpers/processSouthern.js" xlink:title="processSouthern.js">
<path fill="#ffffcc" stroke="#000000" d="M459.5,-592C459.5,-592 376.5,-592 376.5,-592 373.5,-592 370.5,-589 370.5,-586 370.5,-586 370.5,-580 370.5,-580 370.5,-577 373.5,-574 376.5,-574 376.5,-574 459.5,-574 459.5,-574 462.5,-574 465.5,-577 465.5,-580 465.5,-580 465.5,-586 465.5,-586 465.5,-589 462.5,-592 459.5,-592"/>
<text text-anchor="middle" x="418" y="-580.8" font-family="Helvetica,sans-Serif" font-size="9.00" fill="#000000">processSouthern.js</text>
</a>
</g>
</g>
<!-- src/controllers/user&#45;endpoint.js&#45;&gt;src/helpers/processSouthern.js -->
<g id="edge10" class="edge">
<title>src/controllers/user&#45;endpoint.js&#45;&gt;src/helpers/processSouthern.js</title>
<path fill="none" stroke="#000000" stroke-width="2" stroke-opacity="0.200000" d="M246.5238,-503.4977C250.315,-505.2026 253.8912,-507.3354 257,-510 263.9567,-515.9628 258.4631,-522.5798 265,-529 298.2976,-561.7031 318.2308,-553.2197 362.5,-568 366.8935,-569.4669 371.5178,-570.8948 376.145,-572.2498"/>
<polygon fill="#000000" fill-opacity="0.200000" stroke="#000000" stroke-width="2" stroke-opacity="0.200000" points="375.6441,-574.2907 381.9905,-573.9244 376.8009,-570.2531 375.6441,-574.2907"/>
</g>
<!-- src/db/config.json -->
<g id="node15" class="node">
<title>src/db/config.json</title>
<g id="a_node15"><a xlink:href="src/db/config.json" xlink:title="config.json">
<path fill="#ffee44" stroke="#000000" d="M340.5,-162C340.5,-162 291.5,-162 291.5,-162 288.5,-162 285.5,-159 285.5,-156 285.5,-156 285.5,-150 285.5,-150 285.5,-147 288.5,-144 291.5,-144 291.5,-144 340.5,-144 340.5,-144 343.5,-144 346.5,-147 346.5,-150 346.5,-150 346.5,-156 346.5,-156 346.5,-159 343.5,-162 340.5,-162"/>
<text text-anchor="middle" x="316" y="-150.8" font-family="Helvetica,sans-Serif" font-size="9.00" fill="#000000">config.json</text>
</a>
</g>
</g>
<!-- src/db/index.js -->
<g id="node16" class="node">
<title>src/db/index.js</title>
<g id="a_node16"><a xlink:href="src/db/index.js" xlink:title="index.js">
<path fill="#ffffcc" stroke="#000000" d="M226,-134C226,-134 184,-134 184,-134 181,-134 178,-131 178,-128 178,-128 178,-122 178,-122 178,-119 181,-116 184,-116 184,-116 226,-116 226,-116 229,-116 232,-119 232,-122 232,-122 232,-128 232,-128 232,-131 229,-134 226,-134"/>
<text text-anchor="middle" x="205" y="-122.8" font-family="Helvetica,sans-Serif" font-size="9.00" fill="#000000">index.js</text>
</a>
</g>
</g>
<!-- src/db/index.js&#45;&gt;node_modules/pg/lib/index.js -->
<g id="edge13" class="edge">
<title>src/db/index.js&#45;&gt;node_modules/pg/lib/index.js</title>
<path fill="none" stroke="#000000" stroke-dasharray="5,2" stroke-opacity="0.200000" d="M232.0273,-127.1369C261.9855,-129.5552 311.7267,-133.7179 354.5,-138 414.2974,-143.9864 483.8653,-152.1238 524.0758,-156.9425"/>
<polygon fill="#000000" fill-opacity="0.200000" stroke="#000000" stroke-opacity="0.200000" points="524.0637,-159.056 530.2713,-157.6865 524.5645,-154.886 524.0637,-159.056"/>
</g>
<!-- src/db/index.js&#45;&gt;src/db/config.json -->
<g id="edge12" class="edge">
<title>src/db/index.js&#45;&gt;src/db/config.json</title>
<path fill="none" stroke="#000000" stroke-width="2" stroke-opacity="0.200000" d="M232.1537,-131.8496C246.3189,-135.4228 263.8518,-139.8455 279.2169,-143.7214"/>
<polygon fill="#000000" fill-opacity="0.200000" stroke="#000000" stroke-width="2" stroke-opacity="0.200000" points="278.8767,-145.8013 285.2082,-145.2327 279.9041,-141.7289 278.8767,-145.8013"/>
</g>
<!-- src/db/userdb/index.js&#45;&gt;src/db/index.js -->
<g id="edge14" class="edge">
<title>src/db/userdb/index.js&#45;&gt;src/db/index.js</title>
<path fill="none" stroke="#000000" stroke-width="2" stroke-opacity="0.200000" d="M137.8597,-149.8396C144.8982,-146.2084 153.2312,-142.1558 161,-139 164.5092,-137.5745 168.2219,-136.1983 171.9435,-134.9018"/>
<polygon fill="#000000" fill-opacity="0.200000" stroke="#000000" stroke-width="2" stroke-opacity="0.200000" points="172.758,-136.8433 177.771,-132.9342 171.4145,-132.864 172.758,-136.8433"/>
</g>
<!-- src/db/userdb/userdb.js -->
<g id="node18" class="node">
<title>src/db/userdb/userdb.js</title>
<g id="a_node18"><a xlink:href="src/db/userdb/userdb.js" xlink:title="userdb.js">
<path fill="#ffffcc" stroke="#000000" d="M226,-168C226,-168 184,-168 184,-168 181,-168 178,-165 178,-162 178,-162 178,-156 178,-156 178,-153 181,-150 184,-150 184,-150 226,-150 226,-150 229,-150 232,-153 232,-156 232,-156 232,-162 232,-162 232,-165 229,-168 226,-168"/>
<text text-anchor="middle" x="205" y="-156.8" font-family="Helvetica,sans-Serif" font-size="9.00" fill="#000000">userdb.js</text>
</a>
</g>
</g>
<!-- src/db/userdb/index.js&#45;&gt;src/db/userdb/userdb.js -->
<g id="edge15" class="edge">
<title>src/db/userdb/index.js&#45;&gt;src/db/userdb/userdb.js</title>
<path fill="none" stroke="#000000" stroke-width="2" stroke-opacity="0.200000" d="M148.0405,-159C155.4594,-159 163.5947,-159 171.3362,-159"/>
<polygon fill="#000000" fill-opacity="0.200000" stroke="#000000" stroke-width="2" stroke-opacity="0.200000" points="171.7222,-161.1001 177.7222,-159 171.7221,-156.9001 171.7222,-161.1001"/>
</g>
<!-- src/db/userdb/userdb.js&#45;&gt;src/domain/models/user/index.js -->
<g id="edge16" class="edge">
<title>src/db/userdb/userdb.js&#45;&gt;src/domain/models/user/index.js</title>
<path fill="none" stroke="#000000" stroke-width="2" stroke-opacity="0.200000" d="M207.0846,-168.0623C212.7697,-191.0723 230.477,-252.6437 265,-291 271.5329,-298.2582 280.2464,-304.2627 288.6203,-308.9437"/>
<polygon fill="#000000" fill-opacity="0.200000" stroke="#000000" stroke-width="2" stroke-opacity="0.200000" points="288.0476,-311.0169 294.3323,-311.9721 290.0149,-307.3062 288.0476,-311.0169"/>
</g>
<!-- src/helpers/Id/index.js&#45;&gt;node_modules/cuid/index.js -->
<g id="edge22" class="edge">
<title>src/helpers/Id/index.js&#45;&gt;node_modules/cuid/index.js</title>
<path fill="none" stroke="#000000" stroke-dasharray="5,2" stroke-opacity="0.200000" d="M430.8738,-431.7715C455.892,-413.8373 511.1171,-374.2494 539.653,-353.7936"/>
<polygon fill="#000000" fill-opacity="0.200000" stroke="#000000" stroke-opacity="0.200000" points="541.0043,-355.4087 544.6573,-350.2062 538.5573,-351.9952 541.0043,-355.4087"/>
</g>
<!-- src/helpers/adaptRequest.js -->
<g id="node22" class="node">
<title>src/helpers/adaptRequest.js</title>
<g id="a_node22"><a xlink:href="src/helpers/adaptRequest.js" xlink:title="adaptRequest.js">
<path fill="#ffffcc" stroke="#000000" d="M453.5,-622C453.5,-622 382.5,-622 382.5,-622 379.5,-622 376.5,-619 376.5,-616 376.5,-616 376.5,-610 376.5,-610 376.5,-607 379.5,-604 382.5,-604 382.5,-604 453.5,-604 453.5,-604 456.5,-604 459.5,-607 459.5,-610 459.5,-610 459.5,-616 459.5,-616 459.5,-619 456.5,-622 453.5,-622"/>
<text text-anchor="middle" x="418" y="-610.8" font-family="Helvetica,sans-Serif" font-size="9.00" fill="#000000">adaptRequest.js</text>
</a>
</g>
</g>
<!-- src/index.js -->
<g id="node23" class="node">
<title>src/index.js</title>
<g id="a_node23"><a xlink:href="src/index.js" xlink:title="index.js">
<path fill="#ffffcc" stroke="#000000" d="M64,-299C64,-299 22,-299 22,-299 19,-299 16,-296 16,-293 16,-293 16,-287 16,-287 16,-284 19,-281 22,-281 22,-281 64,-281 64,-281 67,-281 70,-284 70,-287 70,-287 70,-293 70,-293 70,-296 67,-299 64,-299"/>
<text text-anchor="middle" x="43" y="-287.8" font-family="Helvetica,sans-Serif" font-size="9.00" fill="#000000">index.js</text>
</a>
</g>
</g>
<!-- src/index.js&#45;&gt;node_modules/body&#45;parser/index.js -->
<g id="edge25" class="edge">
<title>src/index.js&#45;&gt;node_modules/body&#45;parser/index.js</title>
<path fill="none" stroke="#000000" stroke-dasharray="5,2" stroke-opacity="0.200000" d="M44.0106,-280.9114C47.4205,-251.7139 59.343,-160.9319 78,-139 116.8982,-93.2739 144.9671,-93 205,-93 205,-93 205,-93 316,-93 390.4329,-93 477.77,-93 524.3187,-93"/>
<polygon fill="#000000" fill-opacity="0.200000" stroke="#000000" stroke-opacity="0.200000" points="524.337,-95.1001 530.337,-93 524.337,-90.9001 524.337,-95.1001"/>
</g>
<!-- src/index.js&#45;&gt;node_modules/express/index.js -->
<g id="edge26" class="edge">
<title>src/index.js&#45;&gt;node_modules/express/index.js</title>
<path fill="none" stroke="#000000" stroke-dasharray="5,2" stroke-opacity="0.200000" d="M43.4281,-280.6516C45.2184,-245.5075 53.2039,-121.8438 78,-93 116.8477,-47.8108 145.408,-50 205,-50 205,-50 205,-50 316,-50 390.617,-50 477.8829,-41.8246 524.3706,-36.8127"/>
<polygon fill="#000000" fill-opacity="0.200000" stroke="#000000" stroke-opacity="0.200000" points="524.6436,-38.8954 530.3808,-36.1577 524.1886,-34.7201 524.6436,-38.8954"/>
</g>
<!-- src/index.js&#45;&gt;src/controllers/index.js -->
<g id="edge23" class="edge">
<title>src/index.js&#45;&gt;src/controllers/index.js</title>
<path fill="none" stroke="#000000" stroke-width="2" stroke-opacity="0.200000" d="M46.9753,-299.0208C59.5944,-327.6566 98.8344,-416.7011 114.4719,-452.1863"/>
<polygon fill="#000000" fill-opacity="0.200000" stroke="#000000" stroke-width="2" stroke-opacity="0.200000" points="112.5979,-453.1415 116.9392,-457.7851 116.4413,-451.4477 112.5979,-453.1415"/>
</g>
<!-- src/index.js&#45;&gt;src/helpers/adaptRequest.js -->
<g id="edge24" class="edge">
<title>src/index.js&#45;&gt;src/helpers/adaptRequest.js</title>
<path fill="none" stroke="#000000" stroke-width="2" stroke-opacity="0.200000" d="M43.6957,-299.1252C47.001,-341.435 61.6393,-517.2108 78,-535 153.3639,-616.9441 295.8151,-621.4225 370.1415,-617.4353"/>
<polygon fill="#000000" fill-opacity="0.200000" stroke="#000000" stroke-width="2" stroke-opacity="0.200000" points="370.3775,-619.5252 376.2455,-617.0805 370.1337,-615.3323 370.3775,-619.5252"/>
</g>
</g>
</svg>
