<?xml version="1.0" encoding="UTF-8" standalone="no"?>
<!DOCTYPE svg PUBLIC "-//W3C//DTD SVG 1.1//EN"
 "http://www.w3.org/Graphics/SVG/1.1/DTD/svg11.dtd">
<!-- Generated by graphviz version 2.40.1 (20161225.0304)
 -->
<!-- Title: dependency&#45;cruiser output Pages: 1 -->
<svg width="763pt" height="570pt"
 viewBox="0.00 0.00 762.50 570.00" xmlns="http://www.w3.org/2000/svg" xmlns:xlink="http://www.w3.org/1999/xlink">
<g id="graph0" class="graph" transform="scale(1 1) rotate(0) translate(4 566)">
<title>dependency&#45;cruiser output</title>
<polygon fill="#ffffff" stroke="transparent" points="-4,4 -4,-566 758.5,-566 758.5,4 -4,4"/>
<g id="clust1" class="cluster">
<title>cluster_node_modules</title>
<path fill="#ffffff" stroke="#000000" stroke-width="2" d="M633.5,-8C633.5,-8 734.5,-8 734.5,-8 740.5,-8 746.5,-14 746.5,-20 746.5,-20 746.5,-390 746.5,-390 746.5,-396 740.5,-402 734.5,-402 734.5,-402 633.5,-402 633.5,-402 627.5,-402 621.5,-396 621.5,-390 621.5,-390 621.5,-20 621.5,-20 621.5,-14 627.5,-8 633.5,-8"/>
<text text-anchor="middle" x="684" y="-390.8" font-family="Helvetica,sans-Serif" font-weight="bold" font-size="9.00" fill="#000000">node_modules</text>
</g>
<g id="clust2" class="cluster">
<title>cluster_node_modules/body&#45;parser</title>
<path fill="#ffffff" stroke="#000000" stroke-width="2" d="M661,-76C661,-76 707,-76 707,-76 713,-76 719,-82 719,-88 719,-88 719,-116 719,-116 719,-122 713,-128 707,-128 707,-128 661,-128 661,-128 655,-128 649,-122 649,-116 649,-116 649,-88 649,-88 649,-82 655,-76 661,-76"/>
<text text-anchor="middle" x="684" y="-116.8" font-family="Helvetica,sans-Serif" font-weight="bold" font-size="9.00" fill="#000000">body&#45;parser</text>
</g>
<g id="clust3" class="cluster">
<title>cluster_node_modules/cuid</title>
<path fill="#ffffff" stroke="#000000" stroke-width="2" d="M661,-324C661,-324 707,-324 707,-324 713,-324 719,-330 719,-336 719,-336 719,-364 719,-364 719,-370 713,-376 707,-376 707,-376 661,-376 661,-376 655,-376 649,-370 649,-364 649,-364 649,-336 649,-336 649,-330 655,-324 661,-324"/>
<text text-anchor="middle" x="684" y="-364.8" font-family="Helvetica,sans-Serif" font-weight="bold" font-size="9.00" fill="#000000">cuid</text>
</g>
<g id="clust4" class="cluster">
<title>cluster_node_modules/express</title>
<path fill="#ffffff" stroke="#000000" stroke-width="2" d="M661,-16C661,-16 707,-16 707,-16 713,-16 719,-22 719,-28 719,-28 719,-56 719,-56 719,-62 713,-68 707,-68 707,-68 661,-68 661,-68 655,-68 649,-62 649,-56 649,-56 649,-28 649,-28 649,-22 655,-16 661,-16"/>
<text text-anchor="middle" x="684" y="-56.8" font-family="Helvetica,sans-Serif" font-weight="bold" font-size="9.00" fill="#000000">express</text>
</g>
<g id="clust5" class="cluster">
<title>cluster_node_modules/pg</title>
<path fill="#ffffff" stroke="#000000" stroke-width="2" d="M653,-230C653,-230 715,-230 715,-230 721,-230 727,-236 727,-242 727,-242 727,-304 727,-304 727,-310 721,-316 715,-316 715,-316 653,-316 653,-316 647,-316 641,-310 641,-304 641,-304 641,-242 641,-242 641,-236 647,-230 653,-230"/>
<text text-anchor="middle" x="684" y="-304.8" font-family="Helvetica,sans-Serif" font-weight="bold" font-size="9.00" fill="#000000">pg</text>
</g>
<g id="clust6" class="cluster">
<title>cluster_node_modules/pg/lib</title>
<path fill="#ffffff" stroke="#000000" stroke-width="2" d="M661,-238C661,-238 707,-238 707,-238 713,-238 719,-244 719,-250 719,-250 719,-278 719,-278 719,-284 713,-290 707,-290 707,-290 661,-290 661,-290 655,-290 649,-284 649,-278 649,-278 649,-250 649,-250 649,-244 655,-238 661,-238"/>
<text text-anchor="middle" x="684" y="-278.8" font-family="Helvetica,sans-Serif" font-weight="bold" font-size="9.00" fill="#000000">lib</text>
</g>
<g id="clust7" class="cluster">
<title>cluster_node_modules/sanitize&#45;html</title>
<path fill="#ffffff" stroke="#000000" stroke-width="2" d="M641.5,-136C641.5,-136 726.5,-136 726.5,-136 732.5,-136 738.5,-142 738.5,-148 738.5,-148 738.5,-210 738.5,-210 738.5,-216 732.5,-222 726.5,-222 726.5,-222 641.5,-222 641.5,-222 635.5,-222 629.5,-216 629.5,-210 629.5,-210 629.5,-148 629.5,-148 629.5,-142 635.5,-136 641.5,-136"/>
<text text-anchor="middle" x="684" y="-210.8" font-family="Helvetica,sans-Serif" font-weight="bold" font-size="9.00" fill="#000000">sanitize&#45;html</text>
</g>
<g id="clust8" class="cluster">
<title>cluster_node_modules/sanitize&#45;html/dist</title>
<path fill="#ffffff" stroke="#000000" stroke-width="2" d="M649.5,-144C649.5,-144 718.5,-144 718.5,-144 724.5,-144 730.5,-150 730.5,-156 730.5,-156 730.5,-184 730.5,-184 730.5,-190 724.5,-196 718.5,-196 718.5,-196 649.5,-196 649.5,-196 643.5,-196 637.5,-190 637.5,-184 637.5,-184 637.5,-156 637.5,-156 637.5,-150 643.5,-144 649.5,-144"/>
<text text-anchor="middle" x="684" y="-184.8" font-family="Helvetica,sans-Serif" font-weight="bold" font-size="9.00" fill="#000000">dist</text>
</g>
<g id="clust9" class="cluster">
<title>cluster_src</title>
<path fill="#ffffff" stroke="#000000" stroke-width="2" d="M20,-66C20,-66 601.5,-66 601.5,-66 607.5,-66 613.5,-72 613.5,-78 613.5,-78 613.5,-542 613.5,-542 613.5,-548 607.5,-554 601.5,-554 601.5,-554 20,-554 20,-554 14,-554 8,-548 8,-542 8,-542 8,-78 8,-78 8,-72 14,-66 20,-66"/>
<text text-anchor="middle" x="310.75" y="-542.8" font-family="Helvetica,sans-Serif" font-weight="bold" font-size="9.00" fill="#000000">src</text>
</g>
<g id="clust10" class="cluster">
<title>cluster_src/Id</title>
<path fill="#ffffff" stroke="#000000" stroke-width="2" d="M521.5,-356C521.5,-356 567.5,-356 567.5,-356 573.5,-356 579.5,-362 579.5,-368 579.5,-368 579.5,-396 579.5,-396 579.5,-402 573.5,-408 567.5,-408 567.5,-408 521.5,-408 521.5,-408 515.5,-408 509.5,-402 509.5,-396 509.5,-396 509.5,-368 509.5,-368 509.5,-362 515.5,-356 521.5,-356"/>
<text text-anchor="middle" x="544.5" y="-396.8" font-family="Helvetica,sans-Serif" font-weight="bold" font-size="9.00" fill="#000000">Id</text>
</g>
<g id="clust11" class="cluster">
<title>cluster_src/controllers</title>
<path fill="#ffffff" stroke="#000000" stroke-width="2" d="M110,-74C110,-74 401.5,-74 401.5,-74 407.5,-74 413.5,-80 413.5,-86 413.5,-86 413.5,-208 413.5,-208 413.5,-214 407.5,-220 401.5,-220 401.5,-220 110,-220 110,-220 104,-220 98,-214 98,-208 98,-208 98,-86 98,-86 98,-80 104,-74 110,-74"/>
<text text-anchor="middle" x="255.75" y="-208.8" font-family="Helvetica,sans-Serif" font-weight="bold" font-size="9.00" fill="#000000">controllers</text>
</g>
<g id="clust12" class="cluster">
<title>cluster_src/controllers/aux</title>
<path fill="#ffffff" stroke="#000000" stroke-width="2" d="M306.5,-82C306.5,-82 393.5,-82 393.5,-82 399.5,-82 405.5,-88 405.5,-94 405.5,-94 405.5,-182 405.5,-182 405.5,-188 399.5,-194 393.5,-194 393.5,-194 306.5,-194 306.5,-194 300.5,-194 294.5,-188 294.5,-182 294.5,-182 294.5,-94 294.5,-94 294.5,-88 300.5,-82 306.5,-82"/>
<text text-anchor="middle" x="350" y="-182.8" font-family="Helvetica,sans-Serif" font-weight="bold" font-size="9.00" fill="#000000">aux</text>
</g>
<g id="clust13" class="cluster">
<title>cluster_src/db</title>
<path fill="#ffffff" stroke="#000000" stroke-width="2" d="M319,-416C319,-416 571,-416 571,-416 577,-416 583,-422 583,-428 583,-428 583,-516 583,-516 583,-522 577,-528 571,-528 571,-528 319,-528 319,-528 313,-528 307,-522 307,-516 307,-516 307,-428 307,-428 307,-422 313,-416 319,-416"/>
<text text-anchor="middle" x="445" y="-516.8" font-family="Helvetica,sans-Serif" font-weight="bold" font-size="9.00" fill="#000000">db</text>
</g>
<g id="clust14" class="cluster">
<title>cluster_src/db/userdb</title>
<path fill="#ffffff" stroke="#000000" stroke-width="2" d="M327,-424C327,-424 487.5,-424 487.5,-424 493.5,-424 499.5,-430 499.5,-436 499.5,-436 499.5,-464 499.5,-464 499.5,-470 493.5,-476 487.5,-476 487.5,-476 327,-476 327,-476 321,-476 315,-470 315,-464 315,-464 315,-436 315,-436 315,-430 321,-424 327,-424"/>
<text text-anchor="middle" x="407.25" y="-464.8" font-family="Helvetica,sans-Serif" font-weight="bold" font-size="9.00" fill="#000000">userdb</text>
</g>
<g id="clust15" class="cluster">
<title>cluster_src/domain</title>
<path fill="#ffffff" stroke="#000000" stroke-width="2" d="M206,-228C206,-228 593.5,-228 593.5,-228 599.5,-228 605.5,-234 605.5,-240 605.5,-240 605.5,-336 605.5,-336 605.5,-342 599.5,-348 593.5,-348 593.5,-348 206,-348 206,-348 200,-348 194,-342 194,-336 194,-336 194,-240 194,-240 194,-234 200,-228 206,-228"/>
<text text-anchor="middle" x="399.75" y="-336.8" font-family="Helvetica,sans-Serif" font-weight="bold" font-size="9.00" fill="#000000">domain</text>
</g>
<g id="clust16" class="cluster">
<title>cluster_src/domain/models</title>
<path fill="#ffffff" stroke="#000000" stroke-width="2" d="M433.5,-236C433.5,-236 585.5,-236 585.5,-236 591.5,-236 597.5,-242 597.5,-248 597.5,-248 597.5,-310 597.5,-310 597.5,-316 591.5,-322 585.5,-322 585.5,-322 433.5,-322 433.5,-322 427.5,-322 421.5,-316 421.5,-310 421.5,-310 421.5,-248 421.5,-248 421.5,-242 427.5,-236 433.5,-236"/>
<text text-anchor="middle" x="509.5" y="-310.8" font-family="Helvetica,sans-Serif" font-weight="bold" font-size="9.00" fill="#000000">models</text>
</g>
<g id="clust17" class="cluster">
<title>cluster_src/domain/models/user</title>
<path fill="#ffffff" stroke="#000000" stroke-width="2" d="M441.5,-244C441.5,-244 577.5,-244 577.5,-244 583.5,-244 589.5,-250 589.5,-256 589.5,-256 589.5,-284 589.5,-284 589.5,-290 583.5,-296 577.5,-296 577.5,-296 441.5,-296 441.5,-296 435.5,-296 429.5,-290 429.5,-284 429.5,-284 429.5,-256 429.5,-256 429.5,-250 435.5,-244 441.5,-244"/>
<text text-anchor="middle" x="509.5" y="-284.8" font-family="Helvetica,sans-Serif" font-weight="bold" font-size="9.00" fill="#000000">user</text>
</g>
<g id="clust18" class="cluster">
<title>cluster_src/domain/user&#45;service</title>
<path fill="#ffffff" stroke="#000000" stroke-width="2" d="M214,-244C214,-244 384,-244 384,-244 390,-244 396,-250 396,-256 396,-256 396,-284 396,-284 396,-290 390,-296 384,-296 384,-296 214,-296 214,-296 208,-296 202,-290 202,-284 202,-284 202,-256 202,-256 202,-250 208,-244 214,-244"/>
<text text-anchor="middle" x="299" y="-284.8" font-family="Helvetica,sans-Serif" font-weight="bold" font-size="9.00" fill="#000000">user&#45;service</text>
</g>
<g id="clust19" class="cluster">
<title>cluster_src/helpers</title>
<path fill="#ffffff" stroke="#000000" stroke-width="2" d="M90,-356C90,-356 274.5,-356 274.5,-356 280.5,-356 286.5,-362 286.5,-368 286.5,-368 286.5,-396 286.5,-396 286.5,-402 280.5,-408 274.5,-408 274.5,-408 90,-408 90,-408 84,-408 78,-402 78,-396 78,-396 78,-368 78,-368 78,-362 84,-356 90,-356"/>
<text text-anchor="middle" x="182.25" y="-396.8" font-family="Helvetica,sans-Serif" font-weight="bold" font-size="9.00" fill="#000000">helpers</text>
</g>
<!-- node_modules/body&#45;parser/index.js -->
<g id="node1" class="node">
<title>node_modules/body&#45;parser/index.js</title>
<g id="a_node1"><a xlink:href="node_modules/body-parser/index.js" xlink:title="index.js">
<polygon fill="#c40b0a" fill-opacity="0.101961" stroke="#000000" points="711,-102 709.5,-104 699,-104 697.5,-102 657,-102 657,-84 711,-84 711,-102"/>
<text text-anchor="middle" x="684" y="-90.8" font-family="Helvetica,sans-Serif" font-size="9.00" fill="#c40b0a">index.js</text>
</a>
</g>
</g>
<!-- node_modules/cuid/index.js -->
<g id="node2" class="node">
<title>node_modules/cuid/index.js</title>
<g id="a_node2"><a xlink:href="node_modules/cuid/index.js" xlink:title="index.js">
<polygon fill="#c40b0a" fill-opacity="0.101961" stroke="#000000" points="711,-350 709.5,-352 699,-352 697.5,-350 657,-350 657,-332 711,-332 711,-350"/>
<text text-anchor="middle" x="684" y="-338.8" font-family="Helvetica,sans-Serif" font-size="9.00" fill="#c40b0a">index.js</text>
</a>
</g>
</g>
<!-- node_modules/express/index.js -->
<g id="node3" class="node">
<title>node_modules/express/index.js</title>
<g id="a_node3"><a xlink:href="node_modules/express/index.js" xlink:title="index.js">
<polygon fill="#c40b0a" fill-opacity="0.101961" stroke="#000000" points="711,-42 709.5,-44 699,-44 697.5,-42 657,-42 657,-24 711,-24 711,-42"/>
<text text-anchor="middle" x="684" y="-30.8" font-family="Helvetica,sans-Serif" font-size="9.00" fill="#c40b0a">index.js</text>
</a>
</g>
</g>
<!-- node_modules/pg/lib/index.js -->
<g id="node4" class="node">
<title>node_modules/pg/lib/index.js</title>
<g id="a_node4"><a xlink:href="node_modules/pg/lib/index.js" xlink:title="index.js">
<polygon fill="#c40b0a" fill-opacity="0.101961" stroke="#000000" points="711,-264 709.5,-266 699,-266 697.5,-264 657,-264 657,-246 711,-246 711,-264"/>
<text text-anchor="middle" x="684" y="-252.8" font-family="Helvetica,sans-Serif" font-size="9.00" fill="#c40b0a">index.js</text>
</a>
</g>
</g>
<!-- node_modules/sanitize&#45;html/dist/sanitize&#45;html.js -->
<g id="node5" class="node">
<title>node_modules/sanitize&#45;html/dist/sanitize&#45;html.js</title>
<g id="a_node5"><a xlink:href="node_modules/sanitize-html/dist/sanitize-html.js" xlink:title="sanitize&#45;html.js">
<polygon fill="#c40b0a" fill-opacity="0.101961" stroke="#000000" points="722.5,-170 721,-172 710.5,-172 709,-170 645.5,-170 645.5,-152 722.5,-152 722.5,-170"/>
<text text-anchor="middle" x="684" y="-158.8" font-family="Helvetica,sans-Serif" font-size="9.00" fill="#c40b0a">sanitize&#45;html.js</text>
</a>
</g>
</g>
<!-- src/Id/index.js -->
<g id="node6" class="node">
<title>src/Id/index.js</title>
<g id="a_node6"><a xlink:href="src/Id/index.js" xlink:title="index.js">
<path fill="#ffffcc" stroke="#000000" d="M565.5,-382C565.5,-382 523.5,-382 523.5,-382 520.5,-382 517.5,-379 517.5,-376 517.5,-376 517.5,-370 517.5,-370 517.5,-367 520.5,-364 523.5,-364 523.5,-364 565.5,-364 565.5,-364 568.5,-364 571.5,-367 571.5,-370 571.5,-370 571.5,-376 571.5,-376 571.5,-379 568.5,-382 565.5,-382"/>
<text text-anchor="middle" x="544.5" y="-370.8" font-family="Helvetica,sans-Serif" font-size="9.00" fill="#000000">index.js</text>
</a>
</g>
</g>
<!-- src/Id/index.js&#45;&gt;node_modules/cuid/index.js -->
<g id="edge1" class="edge">
<title>src/Id/index.js&#45;&gt;node_modules/cuid/index.js</title>
<path fill="none" stroke="#000000" stroke-dasharray="5,2" stroke-opacity="0.200000" d="M571.7282,-366.7541C594.3881,-361.5561 626.7303,-354.1371 650.8864,-348.596"/>
<polygon fill="#000000" fill-opacity="0.200000" stroke="#000000" stroke-opacity="0.200000" points="651.462,-350.6186 656.8405,-347.2301 650.5228,-346.5249 651.462,-350.6186"/>
</g>
<!-- src/controllers/aux/httpError.js -->
<g id="node7" class="node">
<title>src/controllers/aux/httpError.js</title>
<g id="a_node7"><a xlink:href="src/controllers/aux/httpError.js" xlink:title="httpError.js">
<path fill="#ffffcc" stroke="#000000" d="M374.5,-108C374.5,-108 325.5,-108 325.5,-108 322.5,-108 319.5,-105 319.5,-102 319.5,-102 319.5,-96 319.5,-96 319.5,-93 322.5,-90 325.5,-90 325.5,-90 374.5,-90 374.5,-90 377.5,-90 380.5,-93 380.5,-96 380.5,-96 380.5,-102 380.5,-102 380.5,-105 377.5,-108 374.5,-108"/>
<text text-anchor="middle" x="350" y="-96.8" font-family="Helvetica,sans-Serif" font-size="9.00" fill="#000000">httpError.js</text>
</a>
</g>
</g>
<!-- src/controllers/aux/isSouthOrNorth.js -->
<g id="node8" class="node">
<title>src/controllers/aux/isSouthOrNorth.js</title>
<g id="a_node8"><a xlink:href="src/controllers/aux/isSouthOrNorth.js" xlink:title="isSouthOrNorth.js">
<path fill="#ffffcc" stroke="#000000" d="M388.5,-168C388.5,-168 311.5,-168 311.5,-168 308.5,-168 305.5,-165 305.5,-162 305.5,-162 305.5,-156 305.5,-156 305.5,-153 308.5,-150 311.5,-150 311.5,-150 388.5,-150 388.5,-150 391.5,-150 394.5,-153 394.5,-156 394.5,-156 394.5,-162 394.5,-162 394.5,-165 391.5,-168 388.5,-168"/>
<text text-anchor="middle" x="350" y="-156.8" font-family="Helvetica,sans-Serif" font-size="9.00" fill="#000000">isSouthOrNorth.js</text>
</a>
</g>
</g>
<!-- src/controllers/aux/processSouthern.js -->
<g id="node9" class="node">
<title>src/controllers/aux/processSouthern.js</title>
<g id="a_node9"><a xlink:href="src/controllers/aux/processSouthern.js" xlink:title="processSouthern.js">
<path fill="#ffffcc" stroke="#000000" d="M391.5,-138C391.5,-138 308.5,-138 308.5,-138 305.5,-138 302.5,-135 302.5,-132 302.5,-132 302.5,-126 302.5,-126 302.5,-123 305.5,-120 308.5,-120 308.5,-120 391.5,-120 391.5,-120 394.5,-120 397.5,-123 397.5,-126 397.5,-126 397.5,-132 397.5,-132 397.5,-135 394.5,-138 391.5,-138"/>
<text text-anchor="middle" x="350" y="-126.8" font-family="Helvetica,sans-Serif" font-size="9.00" fill="#000000">processSouthern.js</text>
</a>
</g>
</g>
<!-- src/controllers/friend&#45;endpoint.js -->
<g id="node10" class="node">
<title>src/controllers/friend&#45;endpoint.js</title>
<g id="a_node10"><a xlink:href="src/controllers/friend-endpoint.js" xlink:title="friend&#45;endpoint.js">
<path fill="#ffffcc" stroke="#000000" d="M275,-108C275,-108 199,-108 199,-108 196,-108 193,-105 193,-102 193,-102 193,-96 193,-96 193,-93 196,-90 199,-90 199,-90 275,-90 275,-90 278,-90 281,-93 281,-96 281,-96 281,-102 281,-102 281,-105 278,-108 275,-108"/>
<text text-anchor="middle" x="237" y="-96.8" font-family="Helvetica,sans-Serif" font-size="9.00" fill="#000000">friend&#45;endpoint.js</text>
</a>
</g>
</g>
<!-- src/controllers/friend&#45;endpoint.js&#45;&gt;src/controllers/aux/httpError.js -->
<g id="edge2" class="edge">
<title>src/controllers/friend&#45;endpoint.js&#45;&gt;src/controllers/aux/httpError.js</title>
<path fill="none" stroke="#000000" stroke-width="2" stroke-opacity="0.200000" d="M281.0123,-99C291.584,-99 302.7696,-99 312.9865,-99"/>
<polygon fill="#000000" fill-opacity="0.200000" stroke="#000000" stroke-width="2" stroke-opacity="0.200000" points="313.2086,-101.1001 319.2086,-99 313.2085,-96.9001 313.2086,-101.1001"/>
</g>
<!-- src/controllers/index.js -->
<g id="node11" class="node">
<title>src/controllers/index.js</title>
<g id="a_node11"><a xlink:href="src/controllers/index.js" xlink:title="index.js">
<path fill="#ffffcc" stroke="#000000" d="M154,-123C154,-123 112,-123 112,-123 109,-123 106,-120 106,-117 106,-117 106,-111 106,-111 106,-108 109,-105 112,-105 112,-105 154,-105 154,-105 157,-105 160,-108 160,-111 160,-111 160,-117 160,-117 160,-120 157,-123 154,-123"/>
<text text-anchor="middle" x="133" y="-111.8" font-family="Helvetica,sans-Serif" font-size="9.00" fill="#000000">index.js</text>
</a>
</g>
</g>
<!-- src/controllers/index.js&#45;&gt;src/controllers/friend&#45;endpoint.js -->
<g id="edge4" class="edge">
<title>src/controllers/index.js&#45;&gt;src/controllers/friend&#45;endpoint.js</title>
<path fill="none" stroke="#000000" stroke-width="2" stroke-opacity="0.200000" d="M160.0533,-110.0981C168.2488,-108.916 177.5278,-107.5777 186.7342,-106.2499"/>
<polygon fill="#000000" fill-opacity="0.200000" stroke="#000000" stroke-width="2" stroke-opacity="0.200000" points="187.1228,-108.3157 192.7615,-105.3806 186.5231,-104.1587 187.1228,-108.3157"/>
</g>
<!-- src/domain/user&#45;service/index.js -->
<g id="node12" class="node">
<title>src/domain/user&#45;service/index.js</title>
<g id="a_node12"><a xlink:href="src/domain/user-service/index.js" xlink:title="index.js">
<path fill="#ffffcc" stroke="#000000" d="M258,-270C258,-270 216,-270 216,-270 213,-270 210,-267 210,-264 210,-264 210,-258 210,-258 210,-255 213,-252 216,-252 216,-252 258,-252 258,-252 261,-252 264,-255 264,-258 264,-258 264,-264 264,-264 264,-267 261,-270 258,-270"/>
<text text-anchor="middle" x="237" y="-258.8" font-family="Helvetica,sans-Serif" font-size="9.00" fill="#000000">index.js</text>
</a>
</g>
</g>
<!-- src/controllers/index.js&#45;&gt;src/domain/user&#45;service/index.js -->
<g id="edge3" class="edge">
<title>src/controllers/index.js&#45;&gt;src/domain/user&#45;service/index.js</title>
<path fill="none" stroke="#000000" stroke-width="2" stroke-opacity="0.200000" d="M136.6984,-123.1319C144.9092,-142.736 166.0792,-189.765 193,-223 200.4708,-232.223 210.3623,-240.991 218.8742,-247.7758"/>
<polygon fill="#000000" fill-opacity="0.200000" stroke="#000000" stroke-width="2" stroke-opacity="0.200000" points="217.9358,-249.7062 223.9619,-251.7304 220.5134,-246.3901 217.9358,-249.7062"/>
</g>
<!-- src/controllers/user&#45;endpoint.js -->
<g id="node13" class="node">
<title>src/controllers/user&#45;endpoint.js</title>
<g id="a_node13"><a xlink:href="src/controllers/user-endpoint.js" xlink:title="user&#45;endpoint.js">
<path fill="#ffffcc" stroke="#000000" d="M272.5,-138C272.5,-138 201.5,-138 201.5,-138 198.5,-138 195.5,-135 195.5,-132 195.5,-132 195.5,-126 195.5,-126 195.5,-123 198.5,-120 201.5,-120 201.5,-120 272.5,-120 272.5,-120 275.5,-120 278.5,-123 278.5,-126 278.5,-126 278.5,-132 278.5,-132 278.5,-135 275.5,-138 272.5,-138"/>
<text text-anchor="middle" x="237" y="-126.8" font-family="Helvetica,sans-Serif" font-size="9.00" fill="#000000">user&#45;endpoint.js</text>
</a>
</g>
</g>
<!-- src/controllers/index.js&#45;&gt;src/controllers/user&#45;endpoint.js -->
<g id="edge5" class="edge">
<title>src/controllers/index.js&#45;&gt;src/controllers/user&#45;endpoint.js</title>
<path fill="none" stroke="#000000" stroke-width="2" stroke-opacity="0.200000" d="M160.0533,-117.9019C168.9249,-119.1815 179.0662,-120.6442 189.0107,-122.0785"/>
<polygon fill="#000000" fill-opacity="0.200000" stroke="#000000" stroke-width="2" stroke-opacity="0.200000" points="188.9256,-124.1878 195.164,-122.966 189.5252,-120.0309 188.9256,-124.1878"/>
</g>
<!-- src/db/userdb/index.js -->
<g id="node16" class="node">
<title>src/db/userdb/index.js</title>
<g id="a_node16"><a xlink:href="src/db/userdb/index.js" xlink:title="index.js">
<path fill="#ffffcc" stroke="#000000" d="M371,-450C371,-450 329,-450 329,-450 326,-450 323,-447 323,-444 323,-444 323,-438 323,-438 323,-435 326,-432 329,-432 329,-432 371,-432 371,-432 374,-432 377,-435 377,-438 377,-438 377,-444 377,-444 377,-447 374,-450 371,-450"/>
<text text-anchor="middle" x="350" y="-438.8" font-family="Helvetica,sans-Serif" font-size="9.00" fill="#000000">index.js</text>
</a>
</g>
</g>
<!-- src/domain/user&#45;service/index.js&#45;&gt;src/db/userdb/index.js -->
<g id="edge16" class="edge">
<title>src/domain/user&#45;service/index.js&#45;&gt;src/db/userdb/index.js</title>
<path fill="none" stroke="#000000" stroke-width="2" stroke-opacity="0.200000" d="M242.759,-270.1737C261.1162,-299.4152 318.3587,-390.598 340.8218,-426.3798"/>
<polygon fill="#000000" fill-opacity="0.200000" stroke="#000000" stroke-width="2" stroke-opacity="0.200000" points="339.1483,-427.6638 344.1171,-431.6289 342.7054,-425.4307 339.1483,-427.6638"/>
</g>
<!-- src/domain/user&#45;service/user&#45;actions.js -->
<g id="node20" class="node">
<title>src/domain/user&#45;service/user&#45;actions.js</title>
<g id="a_node20"><a xlink:href="src/domain/user-service/user-actions.js" xlink:title="user&#45;actions.js">
<path fill="#ffffcc" stroke="#000000" d="M382,-270C382,-270 318,-270 318,-270 315,-270 312,-267 312,-264 312,-264 312,-258 312,-258 312,-255 315,-252 318,-252 318,-252 382,-252 382,-252 385,-252 388,-255 388,-258 388,-258 388,-264 388,-264 388,-267 385,-270 382,-270"/>
<text text-anchor="middle" x="350" y="-258.8" font-family="Helvetica,sans-Serif" font-size="9.00" fill="#000000">user&#45;actions.js</text>
</a>
</g>
</g>
<!-- src/domain/user&#45;service/index.js&#45;&gt;src/domain/user&#45;service/user&#45;actions.js -->
<g id="edge17" class="edge">
<title>src/domain/user&#45;service/index.js&#45;&gt;src/domain/user&#45;service/user&#45;actions.js</title>
<path fill="none" stroke="#000000" stroke-width="2" stroke-opacity="0.200000" d="M264.0663,-261C276.4098,-261 291.3536,-261 305.2946,-261"/>
<polygon fill="#000000" fill-opacity="0.200000" stroke="#000000" stroke-width="2" stroke-opacity="0.200000" points="305.6165,-263.1001 311.6165,-261 305.6165,-258.9001 305.6165,-263.1001"/>
</g>
<!-- src/controllers/user&#45;endpoint.js&#45;&gt;src/controllers/aux/httpError.js -->
<g id="edge6" class="edge">
<title>src/controllers/user&#45;endpoint.js&#45;&gt;src/controllers/aux/httpError.js</title>
<path fill="none" stroke="#000000" stroke-width="2" stroke-opacity="0.200000" d="M270.9037,-119.999C284.2083,-116.4668 299.5144,-112.4033 313.0961,-108.7975"/>
<polygon fill="#000000" fill-opacity="0.200000" stroke="#000000" stroke-width="2" stroke-opacity="0.200000" points="313.9413,-110.7459 319.2016,-107.1766 312.8636,-106.6865 313.9413,-110.7459"/>
</g>
<!-- src/controllers/user&#45;endpoint.js&#45;&gt;src/controllers/aux/isSouthOrNorth.js -->
<g id="edge7" class="edge">
<title>src/controllers/user&#45;endpoint.js&#45;&gt;src/controllers/aux/isSouthOrNorth.js</title>
<path fill="none" stroke="#000000" stroke-width="2" stroke-opacity="0.200000" d="M270.9037,-138.001C283.0828,-141.2344 296.9391,-144.913 309.6145,-148.2782"/>
<polygon fill="#000000" fill-opacity="0.200000" stroke="#000000" stroke-width="2" stroke-opacity="0.200000" points="309.3917,-150.3917 315.7296,-149.9017 310.4694,-146.3323 309.3917,-150.3917"/>
</g>
<!-- src/controllers/user&#45;endpoint.js&#45;&gt;src/controllers/aux/processSouthern.js -->
<g id="edge8" class="edge">
<title>src/controllers/user&#45;endpoint.js&#45;&gt;src/controllers/aux/processSouthern.js</title>
<path fill="none" stroke="#000000" stroke-width="2" stroke-opacity="0.200000" d="M278.756,-129C284.3887,-129 290.2317,-129 296.0389,-129"/>
<polygon fill="#000000" fill-opacity="0.200000" stroke="#000000" stroke-width="2" stroke-opacity="0.200000" points="296.3146,-131.1001 302.3145,-129 296.3145,-126.9001 296.3146,-131.1001"/>
</g>
<!-- src/db/config.json -->
<g id="node14" class="node">
<title>src/db/config.json</title>
<g id="a_node14"><a xlink:href="src/db/config.json" xlink:title="config.json">
<path fill="#ffee44" stroke="#000000" d="M569,-502C569,-502 520,-502 520,-502 517,-502 514,-499 514,-496 514,-496 514,-490 514,-490 514,-487 517,-484 520,-484 520,-484 569,-484 569,-484 572,-484 575,-487 575,-490 575,-490 575,-496 575,-496 575,-499 572,-502 569,-502"/>
<text text-anchor="middle" x="544.5" y="-490.8" font-family="Helvetica,sans-Serif" font-size="9.00" fill="#000000">config.json</text>
</a>
</g>
</g>
<!-- src/db/index.js -->
<g id="node15" class="node">
<title>src/db/index.js</title>
<g id="a_node15"><a xlink:href="src/db/index.js" xlink:title="index.js">
<path fill="#ffffcc" stroke="#000000" d="M485.5,-502C485.5,-502 443.5,-502 443.5,-502 440.5,-502 437.5,-499 437.5,-496 437.5,-496 437.5,-490 437.5,-490 437.5,-487 440.5,-484 443.5,-484 443.5,-484 485.5,-484 485.5,-484 488.5,-484 491.5,-487 491.5,-490 491.5,-490 491.5,-496 491.5,-496 491.5,-499 488.5,-502 485.5,-502"/>
<text text-anchor="middle" x="464.5" y="-490.8" font-family="Helvetica,sans-Serif" font-size="9.00" fill="#000000">index.js</text>
</a>
</g>
</g>
<!-- src/db/index.js&#45;&gt;node_modules/pg/lib/index.js -->
<g id="edge10" class="edge">
<title>src/db/index.js&#45;&gt;node_modules/pg/lib/index.js</title>
<path fill="none" stroke="#000000" stroke-dasharray="5,2" stroke-opacity="0.200000" d="M491.693,-486.0091C494.7389,-484.188 497.4698,-481.8927 499.5,-479 514.6999,-457.3422 488.4787,-259.3927 507.5,-241 548.4021,-201.4497 622.428,-226.4111 660.2952,-243.2716"/>
<polygon fill="#000000" fill-opacity="0.200000" stroke="#000000" stroke-opacity="0.200000" points="659.7211,-245.3179 666.0516,-245.897 661.4639,-241.4965 659.7211,-245.3179"/>
</g>
<!-- src/db/index.js&#45;&gt;src/db/config.json -->
<g id="edge9" class="edge">
<title>src/db/index.js&#45;&gt;src/db/config.json</title>
<path fill="none" stroke="#000000" stroke-width="2" stroke-opacity="0.200000" d="M491.5844,-493C496.7321,-493 502.1995,-493 507.5915,-493"/>
<polygon fill="#000000" fill-opacity="0.200000" stroke="#000000" stroke-width="2" stroke-opacity="0.200000" points="507.863,-495.1001 513.863,-493 507.863,-490.9001 507.863,-495.1001"/>
</g>
<!-- src/db/userdb/index.js&#45;&gt;src/db/index.js -->
<g id="edge11" class="edge">
<title>src/db/userdb/index.js&#45;&gt;src/db/index.js</title>
<path fill="none" stroke="#000000" stroke-width="2" stroke-opacity="0.200000" d="M365.2412,-450.1C379.4639,-458.3485 401.4449,-470.4822 421.5,-479 424.7405,-480.3763 428.1652,-481.7 431.6101,-482.9473"/>
<polygon fill="#000000" fill-opacity="0.200000" stroke="#000000" stroke-width="2" stroke-opacity="0.200000" points="431.0408,-484.9729 437.3977,-484.9702 432.4266,-481.0081 431.0408,-484.9729"/>
</g>
<!-- src/db/userdb/userdb.js -->
<g id="node17" class="node">
<title>src/db/userdb/userdb.js</title>
<g id="a_node17"><a xlink:href="src/db/userdb/userdb.js" xlink:title="userdb.js">
<path fill="#ffffcc" stroke="#000000" d="M485.5,-450C485.5,-450 443.5,-450 443.5,-450 440.5,-450 437.5,-447 437.5,-444 437.5,-444 437.5,-438 437.5,-438 437.5,-435 440.5,-432 443.5,-432 443.5,-432 485.5,-432 485.5,-432 488.5,-432 491.5,-435 491.5,-438 491.5,-438 491.5,-444 491.5,-444 491.5,-447 488.5,-450 485.5,-450"/>
<text text-anchor="middle" x="464.5" y="-438.8" font-family="Helvetica,sans-Serif" font-size="9.00" fill="#000000">userdb.js</text>
</a>
</g>
</g>
<!-- src/db/userdb/index.js&#45;&gt;src/db/userdb/userdb.js -->
<g id="edge12" class="edge">
<title>src/db/userdb/index.js&#45;&gt;src/db/userdb/userdb.js</title>
<path fill="none" stroke="#000000" stroke-width="2" stroke-opacity="0.200000" d="M377.1349,-441C393.273,-441 413.8742,-441 431.018,-441"/>
<polygon fill="#000000" fill-opacity="0.200000" stroke="#000000" stroke-width="2" stroke-opacity="0.200000" points="431.1631,-443.1001 437.1631,-441 431.163,-438.9001 431.1631,-443.1001"/>
</g>
<!-- src/domain/models/user/index.js -->
<g id="node18" class="node">
<title>src/domain/models/user/index.js</title>
<g id="a_node18"><a xlink:href="src/domain/models/user/index.js" xlink:title="index.js">
<path fill="#ffffcc" stroke="#000000" d="M485.5,-270C485.5,-270 443.5,-270 443.5,-270 440.5,-270 437.5,-267 437.5,-264 437.5,-264 437.5,-258 437.5,-258 437.5,-255 440.5,-252 443.5,-252 443.5,-252 485.5,-252 485.5,-252 488.5,-252 491.5,-255 491.5,-258 491.5,-258 491.5,-264 491.5,-264 491.5,-267 488.5,-270 485.5,-270"/>
<text text-anchor="middle" x="464.5" y="-258.8" font-family="Helvetica,sans-Serif" font-size="9.00" fill="#000000">index.js</text>
</a>
</g>
</g>
<!-- src/domain/models/user/index.js&#45;&gt;node_modules/sanitize&#45;html/dist/sanitize&#45;html.js -->
<g id="edge15" class="edge">
<title>src/domain/models/user/index.js&#45;&gt;node_modules/sanitize&#45;html/dist/sanitize&#45;html.js</title>
<path fill="none" stroke="#000000" stroke-dasharray="5,2" stroke-opacity="0.200000" d="M468.6397,-251.9851C475.0594,-239.0521 488.667,-215.4258 507.5,-203 547.0167,-176.9273 600.9736,-166.9924 638.7921,-163.2332"/>
<polygon fill="#000000" fill-opacity="0.200000" stroke="#000000" stroke-opacity="0.200000" points="639.4069,-165.2853 645.1876,-162.6408 639.0195,-161.1032 639.4069,-165.2853"/>
</g>
<!-- src/domain/models/user/index.js&#45;&gt;src/Id/index.js -->
<g id="edge13" class="edge">
<title>src/domain/models/user/index.js&#45;&gt;src/Id/index.js</title>
<path fill="none" stroke="#000000" stroke-width="2" stroke-opacity="0.200000" d="M471.0467,-270.1654C484.9934,-289.6908 517.7172,-335.5041 534.3743,-358.824"/>
<polygon fill="#000000" fill-opacity="0.200000" stroke="#000000" stroke-width="2" stroke-opacity="0.200000" points="532.6665,-360.0461 537.8628,-363.7079 536.0842,-357.6049 532.6665,-360.0461"/>
</g>
<!-- src/domain/models/user/userFactory.js -->
<g id="node19" class="node">
<title>src/domain/models/user/userFactory.js</title>
<g id="a_node19"><a xlink:href="src/domain/models/user/userFactory.js" xlink:title="userFactory.js">
<path fill="#ffffcc" stroke="#000000" d="M575.5,-270C575.5,-270 513.5,-270 513.5,-270 510.5,-270 507.5,-267 507.5,-264 507.5,-264 507.5,-258 507.5,-258 507.5,-255 510.5,-252 513.5,-252 513.5,-252 575.5,-252 575.5,-252 578.5,-252 581.5,-255 581.5,-258 581.5,-258 581.5,-264 581.5,-264 581.5,-267 578.5,-270 575.5,-270"/>
<text text-anchor="middle" x="544.5" y="-258.8" font-family="Helvetica,sans-Serif" font-size="9.00" fill="#000000">userFactory.js</text>
</a>
</g>
</g>
<!-- src/domain/models/user/index.js&#45;&gt;src/domain/models/user/userFactory.js -->
<g id="edge14" class="edge">
<title>src/domain/models/user/index.js&#45;&gt;src/domain/models/user/userFactory.js</title>
<path fill="none" stroke="#000000" stroke-width="2" stroke-opacity="0.200000" d="M491.5844,-261C494.5988,-261 497.7228,-261 500.8771,-261"/>
<polygon fill="#000000" fill-opacity="0.200000" stroke="#000000" stroke-width="2" stroke-opacity="0.200000" points="501.3689,-263.1001 507.3689,-261 501.3689,-258.9001 501.3689,-263.1001"/>
</g>
<!-- src/domain/user&#45;service/user&#45;actions.js&#45;&gt;src/domain/models/user/index.js -->
<g id="edge18" class="edge">
<title>src/domain/user&#45;service/user&#45;actions.js&#45;&gt;src/domain/models/user/index.js</title>
<path fill="none" stroke="#000000" stroke-width="2" stroke-opacity="0.200000" d="M388.1268,-261C402.1177,-261 417.8301,-261 431.3492,-261"/>
<polygon fill="#000000" fill-opacity="0.200000" stroke="#000000" stroke-width="2" stroke-opacity="0.200000" points="431.3923,-263.1001 437.3923,-261 431.3923,-258.9001 431.3923,-263.1001"/>
</g>
<!-- src/helpers/adaptRequest.js -->
<g id="node21" class="node">
<title>src/helpers/adaptRequest.js</title>
<g id="a_node21"><a xlink:href="src/helpers/adaptRequest.js" xlink:title="adaptRequest.js">
<path fill="#ffffcc" stroke="#000000" d="M272.5,-382C272.5,-382 201.5,-382 201.5,-382 198.5,-382 195.5,-379 195.5,-376 195.5,-376 195.5,-370 195.5,-370 195.5,-367 198.5,-364 201.5,-364 201.5,-364 272.5,-364 272.5,-364 275.5,-364 278.5,-367 278.5,-370 278.5,-370 278.5,-376 278.5,-376 278.5,-379 275.5,-382 272.5,-382"/>
<text text-anchor="middle" x="237" y="-370.8" font-family="Helvetica,sans-Serif" font-size="9.00" fill="#000000">adaptRequest.js</text>
</a>
</g>
</g>
<!-- src/helpers/expressCallback.js -->
<g id="node22" class="node">
<title>src/helpers/expressCallback.js</title>
<g id="a_node22"><a xlink:href="src/helpers/expressCallback.js" xlink:title="expressCallback.js">
<path fill="#ffffcc" stroke="#000000" d="M174,-382C174,-382 92,-382 92,-382 89,-382 86,-379 86,-376 86,-376 86,-370 86,-370 86,-367 89,-364 92,-364 92,-364 174,-364 174,-364 177,-364 180,-367 180,-370 180,-370 180,-376 180,-376 180,-379 177,-382 174,-382"/>
<text text-anchor="middle" x="133" y="-370.8" font-family="Helvetica,sans-Serif" font-size="9.00" fill="#000000">expressCallback.js</text>
</a>
</g>
</g>
<!-- src/helpers/expressCallback.js&#45;&gt;src/helpers/adaptRequest.js -->
<g id="edge19" class="edge">
<title>src/helpers/expressCallback.js&#45;&gt;src/helpers/adaptRequest.js</title>
<path fill="none" stroke="#000000" stroke-width="2" stroke-opacity="0.200000" d="M180.1313,-373C183.131,-373 186.1524,-373 189.1552,-373"/>
<polygon fill="#000000" fill-opacity="0.200000" stroke="#000000" stroke-width="2" stroke-opacity="0.200000" points="189.2798,-375.1001 195.2798,-373 189.2797,-370.9001 189.2798,-375.1001"/>
</g>
<!-- src/index.js -->
<g id="node23" class="node">
<title>src/index.js</title>
<g id="a_node23"><a xlink:href="src/index.js" xlink:title="index.js">
<path fill="#ffffcc" stroke="#000000" d="M64,-100C64,-100 22,-100 22,-100 19,-100 16,-97 16,-94 16,-94 16,-88 16,-88 16,-85 19,-82 22,-82 22,-82 64,-82 64,-82 67,-82 70,-85 70,-88 70,-88 70,-94 70,-94 70,-97 67,-100 64,-100"/>
<text text-anchor="middle" x="43" y="-88.8" font-family="Helvetica,sans-Serif" font-size="9.00" fill="#000000">index.js</text>
</a>
</g>
</g>
<!-- src/index.js&#45;&gt;node_modules/body&#45;parser/index.js -->
<g id="edge22" class="edge">
<title>src/index.js&#45;&gt;node_modules/body&#45;parser/index.js</title>
<path fill="none" stroke="#000000" stroke-dasharray="5,2" stroke-opacity="0.200000" d="M55.6631,-81.939C62.0508,-77.8569 70.1039,-73.4187 78,-71 145.76,-50.2443 166.1324,-59 237,-59 237,-59 237,-59 464.5,-59 531.2094,-59 607.9932,-74.5257 650.7738,-84.5941"/>
<polygon fill="#000000" fill-opacity="0.200000" stroke="#000000" stroke-opacity="0.200000" points="650.5103,-86.6901 656.8337,-86.0375 651.4836,-82.6044 650.5103,-86.6901"/>
</g>
<!-- src/index.js&#45;&gt;node_modules/express/index.js -->
<g id="edge23" class="edge">
<title>src/index.js&#45;&gt;node_modules/express/index.js</title>
<path fill="none" stroke="#000000" stroke-dasharray="5,2" stroke-opacity="0.200000" d="M48.9905,-81.6787C55.1421,-72.9597 65.5583,-60.3551 78,-54 141.4788,-21.5757 165.7196,-33 237,-33 237,-33 237,-33 464.5,-33 530.6048,-33 607.9081,-33 650.8807,-33"/>
<polygon fill="#000000" fill-opacity="0.200000" stroke="#000000" stroke-opacity="0.200000" points="650.9665,-35.1001 656.9664,-33 650.9664,-30.9001 650.9665,-35.1001"/>
</g>
<!-- src/index.js&#45;&gt;src/controllers/index.js -->
<g id="edge20" class="edge">
<title>src/index.js&#45;&gt;src/controllers/index.js</title>
<path fill="none" stroke="#000000" stroke-width="2" stroke-opacity="0.200000" d="M70.003,-97.9008C79.3504,-100.2896 89.9383,-102.9953 99.7296,-105.4976"/>
<polygon fill="#000000" fill-opacity="0.200000" stroke="#000000" stroke-width="2" stroke-opacity="0.200000" points="99.3719,-107.5736 105.705,-107.0246 100.4118,-103.5043 99.3719,-107.5736"/>
</g>
<!-- src/index.js&#45;&gt;src/helpers/expressCallback.js -->
<g id="edge21" class="edge">
<title>src/index.js&#45;&gt;src/helpers/expressCallback.js</title>
<path fill="none" stroke="#000000" stroke-width="2" stroke-opacity="0.200000" d="M45.0933,-100.045C50.1351,-121.5445 63.6041,-177.3236 78,-223 93.8235,-273.2063 116.4134,-331.4115 127.0406,-358.1624"/>
<polygon fill="#000000" fill-opacity="0.200000" stroke="#000000" stroke-width="2" stroke-opacity="0.200000" points="125.1831,-359.174 129.3562,-363.9693 129.0844,-357.6182 125.1831,-359.174"/>
</g>
</g>
</svg>
