<?xml version="1.0" encoding="UTF-8" standalone="no"?>
<!DOCTYPE svg PUBLIC "-//W3C//DTD SVG 1.1//EN"
 "http://www.w3.org/Graphics/SVG/1.1/DTD/svg11.dtd">
<!-- Generated by graphviz version 2.40.1 (20161225.0304)
 -->
<!-- Title: dependency&#45;cruiser output Pages: 1 -->
<svg width="822pt" height="673pt"
 viewBox="0.00 0.00 821.50 673.00" xmlns="http://www.w3.org/2000/svg" xmlns:xlink="http://www.w3.org/1999/xlink">
<g id="graph0" class="graph" transform="scale(1 1) rotate(0) translate(4 669)">
<title>dependency&#45;cruiser output</title>
<polygon fill="#ffffff" stroke="transparent" points="-4,4 -4,-669 817.5,-669 817.5,4 -4,4"/>
<g id="clust1" class="cluster">
<title>cluster_node_modules</title>
<path fill="#ffffff" stroke="#000000" stroke-width="2" d="M692.5,-8C692.5,-8 793.5,-8 793.5,-8 799.5,-8 805.5,-14 805.5,-20 805.5,-20 805.5,-484 805.5,-484 805.5,-490 799.5,-496 793.5,-496 793.5,-496 692.5,-496 692.5,-496 686.5,-496 680.5,-490 680.5,-484 680.5,-484 680.5,-20 680.5,-20 680.5,-14 686.5,-8 692.5,-8"/>
<text text-anchor="middle" x="743" y="-484.8" font-family="Helvetica,sans-Serif" font-weight="bold" font-size="9.00" fill="#000000">node_modules</text>
</g>
<g id="clust2" class="cluster">
<title>cluster_node_modules/body&#45;parser</title>
<path fill="#ffffff" stroke="#000000" stroke-width="2" d="M720,-170C720,-170 766,-170 766,-170 772,-170 778,-176 778,-182 778,-182 778,-210 778,-210 778,-216 772,-222 766,-222 766,-222 720,-222 720,-222 714,-222 708,-216 708,-210 708,-210 708,-182 708,-182 708,-176 714,-170 720,-170"/>
<text text-anchor="middle" x="743" y="-210.8" font-family="Helvetica,sans-Serif" font-weight="bold" font-size="9.00" fill="#000000">body&#45;parser</text>
</g>
<g id="clust3" class="cluster">
<title>cluster_node_modules/cuid</title>
<path fill="#ffffff" stroke="#000000" stroke-width="2" d="M720,-418C720,-418 766,-418 766,-418 772,-418 778,-424 778,-430 778,-430 778,-458 778,-458 778,-464 772,-470 766,-470 766,-470 720,-470 720,-470 714,-470 708,-464 708,-458 708,-458 708,-430 708,-430 708,-424 714,-418 720,-418"/>
<text text-anchor="middle" x="743" y="-458.8" font-family="Helvetica,sans-Serif" font-weight="bold" font-size="9.00" fill="#000000">cuid</text>
</g>
<g id="clust4" class="cluster">
<title>cluster_node_modules/dotenv</title>
<path fill="#ffffff" stroke="#000000" stroke-width="2" d="M712,-16C712,-16 774,-16 774,-16 780,-16 786,-22 786,-28 786,-28 786,-90 786,-90 786,-96 780,-102 774,-102 774,-102 712,-102 712,-102 706,-102 700,-96 700,-90 700,-90 700,-28 700,-28 700,-22 706,-16 712,-16"/>
<text text-anchor="middle" x="743" y="-90.8" font-family="Helvetica,sans-Serif" font-weight="bold" font-size="9.00" fill="#000000">dotenv</text>
</g>
<g id="clust5" class="cluster">
<title>cluster_node_modules/dotenv/lib</title>
<path fill="#ffffff" stroke="#000000" stroke-width="2" d="M720,-24C720,-24 766,-24 766,-24 772,-24 778,-30 778,-36 778,-36 778,-64 778,-64 778,-70 772,-76 766,-76 766,-76 720,-76 720,-76 714,-76 708,-70 708,-64 708,-64 708,-36 708,-36 708,-30 714,-24 720,-24"/>
<text text-anchor="middle" x="743" y="-64.8" font-family="Helvetica,sans-Serif" font-weight="bold" font-size="9.00" fill="#000000">lib</text>
</g>
<g id="clust6" class="cluster">
<title>cluster_node_modules/express</title>
<path fill="#ffffff" stroke="#000000" stroke-width="2" d="M720,-110C720,-110 766,-110 766,-110 772,-110 778,-116 778,-122 778,-122 778,-150 778,-150 778,-156 772,-162 766,-162 766,-162 720,-162 720,-162 714,-162 708,-156 708,-150 708,-150 708,-122 708,-122 708,-116 714,-110 720,-110"/>
<text text-anchor="middle" x="743" y="-150.8" font-family="Helvetica,sans-Serif" font-weight="bold" font-size="9.00" fill="#000000">express</text>
</g>
<g id="clust7" class="cluster">
<title>cluster_node_modules/pg</title>
<path fill="#ffffff" stroke="#000000" stroke-width="2" d="M712,-324C712,-324 774,-324 774,-324 780,-324 786,-330 786,-336 786,-336 786,-398 786,-398 786,-404 780,-410 774,-410 774,-410 712,-410 712,-410 706,-410 700,-404 700,-398 700,-398 700,-336 700,-336 700,-330 706,-324 712,-324"/>
<text text-anchor="middle" x="743" y="-398.8" font-family="Helvetica,sans-Serif" font-weight="bold" font-size="9.00" fill="#000000">pg</text>
</g>
<g id="clust8" class="cluster">
<title>cluster_node_modules/pg/lib</title>
<path fill="#ffffff" stroke="#000000" stroke-width="2" d="M720,-332C720,-332 766,-332 766,-332 772,-332 778,-338 778,-344 778,-344 778,-372 778,-372 778,-378 772,-384 766,-384 766,-384 720,-384 720,-384 714,-384 708,-378 708,-372 708,-372 708,-344 708,-344 708,-338 714,-332 720,-332"/>
<text text-anchor="middle" x="743" y="-372.8" font-family="Helvetica,sans-Serif" font-weight="bold" font-size="9.00" fill="#000000">lib</text>
</g>
<g id="clust9" class="cluster">
<title>cluster_node_modules/sanitize&#45;html</title>
<path fill="#ffffff" stroke="#000000" stroke-width="2" d="M700.5,-230C700.5,-230 785.5,-230 785.5,-230 791.5,-230 797.5,-236 797.5,-242 797.5,-242 797.5,-304 797.5,-304 797.5,-310 791.5,-316 785.5,-316 785.5,-316 700.5,-316 700.5,-316 694.5,-316 688.5,-310 688.5,-304 688.5,-304 688.5,-242 688.5,-242 688.5,-236 694.5,-230 700.5,-230"/>
<text text-anchor="middle" x="743" y="-304.8" font-family="Helvetica,sans-Serif" font-weight="bold" font-size="9.00" fill="#000000">sanitize&#45;html</text>
</g>
<g id="clust10" class="cluster">
<title>cluster_node_modules/sanitize&#45;html/dist</title>
<path fill="#ffffff" stroke="#000000" stroke-width="2" d="M708.5,-238C708.5,-238 777.5,-238 777.5,-238 783.5,-238 789.5,-244 789.5,-250 789.5,-250 789.5,-278 789.5,-278 789.5,-284 783.5,-290 777.5,-290 777.5,-290 708.5,-290 708.5,-290 702.5,-290 696.5,-284 696.5,-278 696.5,-278 696.5,-250 696.5,-250 696.5,-244 702.5,-238 708.5,-238"/>
<text text-anchor="middle" x="743" y="-278.8" font-family="Helvetica,sans-Serif" font-weight="bold" font-size="9.00" fill="#000000">dist</text>
</g>
<g id="clust11" class="cluster">
<title>cluster_src</title>
<path fill="#ffffff" stroke="#000000" stroke-width="2" d="M20,-147C20,-147 660.5,-147 660.5,-147 666.5,-147 672.5,-153 672.5,-159 672.5,-159 672.5,-645 672.5,-645 672.5,-651 666.5,-657 660.5,-657 660.5,-657 20,-657 20,-657 14,-657 8,-651 8,-645 8,-645 8,-159 8,-159 8,-153 14,-147 20,-147"/>
<text text-anchor="middle" x="340.25" y="-645.8" font-family="Helvetica,sans-Serif" font-weight="bold" font-size="9.00" fill="#000000">src</text>
</g>
<g id="clust12" class="cluster">
<title>cluster_src/Id</title>
<path fill="#ffffff" stroke="#000000" stroke-width="2" d="M588.5,-425C588.5,-425 634.5,-425 634.5,-425 640.5,-425 646.5,-431 646.5,-437 646.5,-437 646.5,-465 646.5,-465 646.5,-471 640.5,-477 634.5,-477 634.5,-477 588.5,-477 588.5,-477 582.5,-477 576.5,-471 576.5,-465 576.5,-465 576.5,-437 576.5,-437 576.5,-431 582.5,-425 588.5,-425"/>
<text text-anchor="middle" x="611.5" y="-465.8" font-family="Helvetica,sans-Serif" font-weight="bold" font-size="9.00" fill="#000000">Id</text>
</g>
<g id="clust13" class="cluster">
<title>cluster_src/controllers</title>
<path fill="#ffffff" stroke="#000000" stroke-width="2" d="M177,-425C177,-425 468.5,-425 468.5,-425 474.5,-425 480.5,-431 480.5,-437 480.5,-437 480.5,-559 480.5,-559 480.5,-565 474.5,-571 468.5,-571 468.5,-571 177,-571 177,-571 171,-571 165,-565 165,-559 165,-559 165,-437 165,-437 165,-431 171,-425 177,-425"/>
<text text-anchor="middle" x="322.75" y="-559.8" font-family="Helvetica,sans-Serif" font-weight="bold" font-size="9.00" fill="#000000">controllers</text>
</g>
<g id="clust14" class="cluster">
<title>cluster_src/controllers/aux</title>
<path fill="#ffffff" stroke="#000000" stroke-width="2" d="M373.5,-433C373.5,-433 460.5,-433 460.5,-433 466.5,-433 472.5,-439 472.5,-445 472.5,-445 472.5,-533 472.5,-533 472.5,-539 466.5,-545 460.5,-545 460.5,-545 373.5,-545 373.5,-545 367.5,-545 361.5,-539 361.5,-533 361.5,-533 361.5,-445 361.5,-445 361.5,-439 367.5,-433 373.5,-433"/>
<text text-anchor="middle" x="417" y="-533.8" font-family="Helvetica,sans-Serif" font-weight="bold" font-size="9.00" fill="#000000">aux</text>
</g>
<g id="clust15" class="cluster">
<title>cluster_src/db</title>
<path fill="#ffffff" stroke="#000000" stroke-width="2" d="M381.5,-155C381.5,-155 554.5,-155 554.5,-155 560.5,-155 566.5,-161 566.5,-167 566.5,-167 566.5,-311 566.5,-311 566.5,-317 560.5,-323 554.5,-323 554.5,-323 381.5,-323 381.5,-323 375.5,-323 369.5,-317 369.5,-311 369.5,-311 369.5,-167 369.5,-167 369.5,-161 375.5,-155 381.5,-155"/>
<text text-anchor="middle" x="468" y="-311.8" font-family="Helvetica,sans-Serif" font-weight="bold" font-size="9.00" fill="#000000">db</text>
</g>
<g id="clust16" class="cluster">
<title>cluster_src/db/userdb</title>
<path fill="#ffffff" stroke="#000000" stroke-width="2" d="M394,-219C394,-219 546.5,-219 546.5,-219 552.5,-219 558.5,-225 558.5,-231 558.5,-231 558.5,-259 558.5,-259 558.5,-265 552.5,-271 546.5,-271 546.5,-271 394,-271 394,-271 388,-271 382,-265 382,-259 382,-259 382,-231 382,-231 382,-225 388,-219 394,-219"/>
<text text-anchor="middle" x="470.25" y="-259.8" font-family="Helvetica,sans-Serif" font-weight="bold" font-size="9.00" fill="#000000">userdb</text>
</g>
<g id="clust17" class="cluster">
<title>cluster_src/domain</title>
<path fill="#ffffff" stroke="#000000" stroke-width="2" d="M273,-331C273,-331 652.5,-331 652.5,-331 658.5,-331 664.5,-337 664.5,-343 664.5,-343 664.5,-405 664.5,-405 664.5,-411 658.5,-417 652.5,-417 652.5,-417 273,-417 273,-417 267,-417 261,-411 261,-405 261,-405 261,-343 261,-343 261,-337 267,-331 273,-331"/>
<text text-anchor="middle" x="462.75" y="-405.8" font-family="Helvetica,sans-Serif" font-weight="bold" font-size="9.00" fill="#000000">domain</text>
</g>
<g id="clust18" class="cluster">
<title>cluster_src/domain/user&#45;model</title>
<path fill="#ffffff" stroke="#000000" stroke-width="2" d="M500.5,-339C500.5,-339 644.5,-339 644.5,-339 650.5,-339 656.5,-345 656.5,-351 656.5,-351 656.5,-379 656.5,-379 656.5,-385 650.5,-391 644.5,-391 644.5,-391 500.5,-391 500.5,-391 494.5,-391 488.5,-385 488.5,-379 488.5,-379 488.5,-351 488.5,-351 488.5,-345 494.5,-339 500.5,-339"/>
<text text-anchor="middle" x="572.5" y="-379.8" font-family="Helvetica,sans-Serif" font-weight="bold" font-size="9.00" fill="#000000">user&#45;model</text>
</g>
<g id="clust19" class="cluster">
<title>cluster_src/domain/user&#45;service</title>
<path fill="#ffffff" stroke="#000000" stroke-width="2" d="M281,-339C281,-339 451,-339 451,-339 457,-339 463,-345 463,-351 463,-351 463,-379 463,-379 463,-385 457,-391 451,-391 451,-391 281,-391 281,-391 275,-391 269,-385 269,-379 269,-379 269,-351 269,-351 269,-345 275,-339 281,-339"/>
<text text-anchor="middle" x="366" y="-379.8" font-family="Helvetica,sans-Serif" font-weight="bold" font-size="9.00" fill="#000000">user&#45;service</text>
</g>
<g id="clust20" class="cluster">
<title>cluster_src/helpers</title>
<path fill="#ffffff" stroke="#000000" stroke-width="2" d="M157,-579C157,-579 341.5,-579 341.5,-579 347.5,-579 353.5,-585 353.5,-591 353.5,-591 353.5,-619 353.5,-619 353.5,-625 347.5,-631 341.5,-631 341.5,-631 157,-631 157,-631 151,-631 145,-625 145,-619 145,-619 145,-591 145,-591 145,-585 151,-579 157,-579"/>
<text text-anchor="middle" x="249.25" y="-619.8" font-family="Helvetica,sans-Serif" font-weight="bold" font-size="9.00" fill="#000000">helpers</text>
</g>
<!-- node_modules/body&#45;parser/index.js -->
<g id="node1" class="node">
<title>node_modules/body&#45;parser/index.js</title>
<g id="a_node1"><a xlink:href="node_modules/body-parser/index.js" xlink:title="index.js">
<polygon fill="#c40b0a" fill-opacity="0.101961" stroke="#000000" points="770,-196 768.5,-198 758,-198 756.5,-196 716,-196 716,-178 770,-178 770,-196"/>
<text text-anchor="middle" x="743" y="-184.8" font-family="Helvetica,sans-Serif" font-size="9.00" fill="#c40b0a">index.js</text>
</a>
</g>
</g>
<!-- node_modules/cuid/index.js -->
<g id="node2" class="node">
<title>node_modules/cuid/index.js</title>
<g id="a_node2"><a xlink:href="node_modules/cuid/index.js" xlink:title="index.js">
<polygon fill="#c40b0a" fill-opacity="0.101961" stroke="#000000" points="770,-444 768.5,-446 758,-446 756.5,-444 716,-444 716,-426 770,-426 770,-444"/>
<text text-anchor="middle" x="743" y="-432.8" font-family="Helvetica,sans-Serif" font-size="9.00" fill="#c40b0a">index.js</text>
</a>
</g>
</g>
<!-- node_modules/dotenv/lib/main.js -->
<g id="node3" class="node">
<title>node_modules/dotenv/lib/main.js</title>
<g id="a_node3"><a xlink:href="node_modules/dotenv/lib/main.js" xlink:title="main.js">
<polygon fill="#c40b0a" fill-opacity="0.101961" stroke="#000000" points="770,-50 768.5,-52 758,-52 756.5,-50 716,-50 716,-32 770,-32 770,-50"/>
<text text-anchor="middle" x="743" y="-38.8" font-family="Helvetica,sans-Serif" font-size="9.00" fill="#c40b0a">main.js</text>
</a>
</g>
</g>
<!-- node_modules/express/index.js -->
<g id="node4" class="node">
<title>node_modules/express/index.js</title>
<g id="a_node4"><a xlink:href="node_modules/express/index.js" xlink:title="index.js">
<polygon fill="#c40b0a" fill-opacity="0.101961" stroke="#000000" points="770,-136 768.5,-138 758,-138 756.5,-136 716,-136 716,-118 770,-118 770,-136"/>
<text text-anchor="middle" x="743" y="-124.8" font-family="Helvetica,sans-Serif" font-size="9.00" fill="#c40b0a">index.js</text>
</a>
</g>
</g>
<!-- node_modules/pg/lib/index.js -->
<g id="node5" class="node">
<title>node_modules/pg/lib/index.js</title>
<g id="a_node5"><a xlink:href="node_modules/pg/lib/index.js" xlink:title="index.js">
<polygon fill="#c40b0a" fill-opacity="0.101961" stroke="#000000" points="770,-358 768.5,-360 758,-360 756.5,-358 716,-358 716,-340 770,-340 770,-358"/>
<text text-anchor="middle" x="743" y="-346.8" font-family="Helvetica,sans-Serif" font-size="9.00" fill="#c40b0a">index.js</text>
</a>
</g>
</g>
<!-- node_modules/sanitize&#45;html/dist/sanitize&#45;html.js -->
<g id="node6" class="node">
<title>node_modules/sanitize&#45;html/dist/sanitize&#45;html.js</title>
<g id="a_node6"><a xlink:href="node_modules/sanitize-html/dist/sanitize-html.js" xlink:title="sanitize&#45;html.js">
<polygon fill="#c40b0a" fill-opacity="0.101961" stroke="#000000" points="781.5,-264 780,-266 769.5,-266 768,-264 704.5,-264 704.5,-246 781.5,-246 781.5,-264"/>
<text text-anchor="middle" x="743" y="-252.8" font-family="Helvetica,sans-Serif" font-size="9.00" fill="#c40b0a">sanitize&#45;html.js</text>
</a>
</g>
</g>
<!-- src/Id/index.js -->
<g id="node7" class="node">
<title>src/Id/index.js</title>
<g id="a_node7"><a xlink:href="src/Id/index.js" xlink:title="index.js">
<path fill="#ffffcc" stroke="#000000" d="M632.5,-451C632.5,-451 590.5,-451 590.5,-451 587.5,-451 584.5,-448 584.5,-445 584.5,-445 584.5,-439 584.5,-439 584.5,-436 587.5,-433 590.5,-433 590.5,-433 632.5,-433 632.5,-433 635.5,-433 638.5,-436 638.5,-439 638.5,-439 638.5,-445 638.5,-445 638.5,-448 635.5,-451 632.5,-451"/>
<text text-anchor="middle" x="611.5" y="-439.8" font-family="Helvetica,sans-Serif" font-size="9.00" fill="#000000">index.js</text>
</a>
</g>
</g>
<!-- src/Id/index.js&#45;&gt;node_modules/cuid/index.js -->
<g id="edge1" class="edge">
<title>src/Id/index.js&#45;&gt;node_modules/cuid/index.js</title>
<path fill="none" stroke="#000000" stroke-dasharray="5,2" stroke-opacity="0.200000" d="M638.7469,-440.5496C659.376,-439.4515 687.8129,-437.9377 709.7766,-436.7685"/>
<polygon fill="#000000" fill-opacity="0.200000" stroke="#000000" stroke-opacity="0.200000" points="709.9082,-438.8646 715.788,-436.4485 709.6848,-434.6705 709.9082,-438.8646"/>
</g>
<!-- src/app.js -->
<g id="node8" class="node">
<title>src/app.js</title>
<g id="a_node8"><a xlink:href="src/app.js" xlink:title="app.js">
<path fill="#ffffcc" stroke="#000000" d="M131,-203C131,-203 89,-203 89,-203 86,-203 83,-200 83,-197 83,-197 83,-191 83,-191 83,-188 86,-185 89,-185 89,-185 131,-185 131,-185 134,-185 137,-188 137,-191 137,-191 137,-197 137,-197 137,-200 134,-203 131,-203"/>
<text text-anchor="middle" x="110" y="-191.8" font-family="Helvetica,sans-Serif" font-size="9.00" fill="#000000">app.js</text>
</a>
</g>
</g>
<!-- src/app.js&#45;&gt;node_modules/body&#45;parser/index.js -->
<g id="edge4" class="edge">
<title>src/app.js&#45;&gt;node_modules/body&#45;parser/index.js</title>
<path fill="none" stroke="#000000" stroke-dasharray="5,2" stroke-opacity="0.200000" d="M129.0597,-184.9616C163.2788,-169.5891 237.7489,-140 304,-140 304,-140 304,-140 523.5,-140 591.9862,-140 669.8811,-162.1478 711.9945,-176.0362"/>
<polygon fill="#000000" fill-opacity="0.200000" stroke="#000000" stroke-opacity="0.200000" points="711.3385,-178.0311 717.6947,-177.9379 712.6677,-174.0469 711.3385,-178.0311"/>
</g>
<!-- src/app.js&#45;&gt;node_modules/express/index.js -->
<g id="edge5" class="edge">
<title>src/app.js&#45;&gt;node_modules/express/index.js</title>
<path fill="none" stroke="#000000" stroke-dasharray="5,2" stroke-opacity="0.200000" d="M130.9332,-184.8622C133.2278,-183.1803 135.3321,-181.2346 137,-179 146.8038,-165.865 133.1907,-154.3659 145,-143 196.7556,-93.1877 232.1675,-114 304,-114 304,-114 304,-114 523.5,-114 589.7207,-114 666.9827,-119.9691 709.9168,-123.8178"/>
<polygon fill="#000000" fill-opacity="0.200000" stroke="#000000" stroke-opacity="0.200000" points="709.8317,-125.9186 715.9969,-124.3693 710.2112,-121.7357 709.8317,-125.9186"/>
</g>
<!-- src/controllers/index.js -->
<g id="node9" class="node">
<title>src/controllers/index.js</title>
<g id="a_node9"><a xlink:href="src/controllers/index.js" xlink:title="index.js">
<path fill="#ffffcc" stroke="#000000" d="M221,-455C221,-455 179,-455 179,-455 176,-455 173,-452 173,-449 173,-449 173,-443 173,-443 173,-440 176,-437 179,-437 179,-437 221,-437 221,-437 224,-437 227,-440 227,-443 227,-443 227,-449 227,-449 227,-452 224,-455 221,-455"/>
<text text-anchor="middle" x="200" y="-443.8" font-family="Helvetica,sans-Serif" font-size="9.00" fill="#000000">index.js</text>
</a>
</g>
</g>
<!-- src/app.js&#45;&gt;src/controllers/index.js -->
<g id="edge2" class="edge">
<title>src/app.js&#45;&gt;src/controllers/index.js</title>
<path fill="none" stroke="#000000" stroke-width="2" stroke-opacity="0.200000" d="M113.3099,-203.2677C126.8462,-241.1695 178.0623,-384.5744 194.7259,-431.2326"/>
<polygon fill="#000000" fill-opacity="0.200000" stroke="#000000" stroke-width="2" stroke-opacity="0.200000" points="192.7592,-431.9697 196.7549,-436.9138 196.7145,-430.557 192.7592,-431.9697"/>
</g>
<!-- src/helpers/expressCallback.js -->
<g id="node10" class="node">
<title>src/helpers/expressCallback.js</title>
<g id="a_node10"><a xlink:href="src/helpers/expressCallback.js" xlink:title="expressCallback.js">
<path fill="#ffffcc" stroke="#000000" d="M241,-605C241,-605 159,-605 159,-605 156,-605 153,-602 153,-599 153,-599 153,-593 153,-593 153,-590 156,-587 159,-587 159,-587 241,-587 241,-587 244,-587 247,-590 247,-593 247,-593 247,-599 247,-599 247,-602 244,-605 241,-605"/>
<text text-anchor="middle" x="200" y="-593.8" font-family="Helvetica,sans-Serif" font-size="9.00" fill="#000000">expressCallback.js</text>
</a>
</g>
</g>
<!-- src/app.js&#45;&gt;src/helpers/expressCallback.js -->
<g id="edge3" class="edge">
<title>src/app.js&#45;&gt;src/helpers/expressCallback.js</title>
<path fill="none" stroke="#000000" stroke-width="2" stroke-opacity="0.200000" d="M110.2815,-203.2868C112.0331,-258.6057 122.1184,-543.3361 145,-574 147.9407,-577.9409 151.7014,-581.1771 155.8734,-583.8344"/>
<polygon fill="#000000" fill-opacity="0.200000" stroke="#000000" stroke-width="2" stroke-opacity="0.200000" points="155.0859,-585.8003 161.3469,-586.9002 157.1384,-582.1359 155.0859,-585.8003"/>
</g>
<!-- src/controllers/friend&#45;endpoint.js -->
<g id="node14" class="node">
<title>src/controllers/friend&#45;endpoint.js</title>
<g id="a_node14"><a xlink:href="src/controllers/friend-endpoint.js" xlink:title="friend&#45;endpoint.js">
<path fill="#ffffcc" stroke="#000000" d="M342,-511C342,-511 266,-511 266,-511 263,-511 260,-508 260,-505 260,-505 260,-499 260,-499 260,-496 263,-493 266,-493 266,-493 342,-493 342,-493 345,-493 348,-496 348,-499 348,-499 348,-505 348,-505 348,-508 345,-511 342,-511"/>
<text text-anchor="middle" x="304" y="-499.8" font-family="Helvetica,sans-Serif" font-size="9.00" fill="#000000">friend&#45;endpoint.js</text>
</a>
</g>
</g>
<!-- src/controllers/index.js&#45;&gt;src/controllers/friend&#45;endpoint.js -->
<g id="edge8" class="edge">
<title>src/controllers/index.js&#45;&gt;src/controllers/friend&#45;endpoint.js</title>
<path fill="none" stroke="#000000" stroke-width="2" stroke-opacity="0.200000" d="M217.1735,-455.2473C234.7411,-464.7067 262.1233,-479.451 281.4325,-489.8483"/>
<polygon fill="#000000" fill-opacity="0.200000" stroke="#000000" stroke-width="2" stroke-opacity="0.200000" points="280.8676,-491.9292 287.1461,-492.9248 282.8589,-488.2312 280.8676,-491.9292"/>
</g>
<!-- src/domain/user&#45;service/index.js -->
<g id="node15" class="node">
<title>src/domain/user&#45;service/index.js</title>
<g id="a_node15"><a xlink:href="src/domain/user-service/index.js" xlink:title="index.js">
<path fill="#ffffcc" stroke="#000000" d="M325,-365C325,-365 283,-365 283,-365 280,-365 277,-362 277,-359 277,-359 277,-353 277,-353 277,-350 280,-347 283,-347 283,-347 325,-347 325,-347 328,-347 331,-350 331,-353 331,-353 331,-359 331,-359 331,-362 328,-365 325,-365"/>
<text text-anchor="middle" x="304" y="-353.8" font-family="Helvetica,sans-Serif" font-size="9.00" fill="#000000">index.js</text>
</a>
</g>
</g>
<!-- src/controllers/index.js&#45;&gt;src/domain/user&#45;service/index.js -->
<g id="edge7" class="edge">
<title>src/controllers/index.js&#45;&gt;src/domain/user&#45;service/index.js</title>
<path fill="none" stroke="#000000" stroke-width="2" stroke-opacity="0.200000" d="M210.7381,-436.7074C229.284,-420.6581 267.3729,-387.6965 288.6903,-369.2488"/>
<polygon fill="#000000" fill-opacity="0.200000" stroke="#000000" stroke-width="2" stroke-opacity="0.200000" points="290.3124,-370.6223 293.4752,-365.108 287.564,-367.4463 290.3124,-370.6223"/>
</g>
<!-- src/controllers/user&#45;endpoint.js -->
<g id="node16" class="node">
<title>src/controllers/user&#45;endpoint.js</title>
<g id="a_node16"><a xlink:href="src/controllers/user-endpoint.js" xlink:title="user&#45;endpoint.js">
<path fill="#ffffcc" stroke="#000000" d="M339.5,-466C339.5,-466 268.5,-466 268.5,-466 265.5,-466 262.5,-463 262.5,-460 262.5,-460 262.5,-454 262.5,-454 262.5,-451 265.5,-448 268.5,-448 268.5,-448 339.5,-448 339.5,-448 342.5,-448 345.5,-451 345.5,-454 345.5,-454 345.5,-460 345.5,-460 345.5,-463 342.5,-466 339.5,-466"/>
<text text-anchor="middle" x="304" y="-454.8" font-family="Helvetica,sans-Serif" font-size="9.00" fill="#000000">user&#45;endpoint.js</text>
</a>
</g>
</g>
<!-- src/controllers/index.js&#45;&gt;src/controllers/user&#45;endpoint.js -->
<g id="edge9" class="edge">
<title>src/controllers/index.js&#45;&gt;src/controllers/user&#45;endpoint.js</title>
<path fill="none" stroke="#000000" stroke-width="2" stroke-opacity="0.200000" d="M227.0533,-448.8614C235.9249,-449.7998 246.0662,-450.8724 256.0107,-451.9242"/>
<polygon fill="#000000" fill-opacity="0.200000" stroke="#000000" stroke-width="2" stroke-opacity="0.200000" points="255.9763,-454.0322 262.164,-452.575 256.4182,-449.8555 255.9763,-454.0322"/>
</g>
<!-- src/helpers/adaptRequest.js -->
<g id="node26" class="node">
<title>src/helpers/adaptRequest.js</title>
<g id="a_node26"><a xlink:href="src/helpers/adaptRequest.js" xlink:title="adaptRequest.js">
<path fill="#ffffcc" stroke="#000000" d="M339.5,-605C339.5,-605 268.5,-605 268.5,-605 265.5,-605 262.5,-602 262.5,-599 262.5,-599 262.5,-593 262.5,-593 262.5,-590 265.5,-587 268.5,-587 268.5,-587 339.5,-587 339.5,-587 342.5,-587 345.5,-590 345.5,-593 345.5,-593 345.5,-599 345.5,-599 345.5,-602 342.5,-605 339.5,-605"/>
<text text-anchor="middle" x="304" y="-593.8" font-family="Helvetica,sans-Serif" font-size="9.00" fill="#000000">adaptRequest.js</text>
</a>
</g>
</g>
<!-- src/helpers/expressCallback.js&#45;&gt;src/helpers/adaptRequest.js -->
<g id="edge23" class="edge">
<title>src/helpers/expressCallback.js&#45;&gt;src/helpers/adaptRequest.js</title>
<path fill="none" stroke="#000000" stroke-width="2" stroke-opacity="0.200000" d="M247.1313,-596C250.131,-596 253.1524,-596 256.1552,-596"/>
<polygon fill="#000000" fill-opacity="0.200000" stroke="#000000" stroke-width="2" stroke-opacity="0.200000" points="256.2798,-598.1001 262.2798,-596 256.2797,-593.9001 256.2798,-598.1001"/>
</g>
<!-- src/controllers/aux/httpError.js -->
<g id="node11" class="node">
<title>src/controllers/aux/httpError.js</title>
<g id="a_node11"><a xlink:href="src/controllers/aux/httpError.js" xlink:title="httpError.js">
<path fill="#ffffcc" stroke="#000000" d="M441.5,-519C441.5,-519 392.5,-519 392.5,-519 389.5,-519 386.5,-516 386.5,-513 386.5,-513 386.5,-507 386.5,-507 386.5,-504 389.5,-501 392.5,-501 392.5,-501 441.5,-501 441.5,-501 444.5,-501 447.5,-504 447.5,-507 447.5,-507 447.5,-513 447.5,-513 447.5,-516 444.5,-519 441.5,-519"/>
<text text-anchor="middle" x="417" y="-507.8" font-family="Helvetica,sans-Serif" font-size="9.00" fill="#000000">httpError.js</text>
</a>
</g>
</g>
<!-- src/controllers/aux/isSouthOrNorth.js -->
<g id="node12" class="node">
<title>src/controllers/aux/isSouthOrNorth.js</title>
<g id="a_node12"><a xlink:href="src/controllers/aux/isSouthOrNorth.js" xlink:title="isSouthOrNorth.js">
<path fill="#ffffcc" stroke="#000000" d="M455.5,-459C455.5,-459 378.5,-459 378.5,-459 375.5,-459 372.5,-456 372.5,-453 372.5,-453 372.5,-447 372.5,-447 372.5,-444 375.5,-441 378.5,-441 378.5,-441 455.5,-441 455.5,-441 458.5,-441 461.5,-444 461.5,-447 461.5,-447 461.5,-453 461.5,-453 461.5,-456 458.5,-459 455.5,-459"/>
<text text-anchor="middle" x="417" y="-447.8" font-family="Helvetica,sans-Serif" font-size="9.00" fill="#000000">isSouthOrNorth.js</text>
</a>
</g>
</g>
<!-- src/controllers/aux/processSouthern.js -->
<g id="node13" class="node">
<title>src/controllers/aux/processSouthern.js</title>
<g id="a_node13"><a xlink:href="src/controllers/aux/processSouthern.js" xlink:title="processSouthern.js">
<path fill="#ffffcc" stroke="#000000" d="M458.5,-489C458.5,-489 375.5,-489 375.5,-489 372.5,-489 369.5,-486 369.5,-483 369.5,-483 369.5,-477 369.5,-477 369.5,-474 372.5,-471 375.5,-471 375.5,-471 458.5,-471 458.5,-471 461.5,-471 464.5,-474 464.5,-477 464.5,-477 464.5,-483 464.5,-483 464.5,-486 461.5,-489 458.5,-489"/>
<text text-anchor="middle" x="417" y="-477.8" font-family="Helvetica,sans-Serif" font-size="9.00" fill="#000000">processSouthern.js</text>
</a>
</g>
</g>
<!-- src/controllers/friend&#45;endpoint.js&#45;&gt;src/controllers/aux/httpError.js -->
<g id="edge6" class="edge">
<title>src/controllers/friend&#45;endpoint.js&#45;&gt;src/controllers/aux/httpError.js</title>
<path fill="none" stroke="#000000" stroke-width="2" stroke-opacity="0.200000" d="M348.0123,-505.1159C358.584,-505.8644 369.7696,-506.6563 379.9865,-507.3796"/>
<polygon fill="#000000" fill-opacity="0.200000" stroke="#000000" stroke-width="2" stroke-opacity="0.200000" points="380.0752,-509.491 386.2086,-507.8201 380.3719,-505.3015 380.0752,-509.491"/>
</g>
<!-- src/db/userdb/index.js -->
<g id="node20" class="node">
<title>src/db/userdb/index.js</title>
<g id="a_node20"><a xlink:href="src/db/userdb/index.js" xlink:title="index.js">
<path fill="#ffffcc" stroke="#000000" d="M438,-245C438,-245 396,-245 396,-245 393,-245 390,-242 390,-239 390,-239 390,-233 390,-233 390,-230 393,-227 396,-227 396,-227 438,-227 438,-227 441,-227 444,-230 444,-233 444,-233 444,-239 444,-239 444,-242 441,-245 438,-245"/>
<text text-anchor="middle" x="417" y="-233.8" font-family="Helvetica,sans-Serif" font-size="9.00" fill="#000000">index.js</text>
</a>
</g>
</g>
<!-- src/domain/user&#45;service/index.js&#45;&gt;src/db/userdb/index.js -->
<g id="edge19" class="edge">
<title>src/domain/user&#45;service/index.js&#45;&gt;src/db/userdb/index.js</title>
<path fill="none" stroke="#000000" stroke-width="2" stroke-opacity="0.200000" d="M312.4934,-346.9805C332.126,-326.1317 380.7513,-274.4942 404.0929,-249.7066"/>
<polygon fill="#000000" fill-opacity="0.200000" stroke="#000000" stroke-width="2" stroke-opacity="0.200000" points="405.8236,-250.932 408.4081,-245.1242 402.7659,-248.0527 405.8236,-250.932"/>
</g>
<!-- src/domain/user&#45;service/user&#45;actions.js -->
<g id="node24" class="node">
<title>src/domain/user&#45;service/user&#45;actions.js</title>
<g id="a_node24"><a xlink:href="src/domain/user-service/user-actions.js" xlink:title="user&#45;actions.js">
<path fill="#ffffcc" stroke="#000000" d="M449,-365C449,-365 385,-365 385,-365 382,-365 379,-362 379,-359 379,-359 379,-353 379,-353 379,-350 382,-347 385,-347 385,-347 449,-347 449,-347 452,-347 455,-350 455,-353 455,-353 455,-359 455,-359 455,-362 452,-365 449,-365"/>
<text text-anchor="middle" x="417" y="-353.8" font-family="Helvetica,sans-Serif" font-size="9.00" fill="#000000">user&#45;actions.js</text>
</a>
</g>
</g>
<!-- src/domain/user&#45;service/index.js&#45;&gt;src/domain/user&#45;service/user&#45;actions.js -->
<g id="edge20" class="edge">
<title>src/domain/user&#45;service/index.js&#45;&gt;src/domain/user&#45;service/user&#45;actions.js</title>
<path fill="none" stroke="#000000" stroke-width="2" stroke-opacity="0.200000" d="M331.0663,-356C343.4098,-356 358.3536,-356 372.2946,-356"/>
<polygon fill="#000000" fill-opacity="0.200000" stroke="#000000" stroke-width="2" stroke-opacity="0.200000" points="372.6165,-358.1001 378.6165,-356 372.6165,-353.9001 372.6165,-358.1001"/>
</g>
<!-- src/controllers/user&#45;endpoint.js&#45;&gt;src/controllers/aux/httpError.js -->
<g id="edge10" class="edge">
<title>src/controllers/user&#45;endpoint.js&#45;&gt;src/controllers/aux/httpError.js</title>
<path fill="none" stroke="#000000" stroke-width="2" stroke-opacity="0.200000" d="M321.1595,-466.0463C331.0043,-471.5617 343.3793,-479.0617 353.5,-487 357.4565,-490.1033 357.1481,-492.4811 361.5,-495 367.3202,-498.3687 373.9211,-501.0032 380.4886,-503.0566"/>
<polygon fill="#000000" fill-opacity="0.200000" stroke="#000000" stroke-width="2" stroke-opacity="0.200000" points="380.1404,-505.1416 386.4872,-504.7835 381.3023,-501.1055 380.1404,-505.1416"/>
</g>
<!-- src/controllers/user&#45;endpoint.js&#45;&gt;src/controllers/aux/isSouthOrNorth.js -->
<g id="edge11" class="edge">
<title>src/controllers/user&#45;endpoint.js&#45;&gt;src/controllers/aux/isSouthOrNorth.js</title>
<path fill="none" stroke="#000000" stroke-width="2" stroke-opacity="0.200000" d="M345.756,-454.4133C352.3986,-454.0019 359.3336,-453.5723 366.1573,-453.1495"/>
<polygon fill="#000000" fill-opacity="0.200000" stroke="#000000" stroke-width="2" stroke-opacity="0.200000" points="366.5226,-455.231 372.3812,-452.764 366.2628,-451.0391 366.5226,-455.231"/>
</g>
<!-- src/controllers/user&#45;endpoint.js&#45;&gt;src/controllers/aux/processSouthern.js -->
<g id="edge12" class="edge">
<title>src/controllers/user&#45;endpoint.js&#45;&gt;src/controllers/aux/processSouthern.js</title>
<path fill="none" stroke="#000000" stroke-width="2" stroke-opacity="0.200000" d="M345.756,-465.499C352.6324,-466.8986 359.8221,-468.362 366.8774,-469.7981"/>
<polygon fill="#000000" fill-opacity="0.200000" stroke="#000000" stroke-width="2" stroke-opacity="0.200000" points="366.4642,-471.8569 372.7625,-470.9959 367.3019,-467.7413 366.4642,-471.8569"/>
</g>
<!-- src/db/development.js -->
<g id="node17" class="node">
<title>src/db/development.js</title>
<g id="a_node17"><a xlink:href="src/db/development.js" xlink:title="development.js">
<path fill="#ccffcc" stroke="#000000" d="M450.5,-211C450.5,-211 383.5,-211 383.5,-211 380.5,-211 377.5,-208 377.5,-205 377.5,-205 377.5,-199 377.5,-199 377.5,-196 380.5,-193 383.5,-193 383.5,-193 450.5,-193 450.5,-193 453.5,-193 456.5,-196 456.5,-199 456.5,-199 456.5,-205 456.5,-205 456.5,-208 453.5,-211 450.5,-211"/>
<text text-anchor="middle" x="417" y="-199.8" font-family="Helvetica,sans-Serif" font-size="9.00" fill="#000000">development.js</text>
</a>
</g>
</g>
<!-- src/db/index.js -->
<g id="node18" class="node">
<title>src/db/index.js</title>
<g id="a_node18"><a xlink:href="src/db/index.js" xlink:title="index.js">
<path fill="#ffffcc" stroke="#000000" d="M544.5,-297C544.5,-297 502.5,-297 502.5,-297 499.5,-297 496.5,-294 496.5,-291 496.5,-291 496.5,-285 496.5,-285 496.5,-282 499.5,-279 502.5,-279 502.5,-279 544.5,-279 544.5,-279 547.5,-279 550.5,-282 550.5,-285 550.5,-285 550.5,-291 550.5,-291 550.5,-294 547.5,-297 544.5,-297"/>
<text text-anchor="middle" x="523.5" y="-285.8" font-family="Helvetica,sans-Serif" font-size="9.00" fill="#000000">index.js</text>
</a>
</g>
</g>
<!-- src/db/index.js&#45;&gt;node_modules/pg/lib/index.js -->
<g id="edge13" class="edge">
<title>src/db/index.js&#45;&gt;node_modules/pg/lib/index.js</title>
<path fill="none" stroke="#000000" stroke-dasharray="5,2" stroke-opacity="0.200000" d="M550.856,-295.6024C591.248,-306.8275 666.729,-327.804 710.0904,-339.8543"/>
<polygon fill="#000000" fill-opacity="0.200000" stroke="#000000" stroke-opacity="0.200000" points="709.6455,-341.9102 715.9888,-341.4935 710.7702,-337.8635 709.6455,-341.9102"/>
</g>
<!-- src/db/test.js -->
<g id="node19" class="node">
<title>src/db/test.js</title>
<g id="a_node19"><a xlink:href="src/db/test.js" xlink:title="test.js">
<path fill="#ccffcc" stroke="#000000" d="M438,-181C438,-181 396,-181 396,-181 393,-181 390,-178 390,-175 390,-175 390,-169 390,-169 390,-166 393,-163 396,-163 396,-163 438,-163 438,-163 441,-163 444,-166 444,-169 444,-169 444,-175 444,-175 444,-178 441,-181 438,-181"/>
<text text-anchor="middle" x="417" y="-169.8" font-family="Helvetica,sans-Serif" font-size="9.00" fill="#000000">test.js</text>
</a>
</g>
</g>
<!-- src/db/userdb/index.js&#45;&gt;src/db/index.js -->
<g id="edge14" class="edge">
<title>src/db/userdb/index.js&#45;&gt;src/db/index.js</title>
<path fill="none" stroke="#000000" stroke-width="2" stroke-opacity="0.200000" d="M432.935,-245.1074C447.2618,-253.141 468.9907,-264.946 488.5,-274 490.2809,-274.8265 492.1251,-275.6515 493.9932,-276.4641"/>
<polygon fill="#000000" fill-opacity="0.200000" stroke="#000000" stroke-width="2" stroke-opacity="0.200000" points="493.2864,-278.4453 499.6302,-278.8535 494.9255,-274.5784 493.2864,-278.4453"/>
</g>
<!-- src/db/userdb/userdb.js -->
<g id="node21" class="node">
<title>src/db/userdb/userdb.js</title>
<g id="a_node21"><a xlink:href="src/db/userdb/userdb.js" xlink:title="userdb.js">
<path fill="#ffffcc" stroke="#000000" d="M544.5,-245C544.5,-245 502.5,-245 502.5,-245 499.5,-245 496.5,-242 496.5,-239 496.5,-239 496.5,-233 496.5,-233 496.5,-230 499.5,-227 502.5,-227 502.5,-227 544.5,-227 544.5,-227 547.5,-227 550.5,-230 550.5,-233 550.5,-233 550.5,-239 550.5,-239 550.5,-242 547.5,-245 544.5,-245"/>
<text text-anchor="middle" x="523.5" y="-233.8" font-family="Helvetica,sans-Serif" font-size="9.00" fill="#000000">userdb.js</text>
</a>
</g>
</g>
<!-- src/db/userdb/index.js&#45;&gt;src/db/userdb/userdb.js -->
<g id="edge15" class="edge">
<title>src/db/userdb/index.js&#45;&gt;src/db/userdb/userdb.js</title>
<path fill="none" stroke="#000000" stroke-width="2" stroke-opacity="0.200000" d="M444.15,-236C458.1703,-236 475.3975,-236 490.2138,-236"/>
<polygon fill="#000000" fill-opacity="0.200000" stroke="#000000" stroke-width="2" stroke-opacity="0.200000" points="490.3996,-238.1001 496.3996,-236 490.3995,-233.9001 490.3996,-238.1001"/>
</g>
<!-- src/domain/user&#45;model/index.js -->
<g id="node22" class="node">
<title>src/domain/user&#45;model/index.js</title>
<g id="a_node22"><a xlink:href="src/domain/user-model/index.js" xlink:title="index.js">
<path fill="#ffffcc" stroke="#000000" d="M544.5,-365C544.5,-365 502.5,-365 502.5,-365 499.5,-365 496.5,-362 496.5,-359 496.5,-359 496.5,-353 496.5,-353 496.5,-350 499.5,-347 502.5,-347 502.5,-347 544.5,-347 544.5,-347 547.5,-347 550.5,-350 550.5,-353 550.5,-353 550.5,-359 550.5,-359 550.5,-362 547.5,-365 544.5,-365"/>
<text text-anchor="middle" x="523.5" y="-353.8" font-family="Helvetica,sans-Serif" font-size="9.00" fill="#000000">index.js</text>
</a>
</g>
</g>
<!-- src/domain/user&#45;model/index.js&#45;&gt;node_modules/sanitize&#45;html/dist/sanitize&#45;html.js -->
<g id="edge18" class="edge">
<title>src/domain/user&#45;model/index.js&#45;&gt;node_modules/sanitize&#45;html/dist/sanitize&#45;html.js</title>
<path fill="none" stroke="#000000" stroke-dasharray="5,2" stroke-opacity="0.200000" d="M543.3663,-346.8588C583.3609,-328.4558 673.5269,-286.9671 717.677,-266.6521"/>
<polygon fill="#000000" fill-opacity="0.200000" stroke="#000000" stroke-opacity="0.200000" points="718.7639,-268.4636 723.3367,-264.0478 717.0082,-264.6482 718.7639,-268.4636"/>
</g>
<!-- src/domain/user&#45;model/index.js&#45;&gt;src/Id/index.js -->
<g id="edge16" class="edge">
<title>src/domain/user&#45;model/index.js&#45;&gt;src/Id/index.js</title>
<path fill="none" stroke="#000000" stroke-width="2" stroke-opacity="0.200000" d="M532.9175,-365.2035C548.3995,-380.3336 579.3128,-410.5444 597.4094,-428.2296"/>
<polygon fill="#000000" fill-opacity="0.200000" stroke="#000000" stroke-width="2" stroke-opacity="0.200000" points="596.3913,-430.1709 602.1502,-432.8627 599.3268,-427.1671 596.3913,-430.1709"/>
</g>
<!-- src/domain/user&#45;model/userFactory.js -->
<g id="node23" class="node">
<title>src/domain/user&#45;model/userFactory.js</title>
<g id="a_node23"><a xlink:href="src/domain/user-model/userFactory.js" xlink:title="userFactory.js">
<path fill="#ffffcc" stroke="#000000" d="M642.5,-365C642.5,-365 580.5,-365 580.5,-365 577.5,-365 574.5,-362 574.5,-359 574.5,-359 574.5,-353 574.5,-353 574.5,-350 577.5,-347 580.5,-347 580.5,-347 642.5,-347 642.5,-347 645.5,-347 648.5,-350 648.5,-353 648.5,-353 648.5,-359 648.5,-359 648.5,-362 645.5,-365 642.5,-365"/>
<text text-anchor="middle" x="611.5" y="-353.8" font-family="Helvetica,sans-Serif" font-size="9.00" fill="#000000">userFactory.js</text>
</a>
</g>
</g>
<!-- src/domain/user&#45;model/index.js&#45;&gt;src/domain/user&#45;model/userFactory.js -->
<g id="edge17" class="edge">
<title>src/domain/user&#45;model/index.js&#45;&gt;src/domain/user&#45;model/userFactory.js</title>
<path fill="none" stroke="#000000" stroke-width="2" stroke-opacity="0.200000" d="M550.8614,-356C556.3451,-356 562.2332,-356 568.1069,-356"/>
<polygon fill="#000000" fill-opacity="0.200000" stroke="#000000" stroke-width="2" stroke-opacity="0.200000" points="568.4551,-358.1001 574.455,-356 568.455,-353.9001 568.4551,-358.1001"/>
</g>
<!-- src/domain/user&#45;service/user&#45;actions.js&#45;&gt;src/domain/user&#45;model/index.js -->
<g id="edge21" class="edge">
<title>src/domain/user&#45;service/user&#45;actions.js&#45;&gt;src/domain/user&#45;model/index.js</title>
<path fill="none" stroke="#000000" stroke-width="2" stroke-opacity="0.200000" d="M455.1481,-356C466.6302,-356 479.1334,-356 490.2695,-356"/>
<polygon fill="#000000" fill-opacity="0.200000" stroke="#000000" stroke-width="2" stroke-opacity="0.200000" points="490.3004,-358.1001 496.3004,-356 490.3004,-353.9001 490.3004,-358.1001"/>
</g>
<!-- src/env.js -->
<g id="node25" class="node">
<title>src/env.js</title>
<g id="a_node25"><a xlink:href="src/env.js" xlink:title="env.js">
<path fill="#ffffcc" stroke="#000000" d="M131,-173C131,-173 89,-173 89,-173 86,-173 83,-170 83,-167 83,-167 83,-161 83,-161 83,-158 86,-155 89,-155 89,-155 131,-155 131,-155 134,-155 137,-158 137,-161 137,-161 137,-167 137,-167 137,-170 134,-173 131,-173"/>
<text text-anchor="middle" x="110" y="-161.8" font-family="Helvetica,sans-Serif" font-size="9.00" fill="#000000">env.js</text>
</a>
</g>
</g>
<!-- src/env.js&#45;&gt;node_modules/dotenv/lib/main.js -->
<g id="edge22" class="edge">
<title>src/env.js&#45;&gt;node_modules/dotenv/lib/main.js</title>
<path fill="none" stroke="#000000" stroke-dasharray="5,2" stroke-opacity="0.200000" d="M113.0608,-154.5685C117.7803,-141.5688 128.0996,-118.3539 145,-106 203.6565,-63.1231 231.3432,-68 304,-68 304,-68 304,-68 523.5,-68 589.9201,-68 666.8056,-55.6707 709.6825,-47.6752"/>
<polygon fill="#000000" fill-opacity="0.200000" stroke="#000000" stroke-opacity="0.200000" points="710.25,-49.7053 715.7565,-46.529 709.4712,-45.5781 710.25,-49.7053"/>
</g>
<!-- src/index.js -->
<g id="node27" class="node">
<title>src/index.js</title>
<g id="a_node27"><a xlink:href="src/index.js" xlink:title="index.js">
<path fill="#ffffcc" stroke="#000000" d="M64,-188C64,-188 22,-188 22,-188 19,-188 16,-185 16,-182 16,-182 16,-176 16,-176 16,-173 19,-170 22,-170 22,-170 64,-170 64,-170 67,-170 70,-173 70,-176 70,-176 70,-182 70,-182 70,-185 67,-188 64,-188"/>
<text text-anchor="middle" x="43" y="-176.8" font-family="Helvetica,sans-Serif" font-size="9.00" fill="#000000">index.js</text>
</a>
</g>
</g>
<!-- src/index.js&#45;&gt;src/app.js -->
<g id="edge24" class="edge">
<title>src/index.js&#45;&gt;src/app.js</title>
<path fill="none" stroke="#000000" stroke-width="2" stroke-opacity="0.200000" d="M70.2515,-185.1011C72.4841,-185.6009 74.7551,-186.1093 77.0229,-186.6171"/>
<polygon fill="#000000" fill-opacity="0.200000" stroke="#000000" stroke-width="2" stroke-opacity="0.200000" points="76.676,-188.6913 82.9899,-187.953 77.5937,-184.5928 76.676,-188.6913"/>
</g>
<!-- src/index.js&#45;&gt;src/env.js -->
<g id="edge25" class="edge">
<title>src/index.js&#45;&gt;src/env.js</title>
<path fill="none" stroke="#000000" stroke-width="2" stroke-opacity="0.200000" d="M70.2515,-172.8989C72.4841,-172.3991 74.7551,-171.8907 77.0229,-171.3829"/>
<polygon fill="#000000" fill-opacity="0.200000" stroke="#000000" stroke-width="2" stroke-opacity="0.200000" points="77.5937,-173.4072 82.9899,-170.047 76.676,-169.3087 77.5937,-173.4072"/>
</g>
</g>
</svg>
